<?xml version="1.0" encoding="UTF-8"?>
<svg version="1.1" xmlns="http://www.w3.org/2000/svg" width="500" height="500">
<path d="M0 0 C4.35522853 0.50642192 7.44239635 1.38411497 11 4 C11 4.66 11 5.32 11 6 C11.70125 6.226875 12.4025 6.45375 13.125 6.6875 C18.12681589 8.97093769 22.40693944 12.85416089 26 17 C26 17.99 26 18.98 26 20 C26.99 20.33 27.98 20.66 29 21 C32 25.33333333 32 25.33333333 32 28 C32.66 28 33.32 28 34 28 C34.433125 29.1446875 34.433125 29.1446875 34.875 30.3125 C35.96269013 33.15029308 35.96269013 33.15029308 38 36 C38.76974834 38.72783078 39.47520266 41.43187795 40.125 44.1875 C40.39763672 45.31188477 40.39763672 45.31188477 40.67578125 46.45898438 C41.12251686 48.30470781 41.5619694 50.15219132 42 52 C43.01723145 51.97905273 44.03446289 51.95810547 45.08251953 51.93652344 C48.92547021 51.86307995 52.76836164 51.81782918 56.61181641 51.78027344 C58.26231379 51.76039179 59.912743 51.73327644 61.56298828 51.69824219 C76.889818 51.38145665 89.72210123 52.80854155 102 63 C102.33 63.33 102.66 63.66 103 64 C102.5510729 76.34549538 95.03133545 85.4765442 86.94140625 94.2265625 C85 96 85 96 82 97 C80.99585927 97.99584205 79.99630318 98.9963168 79 100 C76.0844364 101.82153307 73.035208 103.38754575 70 105 C69.071875 105.53625 68.14375 106.0725 67.1875 106.625 C55.54184075 111.64861771 43.47682318 112.17117593 31 112 C30.88785156 112.85851562 30.77570313 113.71703125 30.66015625 114.6015625 C28.15947492 127.47489241 20.13186718 141.75774698 13.0625 152.75 C11.33077615 155.47877697 10.62560917 156.97073452 10 160 C9.34 160 8.68 160 8 160 C7.64228516 161.28197266 7.64228516 161.28197266 7.27734375 162.58984375 C5.86910886 166.34944331 3.90638827 169.3477001 1.5625 172.5625 C-1.70947422 177.12597007 -1.70947422 177.12597007 -4.66015625 181.90234375 C-5.32337891 182.94068359 -5.32337891 182.94068359 -6 184 C-6.66 184 -7.32 184 -8 184 C-8.20625 184.680625 -8.4125 185.36125 -8.625 186.0625 C-10.42895027 189.91639375 -12.9010345 193.07787764 -16 196 C-16.66 196 -17.32 196 -18 196 C-18.66 197.32 -19.32 198.64 -20 200 C-20.66 200 -21.32 200 -22 200 C-22.66 201.32 -23.32 202.64 -24 204 C-24.66 204 -25.32 204 -26 204 C-26.66 205.32 -27.32 206.64 -28 208 C-28.66 208 -29.32 208 -30 208 C-30.66 209.32 -31.32 210.64 -32 212 C-32.66 212 -33.32 212 -34 212 C-34.33 212.99 -34.66 213.98 -35 215 C-37.11205447 216.82470012 -39.21001529 218.51748205 -41.4375 220.1875 C-42.3356543 220.88262695 -42.3356543 220.88262695 -43.25195312 221.59179688 C-47.73431747 225 -47.73431747 225 -50 225 C-50 225.66 -50 226.32 -50 227 C-53.81679612 229.90803514 -57.39571066 231.68448876 -62 233 C-62 233.66 -62 234.32 -62 235 C-62.78375 235.37125 -63.5675 235.7425 -64.375 236.125 C-67.33282858 237.59342554 -70.12364176 239.27302136 -72.9375 241 C-76.85736462 243.37532095 -80.73623647 245.29449459 -85 247 C-86.37658257 247.62150658 -87.75145501 248.24680882 -89.125 248.875 C-102.01092667 254.59722506 -115.2120672 259.07162259 -129 262 C-130.62663574 262.34865112 -130.62663574 262.34865112 -132.28613281 262.7043457 C-148.55731983 266.14279759 -164.31682366 268.96878246 -181 269 C-183.04368813 269.01909754 -185.08737597 269.03823306 -187.13105774 269.05799866 C-196.75537385 269.14477415 -206.37599794 269.10164515 -216 269 C-217.02609375 268.99274902 -218.0521875 268.98549805 -219.109375 268.97802734 C-242.56197767 268.72515754 -267.66554829 263.81258165 -289 254 C-290.05574219 253.52433594 -290.05574219 253.52433594 -291.1328125 253.0390625 C-299.30237589 249.16926931 -307.41932965 244.22495844 -314 238 C-314 237.34 -314 236.68 -314 236 C-314.58394531 235.91492188 -315.16789062 235.82984375 -315.76953125 235.7421875 C-318.63296827 234.78938009 -319.75202146 233.41734551 -321.6875 231.125 C-322.28949219 230.42632812 -322.89148438 229.72765625 -323.51171875 229.0078125 C-325 227 -325 227 -326 224 C-326.66 224 -327.32 224 -328 224 C-329.65321846 221.88891992 -331.15055764 219.79521909 -332.625 217.5625 C-333.28943115 216.56053589 -333.28943115 216.56053589 -333.96728516 215.53833008 C-338.79207003 208.0622506 -342.46074654 200.1439947 -346 192 C-346.39832031 191.12085938 -346.79664063 190.24171875 -347.20703125 189.3359375 C-350.70459188 181.22605588 -352.83083501 172.54288247 -355 164 C-355.25096436 163.02667725 -355.50192871 162.05335449 -355.76049805 161.05053711 C-357.78744424 152.80493763 -358.89940681 144.63529649 -359.6875 136.1875 C-359.74970734 135.53279724 -359.81191467 134.87809448 -359.87600708 134.20355225 C-362.59451032 105.37589847 -362.59451032 105.37589847 -358.34765625 98.48046875 C-355.916319 95.80952146 -353.26876719 94.51331814 -350 93 C-349.01 92.505 -349.01 92.505 -348 92 C-346.26389272 91.9052701 -344.52411117 91.87520716 -342.78542137 91.87530136 C-341.11699403 91.87171494 -341.11699403 91.87171494 -339.41486108 91.86805606 C-338.18260628 91.87048855 -336.95035147 91.87292104 -335.68075562 91.87542725 C-333.72889546 91.87331202 -333.72889546 91.87331202 -331.73760378 91.87115407 C-328.8715329 91.86808729 -326.00548522 91.86820841 -323.13941383 91.87071037 C-318.47609974 91.87476078 -313.81280391 91.8720055 -309.14949036 91.86836243 C-303.25547918 91.86426712 -297.36147207 91.86203269 -291.46745946 91.86194643 C-279.87205615 91.86174376 -268.27669472 91.84928651 -256.68130493 91.83233643 C-254.85588818 91.82973054 -253.03047141 91.82713173 -251.20505464 91.8245399 C-248.43805784 91.82060121 -245.67106104 91.81665471 -242.90406429 91.81267868 C-232.46338826 91.79772253 -222.02271095 91.78410493 -211.58203125 91.77197266 C-210.15004219 91.77030231 -210.15004219 91.77030231 -208.68912406 91.76859823 C-193.24828932 91.75105552 -177.8074808 91.7481518 -162.36663775 91.74982306 C-146.50559826 91.75110453 -130.64465599 91.73330156 -114.78365386 91.69880509 C-105.00713552 91.67820424 -95.23085054 91.67278054 -85.45431997 91.6871334 C-78.74163804 91.69562789 -72.02913655 91.68576878 -65.31649266 91.6618239 C-61.45014218 91.64858676 -57.58422506 91.64320672 -53.71787834 91.65994453 C-31.89757759 91.75371697 -31.89757759 91.75371697 -11 86 C-10.34 86 -9.68 86 -9 86 C-9.31453125 85.36835938 -9.6290625 84.73671875 -9.953125 84.0859375 C-18.87183715 65.44260547 -21.10234165 47.15120229 -14.625 27.33984375 C-11.07556533 17.4384371 -6.24240868 8.44242423 0 0 Z " fill="#2496ED" transform="translate(378,156)"/>
<path d="M0 0 C1.97338867 -0.36749268 1.97338867 -0.36749268 4.41796875 -0.35644531 C5.33231689 -0.35944641 6.24666504 -0.36244751 7.1887207 -0.36553955 C8.17831787 -0.35319275 9.16791504 -0.34084595 10.1875 -0.328125 C11.70766724 -0.32531525 11.70766724 -0.32531525 13.25854492 -0.32244873 C15.40384199 -0.31571835 17.54912659 -0.30178446 19.69433594 -0.28125 C22.98644351 -0.25012816 26.2780725 -0.2402839 29.5703125 -0.234375 C31.65104753 -0.225204 33.73177767 -0.21482793 35.8125 -0.203125 C36.80209717 -0.19887512 37.79169434 -0.19462524 38.8112793 -0.19024658 C39.72562744 -0.18063904 40.63997559 -0.17103149 41.58203125 -0.16113281 C42.79209839 -0.15089081 42.79209839 -0.15089081 44.02661133 -0.14044189 C46 0 46 0 48 1 C48 15.19 48 29.38 48 44 C45.66741154 45.16629423 44.28784751 45.13266252 41.68969727 45.14526367 C40.79859756 45.15164352 39.90749786 45.15802338 38.98939514 45.16459656 C38.02480881 45.16570938 37.06022247 45.1668222 36.06640625 45.16796875 C34.58309059 45.17296135 34.58309059 45.17296135 33.06980896 45.17805481 C30.97582465 45.18312339 28.88183224 45.18546316 26.7878418 45.18530273 C23.57912936 45.18748867 20.37076091 45.20564368 17.16210938 45.22460938 C15.13020951 45.22754337 13.09830801 45.22952813 11.06640625 45.23046875 C10.10384415 45.23765427 9.14128204 45.24483978 8.14955139 45.25224304 C7.25529953 45.24916641 6.36104767 45.24608978 5.43969727 45.24291992 C4.65297134 45.24434494 3.86624542 45.24576996 3.05567932 45.24723816 C1 45 1 45 -2 43 C-2.29155391 39.98408991 -2.39576778 37.1768564 -2.36328125 34.16015625 C-2.36377975 33.28225937 -2.36427826 32.40436249 -2.36479187 31.49986267 C-2.36244908 29.64124288 -2.35270848 27.78262005 -2.33618164 25.92407227 C-2.31262288 23.07734813 -2.31561481 20.23156222 -2.32226562 17.38476562 C-2.31668786 15.58072358 -2.30957736 13.77668548 -2.30078125 11.97265625 C-2.30169266 11.11946304 -2.30260406 10.26626984 -2.30354309 9.38722229 C-2.2310381 3.34655715 -2.2310381 3.34655715 0 0 Z " fill="#2495ED" transform="translate(114,144)"/>
<path d="M0 0 C1.33664955 -0.01429802 1.33664955 -0.01429802 2.70030212 -0.02888489 C3.66488846 -0.02797348 4.62947479 -0.02706207 5.62329102 -0.02612305 C6.61216812 -0.03040817 7.60104523 -0.0346933 8.61988831 -0.03910828 C10.71386956 -0.04485816 12.8078708 -0.04534701 14.90185547 -0.04101562 C18.11077887 -0.03785795 21.31877874 -0.06129897 24.52758789 -0.08666992 C26.55948777 -0.08894302 28.59139013 -0.08964636 30.62329102 -0.08862305 C32.06713417 -0.10243767 32.06713417 -0.10243767 33.54014587 -0.11653137 C34.43439774 -0.11030258 35.3286496 -0.10407379 36.25 -0.09765625 C37.03672592 -0.09828568 37.82345184 -0.0989151 38.63401794 -0.0995636 C41.26153492 0.37875718 42.13562958 1.12214008 43.68969727 3.2746582 C43.97594225 6.33513332 44.08600434 9.18779405 44.05297852 12.24731445 C44.05372627 13.56559486 44.05372627 13.56559486 44.05448914 14.9105072 C44.05214944 16.76734683 44.04242706 18.62418967 44.02587891 20.48095703 C44.00225831 23.32979537 44.00532207 26.17769979 44.01196289 29.02661133 C44.00638711 30.8293513 43.99927785 32.63208733 43.99047852 34.43481445 C43.99184563 35.71764061 43.99184563 35.71764061 43.99324036 37.02638245 C43.92072867 43.0436268 43.92072867 43.0436268 41.68969727 45.2746582 C39.71630859 45.52189636 39.71630859 45.52189636 37.27172852 45.51757812 C36.35738037 45.52065475 35.44303223 45.52373138 34.50097656 45.52690125 C33.01658081 45.51612297 33.01658081 45.51612297 31.50219727 45.50512695 C29.98203003 45.50443962 29.98203003 45.50443962 28.43115234 45.5037384 C26.28587678 45.50071389 24.14060346 45.4928217 21.99536133 45.48046875 C18.70329039 45.4622335 15.41150089 45.45995888 12.11938477 45.46020508 C10.03865316 45.45528919 7.95792346 45.44946056 5.87719727 45.44262695 C4.8876001 45.44151413 3.89800293 45.44040131 2.87841797 45.43925476 C1.96406982 45.43287491 1.04972168 45.42649506 0.10766602 45.41992188 C-0.69904541 45.41611008 -1.50575684 45.41229828 -2.33691406 45.40837097 C-4.31030273 45.2746582 -4.31030273 45.2746582 -6.31030273 44.2746582 C-6.35964672 38.32984639 -6.39599555 32.38515311 -6.42016602 26.44018555 C-6.43023944 24.41672693 -6.44389869 22.39328293 -6.46118164 20.36987305 C-6.48537121 17.46570231 -6.49677222 14.5617236 -6.50561523 11.6574707 C-6.51593781 10.74909454 -6.52626038 9.84071838 -6.53689575 8.90481567 C-6.53704681 8.06409515 -6.53719788 7.22337463 -6.53735352 6.35717773 C-6.54179474 5.61549347 -6.54623596 4.8738092 -6.55081177 4.10964966 C-6.02121611 0.06903837 -3.44442822 0.02019241 0 0 Z " fill="#2495EC" transform="translate(176.310302734375,195.725341796875)"/>
<path d="M0 0 C1.34137779 -0.00934319 1.34137779 -0.00934319 2.70985413 -0.01887512 C3.67241623 -0.00966537 4.63497833 -0.00045563 5.62670898 0.0090332 C6.61654282 0.0085347 7.60637665 0.00803619 8.62620544 0.00752258 C10.71843473 0.00986317 12.81066683 0.01959078 14.90283203 0.03613281 C18.11378001 0.05974809 21.32389925 0.05669078 24.53491211 0.05004883 C26.56551604 0.05562469 28.59611646 0.06273399 30.62670898 0.0715332 C31.59129532 0.0706218 32.55588165 0.06971039 33.54969788 0.06877136 C34.44079758 0.07830338 35.33189728 0.08783539 36.25 0.09765625 C37.03593033 0.10226364 37.82186066 0.10687103 38.63160706 0.11161804 C40.56030273 0.37231445 40.56030273 0.37231445 42.56030273 2.37231445 C42.80081177 4.20730591 42.80081177 4.20730591 42.78735352 6.45483398 C42.78720245 7.2955545 42.78705139 8.13627502 42.78689575 9.00247192 C42.77657318 9.91084808 42.76625061 10.81922424 42.75561523 11.75512695 C42.75278534 12.68453094 42.74995544 13.61393494 42.74703979 14.57150269 C42.73582342 17.54690295 42.71071634 20.5220048 42.68530273 23.49731445 C42.67527481 25.51163303 42.66614864 27.52595631 42.65795898 29.5402832 C42.63587934 34.48440902 42.60133967 39.4283111 42.56030273 44.37231445 C40.20175279 45.55158943 38.77213559 45.50515203 36.14233398 45.51757812 C35.22798584 45.52395798 34.3136377 45.53033783 33.37158203 45.53691101 C32.38198486 45.53802383 31.3923877 45.53913666 30.37280273 45.5402832 C29.35935791 45.5436116 28.34591309 45.54694 27.30175781 45.55036926 C25.15649877 45.5554376 23.01123182 45.55777762 20.8659668 45.55761719 C17.57384352 45.55980545 14.28205425 45.57796713 10.98999023 45.59692383 C8.90926222 45.59985734 6.82853261 45.60184242 4.74780273 45.6027832 C3.75820557 45.60996872 2.7686084 45.61715424 1.74902344 45.6245575 C0.37750122 45.61994255 0.37750122 45.61994255 -1.02172852 45.61523438 C-1.82843994 45.61665939 -2.63515137 45.61808441 -3.46630859 45.61955261 C-5.43969727 45.37231445 -5.43969727 45.37231445 -7.43969727 43.37231445 C-7.65206618 40.3944303 -7.74365376 37.51195398 -7.74047852 34.5324707 C-7.74476364 33.65457382 -7.74904877 32.77667694 -7.75346375 31.87217712 C-7.75921226 30.0135891 -7.75970348 28.15497858 -7.75537109 26.29638672 C-7.75221362 23.44956113 -7.77565464 20.60377688 -7.80102539 17.75708008 C-7.80329855 15.95304493 -7.8040018 14.14900699 -7.80297852 12.3449707 C-7.81218826 11.4917775 -7.82139801 10.63858429 -7.83088684 9.75953674 C-7.78453578 3.84994562 -7.78453578 3.84994562 -6.19390869 1.64678955 C-3.97575224 0.03524768 -2.72691053 -0.00218168 0 0 Z " fill="#2495ED" transform="translate(119.439697265625,195.627685546875)"/>
<path d="M0 0 C0.91434814 -0.00953201 1.82869629 -0.01906403 2.77075195 -0.02888489 C3.76034912 -0.02797348 4.74994629 -0.02706207 5.76953125 -0.02612305 C6.78297607 -0.03040817 7.7964209 -0.0346933 8.84057617 -0.03910828 C10.98583223 -0.04485789 13.13110779 -0.04534721 15.27636719 -0.04101562 C18.56869548 -0.0378546 21.8601266 -0.06131109 25.15234375 -0.08666992 C27.23307178 -0.08894264 29.31380223 -0.08964654 31.39453125 -0.08862305 C32.38412842 -0.09783279 33.37372559 -0.10704254 34.39331055 -0.11653137 C35.30765869 -0.11030258 36.22200684 -0.10407379 37.1640625 -0.09765625 C38.37412964 -0.09860039 38.37412964 -0.09860039 39.60864258 -0.0995636 C40.25986084 0.0239296 40.9110791 0.14742279 41.58203125 0.2746582 C44.21719818 4.2274086 43.88771433 7.65857978 43.8828125 12.24731445 C43.88709763 13.12616806 43.89138275 14.00502167 43.89579773 14.9105072 C43.90153864 16.76731505 43.90204305 18.62414538 43.89770508 20.48095703 C43.89453932 23.32989531 43.91802678 26.17780104 43.94335938 29.02661133 C43.94563172 30.82934439 43.94633616 32.63208025 43.9453125 34.43481445 C43.95452225 35.29003189 43.96373199 36.14524933 43.97322083 37.02638245 C43.9543457 39.42333984 43.9543457 39.42333984 43.58203125 43.2746582 C40.4376865 45.37088804 39.72247614 45.52406294 36.14233398 45.51757812 C35.24808212 45.52065475 34.35383026 45.52373138 33.43247986 45.52690125 C31.9886367 45.51612297 31.9886367 45.51612297 30.515625 45.50512695 C29.52579117 45.50466873 28.53595734 45.50421051 27.51612854 45.5037384 C25.42390748 45.5007173 23.33168865 45.49283525 21.23950195 45.48046875 C18.02872799 45.4622105 14.81824234 45.45995909 11.60742188 45.46020508 C9.57682041 45.45528992 7.54622091 45.44946161 5.515625 45.44262695 C4.0687455 45.44095772 4.0687455 45.44095772 2.59263611 45.43925476 C1.70153641 45.43287491 0.81043671 45.42649506 -0.10766602 45.41992188 C-0.89359634 45.41611008 -1.67952667 45.41229828 -2.48927307 45.40837097 C-4.41796875 45.2746582 -4.41796875 45.2746582 -6.41796875 44.2746582 C-6.46731274 38.32984639 -6.50366157 32.38515311 -6.52783203 26.44018555 C-6.53790546 24.41672693 -6.5515647 22.39328293 -6.56884766 20.36987305 C-6.59303722 17.46570231 -6.60443824 14.5617236 -6.61328125 11.6574707 C-6.62360382 10.74909454 -6.63392639 9.84071838 -6.64456177 8.90481567 C-6.64471283 8.06409515 -6.64486389 7.22337463 -6.64501953 6.35717773 C-6.64946075 5.61549347 -6.65390198 4.8738092 -6.65847778 4.10964966 C-6.12212861 0.0175117 -3.47475338 0.01984545 0 0 Z " fill="#2796EB" transform="translate(176.41796875,143.725341796875)"/>
<path d="M0 0 C1.97338867 -0.38095093 1.97338867 -0.38095093 4.41796875 -0.38818359 C5.33231689 -0.39764008 6.24666504 -0.40709656 7.1887207 -0.4168396 C8.17831787 -0.41076691 9.16791504 -0.40469421 10.1875 -0.3984375 C11.20094482 -0.40130768 12.21438965 -0.40417786 13.25854492 -0.40713501 C15.40381427 -0.40917887 17.54910211 -0.40362661 19.69433594 -0.39111328 C22.98675016 -0.37506459 26.27793667 -0.39095155 29.5703125 -0.41015625 C31.65104439 -0.40817388 33.73177551 -0.40433032 35.8125 -0.3984375 C36.80209717 -0.40451019 37.79169434 -0.41058289 38.8112793 -0.4168396 C40.18280151 -0.40265488 40.18280151 -0.40265488 41.58203125 -0.38818359 C42.38874268 -0.38579681 43.1954541 -0.38341003 44.02661133 -0.38095093 C44.67782959 -0.25523712 45.32904785 -0.12952332 46 0 C48.63804353 3.95706529 48.28741295 7.3809543 48.265625 11.97265625 C48.26849518 13.29093666 48.26849518 13.29093666 48.27142334 14.635849 C48.27278385 16.49266852 48.26909675 18.3494976 48.26074219 20.20629883 C48.25002796 23.05506635 48.26064851 25.90320508 48.2734375 28.75195312 C48.27211613 30.5546889 48.26955421 32.35742428 48.265625 34.16015625 C48.26967346 35.01537369 48.27372192 35.87059113 48.27789307 36.75172424 C48.22992618 42.77007382 48.22992618 42.77007382 46 45 C44.02661133 45.25396729 44.02661133 45.25396729 41.58203125 45.25878906 C40.21050903 45.26824554 40.21050903 45.26824554 38.8112793 45.27789307 C37.82168213 45.2738446 36.83208496 45.26979614 35.8125 45.265625 C34.79905518 45.26753845 33.78561035 45.2694519 32.74145508 45.27142334 C30.59618888 45.27278591 28.45091447 45.26908447 26.30566406 45.26074219 C23.01348428 45.25004382 19.72185022 45.26063519 16.4296875 45.2734375 C14.34895712 45.27211592 12.26822709 45.26955355 10.1875 45.265625 C9.19790283 45.26967346 8.20830566 45.27372192 7.1887207 45.27789307 C6.27437256 45.27158875 5.36002441 45.26528442 4.41796875 45.25878906 C3.61125732 45.25719788 2.8045459 45.25560669 1.97338867 45.25396729 C0 45 0 45 -2 43 C-2.20010854 40.02196961 -2.27972613 37.13895086 -2.265625 34.16015625 C-2.26753845 33.28225937 -2.2694519 32.40436249 -2.27142334 31.49986267 C-2.27278565 29.64126296 -2.26908599 27.78265375 -2.26074219 25.92407227 C-2.25005601 23.07741911 -2.26062925 20.2313989 -2.2734375 17.38476562 C-2.27211566 15.58072777 -2.26955277 13.77669031 -2.265625 11.97265625 C-2.26967346 11.11946304 -2.27372192 10.26626984 -2.27789307 9.38722229 C-2.22992618 3.34488928 -2.22992618 3.34488928 0 0 Z " fill="#2496ED" transform="translate(58,196)"/>
<path d="M0 0 C6.51441001 -0.07589036 13.0287066 -0.12853202 19.54345703 -0.16479492 C21.76094828 -0.17990753 23.97840953 -0.20039826 26.19580078 -0.22631836 C29.37800489 -0.26259293 32.55981482 -0.27970139 35.7421875 -0.29296875 C36.73805878 -0.30845261 37.73393005 -0.32393646 38.75997925 -0.33988953 C39.68078278 -0.34011612 40.6015863 -0.34034271 41.55029297 -0.34057617 C42.3630368 -0.34723801 43.17578064 -0.35389984 44.01315308 -0.36076355 C44.9966423 -0.18218559 44.9966423 -0.18218559 46 0 C48.04514127 3.06771191 48.24827274 3.65568048 48.22705078 7.10424805 C48.22689972 7.92487228 48.22674866 8.74549652 48.22659302 9.59098816 C48.21627045 10.47232925 48.20594788 11.35367035 48.1953125 12.26171875 C48.1924826 13.16751175 48.18965271 14.07330475 48.18673706 15.00654602 C48.17553964 17.90033158 48.15043589 20.79380794 48.125 23.6875 C48.11496963 25.64908407 48.10584388 27.610673 48.09765625 29.57226562 C48.07560173 34.3816296 48.04107489 39.19076237 48 44 C45.64537648 45.17731176 44.20759178 45.13891008 41.58203125 45.16113281 C40.66768311 45.17074036 39.75333496 45.1803479 38.8112793 45.19024658 C37.82168213 45.19449646 36.83208496 45.19874634 35.8125 45.203125 C34.29233276 45.21167511 34.29233276 45.21167511 32.74145508 45.22039795 C30.59620205 45.22985331 28.45093447 45.23638405 26.30566406 45.24023438 C23.01341692 45.24996036 19.72178856 45.28098722 16.4296875 45.3125 C14.34896205 45.3190278 12.26823213 45.32427914 10.1875 45.328125 C8.70310425 45.3466452 8.70310425 45.3466452 7.1887207 45.36553955 C6.27437256 45.36253845 5.36002441 45.35953735 4.41796875 45.35644531 C3.20790161 45.36191376 3.20790161 45.36191376 1.97338867 45.36749268 C1.32217041 45.24622009 0.67095215 45.12494751 0 45 C-2.56297058 41.15554413 -2.28808534 37.99104713 -2.265625 33.53515625 C-2.26753845 32.70543808 -2.2694519 31.87571991 -2.27142334 31.02085876 C-2.27278389 29.2665883 -2.26909653 27.51230774 -2.26074219 25.75805664 C-2.25005421 23.07610366 -2.26063474 20.39482257 -2.2734375 17.71289062 C-2.27211562 16.00781102 -2.26955263 14.30273184 -2.265625 12.59765625 C-2.26967346 11.79650894 -2.27372192 10.99536163 -2.27789307 10.16993713 C-2.24450261 6.1933528 -1.93653181 3.45759051 0 0 Z " fill="#2595EB" transform="translate(228,196)"/>
<path d="M0 0 C6.51445205 -0.0505939 13.02885368 -0.08568856 19.54345703 -0.10986328 C21.76092421 -0.11993825 23.97837805 -0.13359859 26.19580078 -0.15087891 C29.37796312 -0.17506163 32.55995024 -0.18646797 35.7421875 -0.1953125 C37.23599442 -0.21079636 37.23599442 -0.21079636 38.75997925 -0.22659302 C40.14118454 -0.22681961 40.14118454 -0.22681961 41.55029297 -0.22705078 C42.3630368 -0.231492 43.17578064 -0.23593323 44.01315308 -0.24050903 C46 0 46 0 48 2 C48.20014153 5.06178773 48.27971072 8.03119292 48.265625 11.09375 C48.26849518 12.4474469 48.26849518 12.4474469 48.27142334 13.82849121 C48.27278559 15.73836546 48.26908638 17.64824896 48.26074219 19.55810547 C48.25004321 22.4881665 48.26063611 25.41761438 48.2734375 28.34765625 C48.27211591 30.20052219 48.26955353 32.05338775 48.265625 33.90625 C48.26967346 34.78647827 48.27372192 35.66670654 48.27789307 36.5736084 C48.2299166 42.7700834 48.2299166 42.7700834 46 45 C44.02661133 45.26069641 44.02661133 45.26069641 41.58203125 45.2746582 C40.66768311 45.28419022 39.75333496 45.29372223 38.8112793 45.30354309 C37.32688354 45.30217598 37.32688354 45.30217598 35.8125 45.30078125 C34.79905518 45.30506638 33.78561035 45.3093515 32.74145508 45.31376648 C30.59619902 45.31951609 28.45092346 45.32000542 26.30566406 45.31567383 C23.01333577 45.3125128 19.72190465 45.33596929 16.4296875 45.36132812 C14.34895947 45.36360084 12.26822902 45.36430474 10.1875 45.36328125 C9.19790283 45.372491 8.20830566 45.38170074 7.1887207 45.39118958 C6.27437256 45.38496078 5.36002441 45.37873199 4.41796875 45.37231445 C3.20790161 45.37325859 3.20790161 45.37325859 1.97338867 45.3742218 C0.99656128 45.18898201 0.99656128 45.18898201 0 45 C-2.56297058 41.15554413 -2.28808534 37.99104713 -2.265625 33.53515625 C-2.26753845 32.70543808 -2.2694519 31.87571991 -2.27142334 31.02085876 C-2.27278389 29.2665883 -2.26909653 27.51230774 -2.26074219 25.75805664 C-2.25005421 23.07610366 -2.26063474 20.39482257 -2.2734375 17.71289062 C-2.27211562 16.00781102 -2.26955263 14.30273184 -2.265625 12.59765625 C-2.26967346 11.79650894 -2.27372192 10.99536163 -2.27789307 10.16993713 C-2.24450261 6.1933528 -1.93653181 3.45759051 0 0 Z " fill="#2495ED" transform="translate(228,144)"/>
<path d="M0 0 C6.51445205 -0.0505939 13.02885368 -0.08568856 19.54345703 -0.10986328 C21.76092421 -0.11993825 23.97837805 -0.13359859 26.19580078 -0.15087891 C29.37796312 -0.17506163 32.55995024 -0.18646797 35.7421875 -0.1953125 C37.23599442 -0.21079636 37.23599442 -0.21079636 38.75997925 -0.22659302 C40.14118454 -0.22681961 40.14118454 -0.22681961 41.55029297 -0.22705078 C42.3630368 -0.231492 43.17578064 -0.23593323 44.01315308 -0.24050903 C46 0 46 0 48 2 C48.21240485 5.06165064 48.30395299 8.03051818 48.30078125 11.09375 C48.30506638 11.9962146 48.3093515 12.8986792 48.31376648 13.82849121 C48.31951473 15.73835409 48.32000641 17.64823886 48.31567383 19.55810547 C48.31251259 22.48833333 48.33597099 25.41755324 48.36132812 28.34765625 C48.36360085 30.20051955 48.36430474 32.05338558 48.36328125 33.90625 C48.372491 34.78647827 48.38170074 35.66670654 48.39118958 36.5736084 C48.37231445 39.04101563 48.37231445 39.04101563 48 43 C44.87779965 45.0814669 44.1956216 45.24948668 40.65209961 45.24291992 C39.34075294 45.24753487 39.34075294 45.24753487 38.00291443 45.25224304 C37.0622261 45.24505753 36.12153778 45.23787201 35.15234375 45.23046875 C34.18470596 45.23001053 33.21706818 45.22955231 32.22010803 45.2290802 C30.17496514 45.22605931 28.12982452 45.21817788 26.0847168 45.20581055 C22.94636936 45.1875516 19.80831689 45.1853009 16.66992188 45.18554688 C14.68489327 45.18063173 12.69986667 45.17480342 10.71484375 45.16796875 C9.7721312 45.16685593 8.82941864 45.1657431 7.85813904 45.16459656 C6.98706009 45.15821671 6.11598114 45.15183685 5.21850586 45.14526367 C4.45034042 45.14145187 3.68217499 45.13764008 2.89073181 45.13371277 C1 45 1 45 -1 44 C-2.2578149 40.22655531 -2.16236879 36.68556287 -2.16796875 32.75390625 C-2.17129715 31.94638412 -2.17462555 31.138862 -2.17805481 30.30686951 C-2.18311513 28.59968637 -2.18546341 26.89249336 -2.18530273 25.18530273 C-2.18748882 22.57584315 -2.20565262 19.96680665 -2.22460938 17.35742188 C-2.22754357 15.69791811 -2.22952819 14.03841234 -2.23046875 12.37890625 C-2.23765427 11.59963272 -2.24483978 10.82035919 -2.25224304 10.01747131 C-2.23567958 6.08320121 -1.91101568 3.41972942 0 0 Z " fill="#2496ED" transform="translate(228,92)"/>
<path d="M0 0 C0.91442368 -0.00960754 1.82884735 -0.01921509 2.77098083 -0.02911377 C3.76573929 -0.03336365 4.76049774 -0.03761353 5.78540039 -0.04199219 C6.80026016 -0.04769226 7.81511993 -0.05339233 8.86073303 -0.05926514 C11.0119624 -0.06873049 13.16320637 -0.07525519 15.31445312 -0.07910156 C18.61557114 -0.08881573 21.91606908 -0.11982845 25.21704102 -0.15136719 C27.30232376 -0.15789593 29.38761097 -0.16314691 31.47290039 -0.16699219 C32.46563461 -0.17933899 33.45836884 -0.19168579 34.48118591 -0.20440674 C35.39876175 -0.20140564 36.31633759 -0.19840454 37.26171875 -0.1953125 C38.07144638 -0.19895813 38.88117401 -0.20260376 39.71543884 -0.20635986 C40.36887772 -0.08508728 41.02231659 0.0361853 41.69555664 0.16113281 C43.74069791 3.22884472 43.94382938 3.81681329 43.92260742 7.26538086 C43.92245636 8.0860051 43.9223053 8.90662933 43.92214966 9.75212097 C43.91182709 10.63346207 43.90150452 11.51480316 43.89086914 12.42285156 C43.88803925 13.32864456 43.88520935 14.23443756 43.8822937 15.16767883 C43.87109628 18.06146439 43.84599253 20.95494075 43.82055664 23.84863281 C43.81052627 25.81021689 43.80140052 27.77180581 43.79321289 29.73339844 C43.77115837 34.54276241 43.73663153 39.35189518 43.69555664 44.16113281 C41.32930669 45.34425779 39.90029094 45.28793483 37.26171875 45.29052734 C36.34414291 45.2936795 35.42656708 45.29683167 34.48118591 45.30007935 C33.48845169 45.29805511 32.49571747 45.29603088 31.47290039 45.29394531 C29.94917564 45.2953804 29.94917564 45.2953804 28.39466858 45.29684448 C26.24520811 45.29752571 24.09574559 45.29567543 21.94628906 45.29150391 C18.64326392 45.28614936 15.34037443 45.2914537 12.03735352 45.29785156 C9.95336884 45.29719088 7.86938425 45.29590992 5.78540039 45.29394531 C4.79064194 45.29596954 3.79588348 45.29799377 2.77098083 45.30007935 C1.85655716 45.29692719 0.94213348 45.29377502 0 45.29052734 C-0.80893204 45.28973175 -1.61786407 45.28893616 -2.4513092 45.28811646 C-4.30444336 45.16113281 -4.30444336 45.16113281 -5.30444336 44.16113281 C-5.40229677 42.81568954 -5.43242321 41.46520719 -5.43383789 40.11621094 C-5.43699005 39.25862183 -5.44014221 38.40103271 -5.44338989 37.51745605 C-5.44136566 36.58518188 -5.43934143 35.65290771 -5.43725586 34.69238281 C-5.43821259 33.7417395 -5.43916931 32.79109619 -5.44015503 31.81164551 C-5.44083693 29.79744399 -5.43898198 27.78324029 -5.43481445 25.76904297 C-5.42946634 22.67442927 -5.43475913 19.57996072 -5.44116211 16.48535156 C-5.44050133 14.53352832 -5.43922017 12.58170518 -5.43725586 10.62988281 C-5.43928009 9.69760864 -5.44130432 8.76533447 -5.44338989 7.80480957 C-5.44023773 6.94722046 -5.43708557 6.08963135 -5.43383789 5.20605469 C-5.4330423 4.44740112 -5.4322467 3.68874756 -5.431427 2.90710449 C-5.17585547 -0.60689652 -3.0103477 0.02540963 0 0 Z " fill="#2495ED" transform="translate(289.304443359375,195.8388671875)"/>
<path d="M0 0 C1.09776831 -0.00199105 2.19553662 -0.0039821 3.32657063 -0.00603348 C4.54250271 -0.00312064 5.75843479 -0.0002078 7.0112133 0.00279331 C8.93712974 0.00151167 8.93712974 0.00151167 10.90195358 0.00020415 C14.47754023 -0.0020404 18.05309713 0.00197993 21.62867999 0.00698221 C25.48007824 0.01128709 29.33147471 0.00984026 33.18287468 0.00907993 C39.85959714 0.00855472 46.53630985 0.01170123 53.21302986 0.01731777 C62.86653264 0.02543315 72.5200307 0.02804803 82.17353652 0.02930576 C97.8344278 0.03149622 113.49531387 0.03815614 129.15620232 0.04760838 C144.37234788 0.05678265 159.58849204 0.06386341 174.80463982 0.06811619 C175.74203098 0.06837891 176.67942215 0.06864164 177.6452191 0.06891232 C182.3476762 0.07021733 187.0501333 0.07148104 191.75259042 0.07272422 C230.78508058 0.08309665 269.81756493 0.1007148 308.85004997 0.12304783 C308.19004997 1.11304783 307.53004997 2.10304783 306.85004997 3.12304783 C304.59402913 3.49630201 304.59402913 3.49630201 301.71406651 3.49384212 C300.07203929 3.50340169 300.07203929 3.50340169 298.3968398 3.51315439 C297.18431831 3.50489621 295.97179683 3.49663804 294.72253227 3.48812962 C293.44211581 3.49124861 292.16169935 3.49436761 290.84248239 3.49758112 C287.27646705 3.50594843 283.71070717 3.49564538 280.14471519 3.48249245 C276.30343974 3.47161685 272.46219133 3.47804981 268.62090874 3.48262119 C261.96054445 3.48837682 255.30025282 3.48372093 248.63989639 3.47260761 C239.00460416 3.45698133 229.36941025 3.46250293 219.73411659 3.47422405 C204.09559563 3.49313492 188.45708802 3.50233576 172.81855583 3.50195408 C171.88194535 3.50193664 170.94533487 3.50191919 169.98034225 3.50190122 C159.53198153 3.50144906 149.0836256 3.49812278 138.63526726 3.49102879 C137.69624557 3.4903964 136.75722388 3.48976402 135.78974699 3.48911247 C134.85170526 3.48847991 133.91366354 3.48784734 132.9471963 3.48719561 C131.05568334 3.48592586 129.16417037 3.48466045 127.27265739 3.48339939 C126.33809325 3.4827712 125.4035291 3.48214301 124.44064482 3.48149578 C108.8655643 3.47154698 93.29056338 3.4808556 77.7154997 3.50558341 C68.10322023 3.52003459 58.49122036 3.51791232 48.87895689 3.49462141 C42.29298635 3.47989269 35.70717994 3.48300523 29.12121602 3.50025032 C25.31899414 3.5096049 21.51722738 3.51068526 17.71504021 3.4900198 C13.59585331 3.46780576 9.47771633 3.48400058 5.3585186 3.50399876 C3.54977462 3.48491933 3.54977462 3.48491933 1.70449036 3.46545446 C-4.77673625 3.45458512 -4.77673625 3.45458512 -10.31844807 6.5054884 C-10.92284371 7.36928301 -11.52723936 8.23307762 -12.14995003 9.12304783 C-12.74807503 9.94804783 -13.34620003 10.77304783 -13.96245003 11.62304783 C-16.51817506 19.15571108 -15.29182061 27.37724899 -14.37260628 35.15820408 C-13.84956249 42.12294508 -14.08152099 49.14328564 -14.14995003 56.12304783 C-13.48995003 56.12304783 -12.82995003 56.12304783 -12.14995003 56.12304783 C-11.81995003 61.40304783 -11.48995003 66.68304783 -11.14995003 72.12304783 C-18.54067556 57.34159676 -21.62589448 26.8199242 -17.49370003 10.53711033 C-15.3355178 5.38352001 -12.11835093 3.42323343 -7.14995003 1.12304783 C-4.60787217 -0.1479911 -2.84701742 -0.00113427 0 0 Z " fill="#7AC4EE" transform="translate(35.14995002746582,247.87695217132568)"/>
<path d="M0 0 C1.97338867 -0.38095093 1.97338867 -0.38095093 4.41796875 -0.38818359 C5.33231689 -0.39764008 6.24666504 -0.40709656 7.1887207 -0.4168396 C8.17831787 -0.41076691 9.16791504 -0.40469421 10.1875 -0.3984375 C11.20094482 -0.40130768 12.21438965 -0.40417786 13.25854492 -0.40713501 C15.40381427 -0.40917887 17.54910211 -0.40362661 19.69433594 -0.39111328 C22.98675016 -0.37506459 26.27793667 -0.39095155 29.5703125 -0.41015625 C31.65104439 -0.40817388 33.73177551 -0.40433032 35.8125 -0.3984375 C36.80209717 -0.40451019 37.79169434 -0.41058289 38.8112793 -0.4168396 C40.18280151 -0.40265488 40.18280151 -0.40265488 41.58203125 -0.38818359 C42.38874268 -0.38579681 43.1954541 -0.38341003 44.02661133 -0.38095093 C44.67782959 -0.25523712 45.32904785 -0.12952332 46 0 C48.63804353 3.95706529 48.28741295 7.3809543 48.265625 11.97265625 C48.26849518 13.29093666 48.26849518 13.29093666 48.27142334 14.635849 C48.27278385 16.49266852 48.26909675 18.3494976 48.26074219 20.20629883 C48.25002796 23.05506635 48.26064851 25.90320508 48.2734375 28.75195312 C48.27211613 30.5546889 48.26955421 32.35742428 48.265625 34.16015625 C48.26967346 35.01537369 48.27372192 35.87059113 48.27789307 36.75172424 C48.22992618 42.77007382 48.22992618 42.77007382 46 45 C44.02661133 45.25396729 44.02661133 45.25396729 41.58203125 45.25878906 C40.21050903 45.26824554 40.21050903 45.26824554 38.8112793 45.27789307 C37.82168213 45.2738446 36.83208496 45.26979614 35.8125 45.265625 C34.79905518 45.26753845 33.78561035 45.2694519 32.74145508 45.27142334 C30.59618888 45.27278591 28.45091447 45.26908447 26.30566406 45.26074219 C23.01348428 45.25004382 19.72185022 45.26063519 16.4296875 45.2734375 C14.34895712 45.27211592 12.26822709 45.26955355 10.1875 45.265625 C9.19790283 45.26967346 8.20830566 45.27372192 7.1887207 45.27789307 C6.27437256 45.27158875 5.36002441 45.26528442 4.41796875 45.25878906 C3.61125732 45.25719788 2.8045459 45.25560669 1.97338867 45.25396729 C0 45 0 45 -2 43 C-2.20010854 40.02196961 -2.27972613 37.13895086 -2.265625 34.16015625 C-2.26753845 33.28225937 -2.2694519 32.40436249 -2.27142334 31.49986267 C-2.27278565 29.64126296 -2.26908599 27.78265375 -2.26074219 25.92407227 C-2.25005601 23.07741911 -2.26062925 20.2313989 -2.2734375 17.38476562 C-2.27211566 15.58072777 -2.26955277 13.77669031 -2.265625 11.97265625 C-2.26967346 11.11946304 -2.27372192 10.26626984 -2.27789307 9.38722229 C-2.22992618 3.34488928 -2.22992618 3.34488928 0 0 Z M1 3 C1 16.2 1 29.4 1 43 C15.52 43 30.04 43 45 43 C45.185625 36.585625 45.37125 30.17125 45.5625 23.5625 C45.62381104 21.53552979 45.68512207 19.50855957 45.74829102 17.42016602 C45.79223564 15.82309055 45.83580048 14.22600457 45.87890625 12.62890625 C45.90561401 11.79194214 45.93232178 10.95497803 45.95983887 10.09265137 C46.01221448 8.06239893 46.01194722 6.03089277 46 4 C45.02366535 2.80428614 45.02366535 2.80428614 43.20933533 2.87974548 C42.42990067 2.88196609 41.650466 2.88418671 40.84741211 2.88647461 C39.96657455 2.88655014 39.085737 2.88662567 38.1782074 2.88670349 C36.74227989 2.89444542 36.74227989 2.89444542 35.27734375 2.90234375 C33.81452721 2.90446617 33.81452721 2.90446617 32.32215881 2.90663147 C29.19390857 2.91224867 26.06572877 2.92480407 22.9375 2.9375 C20.82226666 2.94251278 18.70703219 2.94707607 16.59179688 2.95117188 C11.39448199 2.96137469 6.19732025 2.98094669 1 3 Z " fill="#66AFE3" transform="translate(58,196)"/>
<path d="M0 0 C1.34137779 -0.00934319 1.34137779 -0.00934319 2.70985413 -0.01887512 C3.67241623 -0.00966537 4.63497833 -0.00045563 5.62670898 0.0090332 C6.61654282 0.0085347 7.60637665 0.00803619 8.62620544 0.00752258 C10.71843473 0.00986317 12.81066683 0.01959078 14.90283203 0.03613281 C18.11378001 0.05974809 21.32389925 0.05669078 24.53491211 0.05004883 C26.56551604 0.05562469 28.59611646 0.06273399 30.62670898 0.0715332 C31.59129532 0.0706218 32.55588165 0.06971039 33.54969788 0.06877136 C34.44079758 0.07830338 35.33189728 0.08783539 36.25 0.09765625 C37.03593033 0.10226364 37.82186066 0.10687103 38.63160706 0.11161804 C40.56030273 0.37231445 40.56030273 0.37231445 42.56030273 2.37231445 C42.73533269 4.95334752 42.79192552 7.42539608 42.75561523 10.00512695 C42.75278534 10.75696259 42.74995544 11.50879822 42.74703979 12.28341675 C42.73583147 14.68821023 42.71072625 17.09263326 42.68530273 19.49731445 C42.67527375 21.12621533 42.66614776 22.75512204 42.65795898 24.3840332 C42.63589008 28.38027001 42.60135624 32.37622939 42.56030273 36.37231445 C42.23030273 36.37231445 41.90030273 36.37231445 41.56030273 36.37231445 C41.53524658 35.50952881 41.51019043 34.64674316 41.484375 33.7578125 C41.38918889 30.55407677 41.2899583 27.35049909 41.18798828 24.14697266 C41.14470055 22.76095463 41.1030211 21.37488539 41.06298828 19.98876953 C41.0051369 17.99539647 40.94100497 16.0022088 40.87670898 14.0090332 C40.82172241 12.21018677 40.82172241 12.21018677 40.765625 10.375 C40.68297249 7.32237097 40.68297249 7.32237097 39.56030273 4.37231445 C17.78030273 3.87731445 17.78030273 3.87731445 -4.43969727 3.37231445 C-4.43969727 16.57231445 -4.43969727 29.77231445 -4.43969727 43.37231445 C10.74030273 43.37231445 25.92030273 43.37231445 41.56030273 43.37231445 C41.06530273 44.36231445 41.06530273 44.36231445 40.56030273 45.37231445 C34.04585069 45.42290835 27.53144906 45.45800302 21.0168457 45.48217773 C18.79937853 45.4922527 16.58192469 45.50591305 14.36450195 45.52319336 C11.18233962 45.54737609 8.00035249 45.55878242 4.81811523 45.56762695 C3.32430832 45.58311081 3.32430832 45.58311081 1.80032349 45.59890747 C0.41911819 45.59913406 0.41911819 45.59913406 -0.98999023 45.59936523 C-1.80273407 45.60380646 -2.61547791 45.60824768 -3.45285034 45.61282349 C-5.43969727 45.37231445 -5.43969727 45.37231445 -7.43969727 43.37231445 C-7.65206618 40.3944303 -7.74365376 37.51195398 -7.74047852 34.5324707 C-7.74476364 33.65457382 -7.74904877 32.77667694 -7.75346375 31.87217712 C-7.75921226 30.0135891 -7.75970348 28.15497858 -7.75537109 26.29638672 C-7.75221362 23.44956113 -7.77565464 20.60377688 -7.80102539 17.75708008 C-7.80329855 15.95304493 -7.8040018 14.14900699 -7.80297852 12.3449707 C-7.81218826 11.4917775 -7.82139801 10.63858429 -7.83088684 9.75953674 C-7.78453578 3.84994562 -7.78453578 3.84994562 -6.19390869 1.64678955 C-3.97575224 0.03524768 -2.72691053 -0.00218168 0 0 Z " fill="#5AA5DB" transform="translate(119.439697265625,195.627685546875)"/>
<path d="M0 0 C1.97338867 -0.36749268 1.97338867 -0.36749268 4.41796875 -0.35644531 C5.33231689 -0.35944641 6.24666504 -0.36244751 7.1887207 -0.36553955 C8.17831787 -0.35319275 9.16791504 -0.34084595 10.1875 -0.328125 C11.70766724 -0.32531525 11.70766724 -0.32531525 13.25854492 -0.32244873 C15.40384199 -0.31571835 17.54912659 -0.30178446 19.69433594 -0.28125 C22.98644351 -0.25012816 26.2780725 -0.2402839 29.5703125 -0.234375 C31.65104753 -0.225204 33.73177767 -0.21482793 35.8125 -0.203125 C36.80209717 -0.19887512 37.79169434 -0.19462524 38.8112793 -0.19024658 C39.72562744 -0.18063904 40.63997559 -0.17103149 41.58203125 -0.16113281 C42.79209839 -0.15089081 42.79209839 -0.15089081 44.02661133 -0.14044189 C46 0 46 0 48 1 C47.67 2.32 47.34 3.64 47 5 C46.505 4.01 46.505 4.01 46 3 C31.15 2.67 16.3 2.34 1 2 C1.33 14.87 1.66 27.74 2 41 C4.26038854 42.13019427 5.57118826 42.15268957 8.08251953 42.20532227 C8.92324005 42.22526749 9.76396057 42.24521271 10.63015747 42.26576233 C11.99272171 42.29083107 11.99272171 42.29083107 13.3828125 42.31640625 C14.31221649 42.33718735 15.24162048 42.35796844 16.19918823 42.37937927 C19.1743821 42.44487646 22.14966577 42.50376052 25.125 42.5625 C27.13933228 42.60568506 29.15365541 42.64929934 31.16796875 42.69335938 C36.11188838 42.80136751 41.05587407 42.90043962 46 43 C46.33 32.77 46.66 22.54 47 12 C47.33 12 47.66 12 48 12 C48 22.56 48 33.12 48 44 C45.66741154 45.16629423 44.28784751 45.13266252 41.68969727 45.14526367 C40.79859756 45.15164352 39.90749786 45.15802338 38.98939514 45.16459656 C38.02480881 45.16570938 37.06022247 45.1668222 36.06640625 45.16796875 C34.58309059 45.17296135 34.58309059 45.17296135 33.06980896 45.17805481 C30.97582465 45.18312339 28.88183224 45.18546316 26.7878418 45.18530273 C23.57912936 45.18748867 20.37076091 45.20564368 17.16210938 45.22460938 C15.13020951 45.22754337 13.09830801 45.22952813 11.06640625 45.23046875 C10.10384415 45.23765427 9.14128204 45.24483978 8.14955139 45.25224304 C7.25529953 45.24916641 6.36104767 45.24608978 5.43969727 45.24291992 C4.65297134 45.24434494 3.86624542 45.24576996 3.05567932 45.24723816 C1 45 1 45 -2 43 C-2.29155391 39.98408991 -2.39576778 37.1768564 -2.36328125 34.16015625 C-2.36377975 33.28225937 -2.36427826 32.40436249 -2.36479187 31.49986267 C-2.36244908 29.64124288 -2.35270848 27.78262005 -2.33618164 25.92407227 C-2.31262288 23.07734813 -2.31561481 20.23156222 -2.32226562 17.38476562 C-2.31668786 15.58072358 -2.30957736 13.77668548 -2.30078125 11.97265625 C-2.30169266 11.11946304 -2.30260406 10.26626984 -2.30354309 9.38722229 C-2.2310381 3.34655715 -2.2310381 3.34655715 0 0 Z " fill="#66ADDD" transform="translate(114,144)"/>
<path d="M0 0 C0.79497894 0.00444122 1.58995789 0.00888245 2.4090271 0.01345825 C3.76020126 0.01368484 3.76020126 0.01368484 5.13867188 0.01391602 C6.11266937 0.02423859 7.08666687 0.03456116 8.09017944 0.04519653 C9.08617157 0.04802643 10.0821637 0.05085632 11.1083374 0.05377197 C14.29771813 0.06499063 17.48682072 0.09009822 20.67611694 0.11550903 C22.83496706 0.12553666 24.99382157 0.13466288 27.15267944 0.14285278 C32.45225393 0.16493543 37.75166557 0.19842945 43.05111694 0.24050903 C43.05111694 0.57050903 43.05111694 0.90050903 43.05111694 1.24050903 C41.83005249 1.26556519 40.60898804 1.29062134 39.35092163 1.31643677 C34.81842649 1.41064483 30.28607981 1.51083288 25.75375366 1.61282349 C23.79252598 1.65612163 21.83126185 1.69780035 19.8699646 1.73782349 C17.05002866 1.79565002 14.23027533 1.85930887 11.41049194 1.92410278 C10.09622223 1.94917152 10.09622223 1.94917152 8.75540161 1.9747467 C7.93485291 1.99469193 7.1143042 2.01463715 6.26889038 2.03518677 C5.18967316 2.05850319 5.18967316 2.05850319 4.08865356 2.08229065 C1.69643705 2.2110995 1.69643705 2.2110995 -1.94888306 3.24050903 C-2.27888306 15.78050903 -2.60888306 28.32050903 -2.94888306 41.24050903 C-2.28888306 41.24050903 -1.62888306 41.24050903 -0.94888306 41.24050903 C-0.94888306 41.90050903 -0.94888306 42.56050903 -0.94888306 43.24050903 C13.57111694 43.24050903 28.09111694 43.24050903 43.05111694 43.24050903 C43.05111694 30.04050903 43.05111694 16.84050903 43.05111694 3.24050903 C44.04111694 3.24050903 45.03111694 3.24050903 46.05111694 3.24050903 C46.1004662 8.90048949 46.13681223 14.56034539 46.16098022 20.2204895 C46.17105276 22.14694398 46.18471138 24.07338311 46.20199585 25.99978638 C46.22618935 28.76496155 46.2375873 31.52993503 46.24642944 34.29519653 C46.25675201 35.15982513 46.26707458 36.02445374 46.27770996 36.9152832 C46.278108 39.02504424 46.17376937 41.13431622 46.05111694 43.24050903 C44.05111694 45.24050903 44.05111694 45.24050903 42.07772827 45.48774719 C41.27101685 45.48632217 40.46430542 45.48489716 39.63314819 45.48342896 C38.71880005 45.48650558 37.8044519 45.48958221 36.86239624 45.49275208 C35.37800049 45.4819738 35.37800049 45.4819738 33.86361694 45.47097778 C32.34344971 45.47029045 32.34344971 45.47029045 30.79257202 45.46958923 C28.64729646 45.46656472 26.50202313 45.45867253 24.35678101 45.44631958 C21.06471007 45.42808433 17.77292057 45.42580971 14.48080444 45.42605591 C12.40007283 45.42114002 10.31934314 45.41531139 8.23861694 45.40847778 C7.24901978 45.40736496 6.25942261 45.40625214 5.23983765 45.40510559 C4.3254895 45.39872574 3.41114136 45.39234589 2.46908569 45.38577271 C1.66237427 45.38196091 0.85566284 45.37814911 0.02450562 45.3742218 C-1.94888306 45.24050903 -1.94888306 45.24050903 -3.94888306 44.24050903 C-3.99822704 38.29569722 -4.03457587 32.35100395 -4.05874634 26.40603638 C-4.06881976 24.38257776 -4.08247901 22.35913376 -4.09976196 20.33572388 C-4.12395153 17.43155314 -4.13535254 14.52757443 -4.14419556 11.62332153 C-4.15451813 10.71494537 -4.1648407 9.80656921 -4.17547607 8.8706665 C-4.17562714 8.02994598 -4.1757782 7.18922546 -4.17593384 6.32302856 C-4.18037506 5.5813443 -4.18481628 4.83966003 -4.18939209 4.07550049 C-3.82819633 1.31971574 -2.73181784 0.33712996 0 0 Z " fill="#5BA8DC" transform="translate(173.94888305664063,195.75949096679688)"/>
<path d="M0 0 C6.51445205 -0.0505939 13.02885368 -0.08568856 19.54345703 -0.10986328 C21.76092421 -0.11993825 23.97837805 -0.13359859 26.19580078 -0.15087891 C29.37796312 -0.17506163 32.55995024 -0.18646797 35.7421875 -0.1953125 C37.23599442 -0.21079636 37.23599442 -0.21079636 38.75997925 -0.22659302 C40.14118454 -0.22681961 40.14118454 -0.22681961 41.55029297 -0.22705078 C42.3630368 -0.231492 43.17578064 -0.23593323 44.01315308 -0.24050903 C46 0 46 0 48 2 C48.17546482 5.01308951 48.23127445 7.93310454 48.1953125 10.9453125 C48.1924826 11.8303244 48.18965271 12.7153363 48.18673706 13.62716675 C48.1755224 16.45991412 48.1504157 19.29234784 48.125 22.125 C48.11497185 24.04296419 48.10584572 25.96093333 48.09765625 27.87890625 C48.07557889 32.58605876 48.04104045 37.29297616 48 42 C47.67 42 47.34 42 47 42 C47 29.46 47 16.92 47 4 C46.01 3.67 45.02 3.34 44 3 C44 2.34 44 1.68 44 1 C30.47 1 16.94 1 3 1 C1.92654593 5.29381626 1.77403868 9.31134903 1.68359375 13.703125 C1.66494263 14.4461084 1.6462915 15.1890918 1.6270752 15.95458984 C1.55897889 18.71961013 1.49870189 21.48481852 1.4375 24.25 C1.293125 30.4375 1.14875 36.625 1 43 C23.275 42.505 23.275 42.505 46 42 C45.67 42.99 45.34 43.98 45 45 C38.77035385 45.02529951 32.54072088 45.04284549 26.31103516 45.05493164 C24.19058741 45.05996872 22.07014315 45.06679859 19.94970703 45.07543945 C16.90656678 45.08753234 13.86347234 45.09323447 10.8203125 45.09765625 C9.86818878 45.10281754 8.91606506 45.10797882 7.93508911 45.11329651 C7.05432709 45.11337204 6.17356506 45.11344757 5.26611328 45.11352539 C4.48889923 45.115746 3.71168518 45.11796661 2.91091919 45.12025452 C1 45 1 45 -1 44 C-2.2578149 40.22655531 -2.16236879 36.68556287 -2.16796875 32.75390625 C-2.17129715 31.94638412 -2.17462555 31.138862 -2.17805481 30.30686951 C-2.18311513 28.59968637 -2.18546341 26.89249336 -2.18530273 25.18530273 C-2.18748882 22.57584315 -2.20565262 19.96680665 -2.22460938 17.35742188 C-2.22754357 15.69791811 -2.22952819 14.03841234 -2.23046875 12.37890625 C-2.23765427 11.59963272 -2.24483978 10.82035919 -2.25224304 10.01747131 C-2.23567958 6.08320121 -1.91101568 3.41972942 0 0 Z " fill="#4797D5" transform="translate(228,92)"/>
<path d="M0 0 C0.91442368 -0.00960754 1.82884735 -0.01921509 2.77098083 -0.02911377 C3.76573929 -0.03336365 4.76049774 -0.03761353 5.78540039 -0.04199219 C6.80026016 -0.04769226 7.81511993 -0.05339233 8.86073303 -0.05926514 C11.0119624 -0.06873049 13.16320637 -0.07525519 15.31445312 -0.07910156 C18.61557114 -0.08881573 21.91606908 -0.11982845 25.21704102 -0.15136719 C27.30232376 -0.15789593 29.38761097 -0.16314691 31.47290039 -0.16699219 C32.46563461 -0.17933899 33.45836884 -0.19168579 34.48118591 -0.20440674 C35.39876175 -0.20140564 36.31633759 -0.19840454 37.26171875 -0.1953125 C38.07144638 -0.19895813 38.88117401 -0.20260376 39.71543884 -0.20635986 C40.36887772 -0.08508728 41.02231659 0.0361853 41.69555664 0.16113281 C43.74069791 3.22884472 43.94382938 3.81681329 43.92260742 7.26538086 C43.92245636 8.0860051 43.9223053 8.90662933 43.92214966 9.75212097 C43.91182709 10.63346207 43.90150452 11.51480316 43.89086914 12.42285156 C43.88803925 13.32864456 43.88520935 14.23443756 43.8822937 15.16767883 C43.87109628 18.06146439 43.84599253 20.95494075 43.82055664 23.84863281 C43.81052627 25.81021689 43.80140052 27.77180581 43.79321289 29.73339844 C43.77115837 34.54276241 43.73663153 39.35189518 43.69555664 44.16113281 C43.36555664 44.16113281 43.03555664 44.16113281 42.69555664 44.16113281 C41.55364559 30.47859153 41.62094648 16.88940162 41.69555664 3.16113281 C26.84555664 3.49113281 11.99555664 3.82113281 -3.30444336 4.16113281 C-3.30444336 17.03113281 -3.30444336 29.90113281 -3.30444336 43.16113281 C11.54555664 43.49113281 26.39555664 43.82113281 41.69555664 44.16113281 C41.69555664 44.49113281 41.69555664 44.82113281 41.69555664 45.16113281 C35.16276878 45.18640283 28.62999343 45.20396573 22.09716797 45.21606445 C19.87287932 45.22110598 17.64859401 45.22793904 15.42431641 45.23657227 C12.23477355 45.2486458 9.04527435 45.25436277 5.85571289 45.25878906 C4.35416405 45.26653099 4.35416405 45.26653099 2.82228088 45.27442932 C1.90140182 45.27450485 0.98052277 45.27458038 0.03173828 45.2746582 C-0.78322617 45.27687881 -1.59819061 45.27909943 -2.43785095 45.28138733 C-4.30444336 45.16113281 -4.30444336 45.16113281 -5.30444336 44.16113281 C-5.40229677 42.81568954 -5.43242321 41.46520719 -5.43383789 40.11621094 C-5.43699005 39.25862183 -5.44014221 38.40103271 -5.44338989 37.51745605 C-5.44136566 36.58518188 -5.43934143 35.65290771 -5.43725586 34.69238281 C-5.43821259 33.7417395 -5.43916931 32.79109619 -5.44015503 31.81164551 C-5.44083693 29.79744399 -5.43898198 27.78324029 -5.43481445 25.76904297 C-5.42946634 22.67442927 -5.43475913 19.57996072 -5.44116211 16.48535156 C-5.44050133 14.53352832 -5.43922017 12.58170518 -5.43725586 10.62988281 C-5.43928009 9.69760864 -5.44130432 8.76533447 -5.44338989 7.80480957 C-5.44023773 6.94722046 -5.43708557 6.08963135 -5.43383789 5.20605469 C-5.4330423 4.44740112 -5.4322467 3.68874756 -5.431427 2.90710449 C-5.17585547 -0.60689652 -3.0103477 0.02540963 0 0 Z " fill="#5EA4D7" transform="translate(289.304443359375,195.8388671875)"/>
<path d="M0 0 C15.18 0 30.36 0 46 0 C46 0.33 46 0.66 46 1 C31.15 1.33 16.3 1.66 1 2 C0.67 15.53 0.34 29.06 0 43 C14.85 43 29.7 43 45 43 C45.87990529 38.60047355 46.21279181 34.52508168 46.31640625 30.07421875 C46.33718735 29.32662796 46.35796844 28.57903717 46.37937927 27.80879211 C46.44444189 25.43511604 46.5035571 23.06133513 46.5625 20.6875 C46.60572646 19.07225505 46.64934204 17.45702047 46.69335938 15.84179688 C46.80007851 11.89463701 46.90146619 7.94737233 47 4 C47.33 4 47.66 4 48 4 C48 17.2 48 30.4 48 44 C45.64537648 45.17731176 44.20759178 45.13891008 41.58203125 45.16113281 C40.66768311 45.17074036 39.75333496 45.1803479 38.8112793 45.19024658 C37.82168213 45.19449646 36.83208496 45.19874634 35.8125 45.203125 C34.29233276 45.21167511 34.29233276 45.21167511 32.74145508 45.22039795 C30.59620205 45.22985331 28.45093447 45.23638405 26.30566406 45.24023438 C23.01341692 45.24996036 19.72178856 45.28098722 16.4296875 45.3125 C14.34896205 45.3190278 12.26823213 45.32427914 10.1875 45.328125 C8.70310425 45.3466452 8.70310425 45.3466452 7.1887207 45.36553955 C6.27437256 45.36253845 5.36002441 45.35953735 4.41796875 45.35644531 C3.20790161 45.36191376 3.20790161 45.36191376 1.97338867 45.36749268 C1.32217041 45.24622009 0.67095215 45.12494751 0 45 C-2.56297058 41.15554413 -2.28808534 37.99104713 -2.265625 33.53515625 C-2.26753845 32.70543808 -2.2694519 31.87571991 -2.27142334 31.02085876 C-2.27278389 29.2665883 -2.26909653 27.51230774 -2.26074219 25.75805664 C-2.25005421 23.07610366 -2.26063474 20.39482257 -2.2734375 17.71289062 C-2.27211562 16.00781102 -2.26955263 14.30273184 -2.265625 12.59765625 C-2.26967346 11.79650894 -2.27372192 10.99536163 -2.27789307 10.16993713 C-2.24279029 5.98942631 -1.91506703 3.83013407 0 0 Z " fill="#66ABE0" transform="translate(228,196)"/>
<path d="M0 0 C15.18 0 30.36 0 46 0 C46.66 1.32 47.32 2.64 48 4 C47.01 3.67 46.02 3.34 45 3 C43.5735686 2.88677175 42.1427751 2.82404524 40.7121582 2.79467773 C39.85149246 2.77473251 38.99082672 2.75478729 38.1040802 2.73423767 C36.71644722 2.70916893 36.71644722 2.70916893 35.30078125 2.68359375 C34.35059616 2.66281265 33.40041107 2.64203156 32.4214325 2.62062073 C29.38519544 2.55521948 26.34887169 2.49628396 23.3125 2.4375 C21.25454831 2.39430583 19.19660541 2.35069124 17.13867188 2.30664062 C12.09253684 2.19954769 7.04631457 2.09825354 2 2 C0.33623003 5.32753994 0.75614098 9.06372557 0.68359375 12.7265625 C0.66494263 13.49121826 0.6462915 14.25587402 0.6270752 15.04370117 C0.55870285 17.90401497 0.49860181 20.76452165 0.4375 23.625 C0.293125 30.01875 0.14875 36.4125 0 43 C21.78 43.495 21.78 43.495 44 44 C44 43.34 44 42.68 44 42 C45.98 41.505 45.98 41.505 48 41 C47.34 42.32 46.68 43.64 46 45 C39.48558999 45.07589036 32.9712934 45.12853202 26.45654297 45.16479492 C24.23905172 45.17990753 22.02159047 45.20039826 19.80419922 45.22631836 C16.62199511 45.26259293 13.44018518 45.27970139 10.2578125 45.29296875 C8.76400558 45.31619453 8.76400558 45.31619453 7.24002075 45.33988953 C5.85881546 45.34022942 5.85881546 45.34022942 4.44970703 45.34057617 C3.23059128 45.35056892 3.23059128 45.35056892 1.98684692 45.36076355 C1.33118744 45.24171158 0.67552795 45.12265961 0 45 C-2.56297058 41.15554413 -2.28808534 37.99104713 -2.265625 33.53515625 C-2.26753845 32.70543808 -2.2694519 31.87571991 -2.27142334 31.02085876 C-2.27278389 29.2665883 -2.26909653 27.51230774 -2.26074219 25.75805664 C-2.25005421 23.07610366 -2.26063474 20.39482257 -2.2734375 17.71289062 C-2.27211562 16.00781102 -2.26955263 14.30273184 -2.265625 12.59765625 C-2.26967346 11.79650894 -2.27372192 10.99536163 -2.27789307 10.16993713 C-2.24279029 5.98942631 -1.91506703 3.83013407 0 0 Z " fill="#5DA5DF" transform="translate(228,144)"/>
<path d="M0 0 C1.97338867 -0.38095093 1.97338867 -0.38095093 4.41796875 -0.38818359 C5.33231689 -0.39764008 6.24666504 -0.40709656 7.1887207 -0.4168396 C8.17831787 -0.41076691 9.16791504 -0.40469421 10.1875 -0.3984375 C11.20094482 -0.40130768 12.21438965 -0.40417786 13.25854492 -0.40713501 C15.40381427 -0.40917887 17.54910211 -0.40362661 19.69433594 -0.39111328 C22.98675016 -0.37506459 26.27793667 -0.39095155 29.5703125 -0.41015625 C31.65104439 -0.40817388 33.73177551 -0.40433032 35.8125 -0.3984375 C36.80209717 -0.40451019 37.79169434 -0.41058289 38.8112793 -0.4168396 C40.18280151 -0.40265488 40.18280151 -0.40265488 41.58203125 -0.38818359 C42.38874268 -0.38579681 43.1954541 -0.38341003 44.02661133 -0.38095093 C44.67782959 -0.25523712 45.32904785 -0.12952332 46 0 C48.029668 3.044502 48.24856301 3.60276328 48.22705078 7.01245117 C48.22689972 7.81305466 48.22674866 8.61365814 48.22659302 9.43852234 C48.21627045 10.29798965 48.20594788 11.15745697 48.1953125 12.04296875 C48.1924826 12.9265657 48.18965271 13.81016266 48.18673706 14.72053528 C48.17554097 17.54299454 48.15043751 20.36513662 48.125 23.1875 C48.11496946 25.10090688 48.10584374 27.01431873 48.09765625 28.92773438 C48.07560351 33.61861182 48.04107762 38.30925213 48 43 C46.02 43.495 46.02 43.495 44 44 C44.33 43.01 44.66 42.02 45 41 C45.08529446 38.12328396 45.11593243 35.27079922 45.09765625 32.39453125 C45.09664917 31.65054077 45.09564209 30.90655029 45.09460449 30.14001465 C45.08937743 27.36416073 45.07541615 24.58832879 45.0625 21.8125 C45.041875 15.604375 45.02125 9.39625 45 3 C29.49 3 13.98 3 -2 3 C-1.34 2.01 -0.68 1.02 0 0 Z " fill="#85C3E6" transform="translate(172,144)"/>
<path d="M0 0 C0.66 0 1.32 0 2 0 C2.33 12.87 2.66 25.74 3 39 C18.18 39.33 33.36 39.66 49 40 C48.505 40.99 48.505 40.99 48 42 C41.48554795 42.0505939 34.97114632 42.08568856 28.45654297 42.10986328 C26.23907579 42.11993825 24.02162195 42.13359859 21.80419922 42.15087891 C18.62203688 42.17506163 15.44004976 42.18646797 12.2578125 42.1953125 C10.76400558 42.21079636 10.76400558 42.21079636 9.24002075 42.22659302 C7.85881546 42.22681961 7.85881546 42.22681961 6.44970703 42.22705078 C5.6369632 42.231492 4.82421936 42.23593323 3.98684692 42.24050903 C2 42 2 42 0 40 C-0.17546482 36.98691049 -0.23127445 34.06689546 -0.1953125 31.0546875 C-0.1924826 30.1696756 -0.18965271 29.2846637 -0.18673706 28.37283325 C-0.1755224 25.54008588 -0.1504157 22.70765216 -0.125 19.875 C-0.11497185 17.95703581 -0.10584572 16.03906667 -0.09765625 14.12109375 C-0.07557889 9.41394124 -0.04104045 4.70702384 0 0 Z " fill="#66AEDD" transform="translate(112,199)"/>
<path d="M0 0 C0 0.66 0 1.32 0 2 C-1.0725 2.37125 -2.145 2.7425 -3.25 3.125 C-7.26562065 4.83204521 -8.91460916 7.15004767 -11 11 C-13.14147353 17.42442059 -12.31296389 25.02119612 -11.5 31.6875 C-10.58788741 39.4083404 -10.92391273 47.23909863 -11 55 C-10.34 55 -9.68 55 -9 55 C-8.67 60.28 -8.34 65.56 -8 71 C-15.39072553 56.21854894 -18.47594446 25.69687637 -14.34375 9.4140625 C-11.70674536 3.11707729 -6.86575186 0 0 0 Z " fill="#61AAE1" transform="translate(32,249)"/>
<path d="M0 0 C0 0.33 0 0.66 0 1 C-16.05690646 4.31663653 -31.59503941 6.91218162 -48 7 C-48.68064514 7.00410889 -49.36129028 7.00821777 -50.06256104 7.01245117 C-61.041994 7.07563529 -72.02060719 7.06050534 -83 7 C-83 6.67 -83 6.34 -83 6 C-67.655 5.505 -67.655 5.505 -52 5 C-52 4.67 -52 4.34 -52 4 C-30.46808511 2.80851064 -30.46808511 2.80851064 -20 3 C-20 2.34 -20 1.68 -20 1 C-12.95678017 -0.59295252 -7.14349955 -1.1710655 0 0 Z " fill="#58A4D9" transform="translate(245,418)"/>
<path d="M0 0 C6.06920432 0.09347175 12.13800674 0.19955179 18.20678711 0.31738281 C20.27182965 0.35569348 22.3369394 0.39054266 24.40209961 0.421875 C27.36857138 0.46748014 30.3345796 0.52548201 33.30078125 0.5859375 C34.68841423 0.60326431 34.68841423 0.60326431 36.1040802 0.62094116 C36.96474594 0.64081085 37.82541168 0.66068054 38.7121582 0.68115234 C39.46938675 0.69447601 40.2266153 0.70779968 41.00679016 0.7215271 C43 1 43 1 46 3 C46.26667539 5.83727325 46.34791234 8.45383045 46.29296875 11.2890625 C46.28872391 12.10748627 46.28447906 12.92591003 46.28010559 13.76913452 C46.26328679 16.38808836 46.22562974 19.00627802 46.1875 21.625 C46.17245726 23.3984264 46.15876814 25.17186484 46.14648438 26.9453125 C46.11337292 31.2971703 46.06156952 35.64845551 46 40 C45.67 40 45.34 40 45 40 C45 28.12 45 16.24 45 4 C40.84236546 2.96059136 36.98449179 2.77622421 32.734375 2.68359375 C31.94097717 2.66281265 31.14757935 2.64203156 30.33013916 2.62062073 C27.80351156 2.55540027 25.27678279 2.49636856 22.75 2.4375 C21.03384384 2.3942886 19.31769778 2.35067347 17.6015625 2.30664062 C13.40114454 2.19974717 9.20062511 2.09840271 5 2 C5 2.66 5 3.32 5 4 C3.02 3.34 1.04 2.68 -1 2 C-0.67 1.34 -0.34 0.68 0 0 Z " fill="#3291DA" transform="translate(230,145)"/>
<path d="M0 0 C0.79497894 0.00444122 1.58995789 0.00888245 2.4090271 0.01345825 C3.76020126 0.01368484 3.76020126 0.01368484 5.13867188 0.01391602 C6.11266937 0.02423859 7.08666687 0.03456116 8.09017944 0.04519653 C9.08617157 0.04802643 10.0821637 0.05085632 11.1083374 0.05377197 C14.29771813 0.06499063 17.48682072 0.09009822 20.67611694 0.11550903 C22.83496706 0.12553666 24.99382157 0.13466288 27.15267944 0.14285278 C32.45225393 0.16493543 37.75166557 0.19842945 43.05111694 0.24050903 C43.05111694 0.57050903 43.05111694 0.90050903 43.05111694 1.24050903 C41.83005249 1.26556519 40.60898804 1.29062134 39.35092163 1.31643677 C34.81842649 1.41064483 30.28607981 1.51083288 25.75375366 1.61282349 C23.79252598 1.65612163 21.83126185 1.69780035 19.8699646 1.73782349 C17.05002866 1.79565002 14.23027533 1.85930887 11.41049194 1.92410278 C10.09622223 1.94917152 10.09622223 1.94917152 8.75540161 1.9747467 C7.93485291 1.99469193 7.1143042 2.01463715 6.26889038 2.03518677 C5.18967316 2.05850319 5.18967316 2.05850319 4.08865356 2.08229065 C1.69643705 2.2110995 1.69643705 2.2110995 -1.94888306 3.24050903 C-2.27888306 16.77050903 -2.60888306 30.30050903 -2.94888306 44.24050903 C-3.27888306 44.24050903 -3.60888306 44.24050903 -3.94888306 44.24050903 C-3.99822704 38.29569722 -4.03457587 32.35100395 -4.05874634 26.40603638 C-4.06881976 24.38257776 -4.08247901 22.35913376 -4.09976196 20.33572388 C-4.12395153 17.43155314 -4.13535254 14.52757443 -4.14419556 11.62332153 C-4.15451813 10.71494537 -4.1648407 9.80656921 -4.17547607 8.8706665 C-4.17562714 8.02994598 -4.1757782 7.18922546 -4.17593384 6.32302856 C-4.18037506 5.5813443 -4.18481628 4.83966003 -4.18939209 4.07550049 C-3.82819633 1.31971574 -2.73181784 0.33712996 0 0 Z " fill="#80C0EB" transform="translate(173.94888305664063,195.75949096679688)"/>
<path d="M0 0 C15.18 0 30.36 0 46 0 C45.67 0.99 45.34 1.98 45 3 C30.15 2.67 15.3 2.34 0 2 C0 1.34 0 0.68 0 0 Z " fill="#3889C8" transform="translate(59,197)"/>
<path d="M0 0 C6.22961977 -0.05059881 12.4591868 -0.08569062 18.68896484 -0.10986328 C20.8094277 -0.11993751 22.92987661 -0.13359733 25.05029297 -0.15087891 C28.09345943 -0.17506489 31.13644266 -0.18646869 34.1796875 -0.1953125 C35.13181122 -0.20563507 36.08393494 -0.21595764 37.06491089 -0.22659302 C37.94567291 -0.22674408 38.82643494 -0.22689514 39.73388672 -0.22705078 C40.51110077 -0.231492 41.28831482 -0.23593323 42.08908081 -0.24050903 C44 0 44 0 46 2 C46.17546482 5.01308951 46.23127445 7.93310454 46.1953125 10.9453125 C46.1924826 11.8303244 46.18965271 12.7153363 46.18673706 13.62716675 C46.1755224 16.45991412 46.1504157 19.29234784 46.125 22.125 C46.11497185 24.04296419 46.10584572 25.96093333 46.09765625 27.87890625 C46.07557889 32.58605876 46.04104045 37.29297616 46 42 C45.67 42 45.34 42 45 42 C45 29.46 45 16.92 45 4 C44.01 3.67 43.02 3.34 42 3 C42 2.34 42 1.68 42 1 C28.14 1 14.28 1 0 1 C0 0.67 0 0.34 0 0 Z " fill="#3D92D0" transform="translate(230,92)"/>
<path d="M0 0 C0.99 0.33 1.98 0.66 3 1 C2.83923477 1.58247498 2.67846954 2.16494995 2.51283264 2.76507568 C1.71811623 6.22844927 1.76069922 9.72783374 1.68359375 13.265625 C1.66281265 14.05902283 1.64203156 14.85242065 1.62062073 15.66986084 C1.55540027 18.19648844 1.49636856 20.72321721 1.4375 23.25 C1.3942886 24.96615616 1.35067347 26.68230222 1.30664062 28.3984375 C1.19974717 32.59885546 1.09840271 36.79937489 1 41 C0.01 41 -0.98 41 -2 41 C-2.04947953 35.80388779 -2.08575727 30.60791309 -2.10986328 25.41162109 C-2.11991384 23.64434418 -2.13355642 21.87708387 -2.15087891 20.10986328 C-2.17516885 17.56799215 -2.18649255 15.02634111 -2.1953125 12.484375 C-2.20563507 11.69569031 -2.21595764 10.90700562 -2.22659302 10.09442139 C-2.22737709 6.25110336 -2.18664676 3.25348826 0 0 Z " fill="#59A6E6" transform="translate(228,92)"/>
<path d="M0 0 C4.36409608 0.29093974 7.47623465 1.40899607 11 4 C11 4.66 11 5.32 11 6 C12.1446875 6.37125 12.1446875 6.37125 13.3125 6.75 C16.2364045 8.10995558 17.30004356 9.31585826 19 12 C14.56695104 11.507439 13.04375599 10.13599102 10 7 C6.16825741 4.71725974 3.47405158 3.60523074 -1 4 C-0.896875 4.70125 -0.79375 5.4025 -0.6875 6.125 C-1.13654705 10.25623283 -3.15011695 12.0838406 -6 15 C-6.99 15.33 -7.98 15.66 -9 16 C-7.00679515 10.38278634 -4.2456073 4.2456073 0 0 Z " fill="#6DB2E0" transform="translate(378,156)"/>
<path d="M0 0 C0.66 0 1.32 0 2 0 C2 13.2 2 26.4 2 40 C0.02 40.495 0.02 40.495 -2 41 C-1.67 40.01 -1.34 39.02 -1 38 C-0.84586124 35.12561452 -0.74252715 32.27101014 -0.68359375 29.39453125 C-0.66281265 28.55532639 -0.64203156 27.71612152 -0.62062073 26.85148621 C-0.55525982 24.17190706 -0.49630286 21.49223031 -0.4375 18.8125 C-0.39430198 16.99543263 -0.35068727 15.17837512 -0.30664062 13.36132812 C-0.1995922 8.90765201 -0.09828681 4.45387774 0 0 Z " fill="#7DB8DF" transform="translate(218,147)"/>
<path d="M0 0 C1.32 0.33 2.64 0.66 4 1 C2 4 2 4 -1 5 C-2.00554004 5.9944291 -3.00491392 6.99511011 -4 8 C-5.42727823 8.92479076 -6.88880447 9.79820863 -8.375 10.625 C-9.12523437 11.05039062 -9.87546875 11.47578125 -10.6484375 11.9140625 C-13.10265012 13.04740321 -15.33845669 13.5767864 -18 14 C-17.34 13.01 -16.68 12.02 -16 11 C-15.34 11 -14.68 11 -14 11 C-13.67 10.34 -13.34 9.68 -13 9 C-12.34 9.33 -11.68 9.66 -11 10 C-11.33 9.01 -11.66 8.02 -12 7 C-9.9375 4.4375 -9.9375 4.4375 -7 2 C-3.1875 2.1875 -3.1875 2.1875 0 3 C0 2.01 0 1.02 0 0 Z " fill="#41A0E7" transform="translate(461,248)"/>
<path d="M0 0 C0.33 0 0.66 0 1 0 C0.57662244 5.63760648 -0.00253155 10.67341746 -2 16 C-2.55121653 17.78875168 -3.09222914 19.58066797 -3.625 21.375 C-3.88539063 22.24898437 -4.14578125 23.12296875 -4.4140625 24.0234375 C-4.60742188 24.67570312 -4.80078125 25.32796875 -5 26 C-5.66 26 -6.32 26 -7 26 C-7 32.27 -7 38.54 -7 45 C-7.33 45 -7.66 45 -8 45 C-8.76757043 28.65927842 -6.67019044 14.96391698 0 0 Z " fill="#7DC1EB" transform="translate(368,172)"/>
<path d="M0 0 C12.21 0 24.42 0 37 0 C37.66 1.32 38.32 2.64 39 4 C38.01 3.67 37.02 3.34 36 3 C33.34393699 2.84653047 30.70904905 2.74282102 28.05078125 2.68359375 C26.89185616 2.6524221 26.89185616 2.6524221 25.70951843 2.62062073 C23.2439352 2.55528962 20.77824639 2.49631685 18.3125 2.4375 C16.63996309 2.39429913 14.96743681 2.35068434 13.29492188 2.30664062 C9.1967225 2.1996251 5.09841704 2.09831143 1 2 C0.67 1.34 0.34 0.68 0 0 Z " fill="#85C4E7" transform="translate(237,144)"/>
<path d="M0 0 C3.98325341 -0.36211395 6.46072237 0.64472026 10.05834961 2.24487305 C14.39301417 3.93066677 19.10588386 4.39221961 23.671875 5.15625 C26.86543071 5.96588384 28.07447774 6.41347756 30 9 C24.05718998 9.30475949 19.02468031 8.2050592 13.3125 6.625 C12.47138672 6.40328125 11.63027344 6.1815625 10.76367188 5.953125 C6.94488443 4.92347573 3.50606025 3.86205372 0 2 C0 1.34 0 0.68 0 0 Z " fill="#59AAE3" transform="translate(97,411)"/>
<path d="M0 0 C0.99 0.33 1.98 0.66 3 1 C0.2428744 6.38005481 -2.62115055 11.06999054 -6.765625 15.4921875 C-8.23115857 17.09971083 -8.23115857 17.09971083 -9 20 C-9.66 20 -10.32 20 -11 20 C-10.33333333 17.33333333 -9.66666667 14.66666667 -9 12 C-8.01 12 -7.02 12 -6 12 C-6 11.34 -6 10.68 -6 10 C-5.34 10 -4.68 10 -4 10 C-4 8.68 -4 7.36 -4 6 C-4.99 6 -5.98 6 -7 6 C-6.34 4.68 -5.68 3.36 -5 2 C-4.67 2.66 -4.34 3.32 -4 4 C-2.68 2.68 -1.36 1.36 0 0 Z " fill="#5FABE2" transform="translate(381,320)"/>
<path d="M0 0 C3.09592835 3.5087188 4.74194623 6.49197399 6 11 C6.66 11 7.32 11 8 11 C8.33 9.68 8.66 8.36 9 7 C9.33 7.33 9.66 7.66 10 8 C9.90982004 10.19050021 9.75333792 12.378466 9.5625 14.5625 C9.46066406 15.76003906 9.35882813 16.95757812 9.25390625 18.19140625 C9.17011719 19.11824219 9.08632813 20.04507812 9 21 C6.18816428 17.63086351 4.49924999 13.94821665 2.8125 9.9375 C2.40354492 9.00067383 2.40354492 9.00067383 1.98632812 8.04492188 C0.77075658 5.190309 0 3.13560401 0 0 Z " fill="#49A5E6" transform="translate(30,340)"/>
<path d="M0 0 C0.66 0 1.32 0 2 0 C4 3 4 3 4 6 C4.66 6 5.32 6 6 6 C7 8 7 8 7 14 C2.05 14.33 -2.9 14.66 -8 15 C-5.14521674 13.09681116 -3.58058692 12.5380901 -0.3125 11.875 C0.49574219 11.70742187 1.30398438 11.53984375 2.13671875 11.3671875 C2.75160156 11.24601563 3.36648438 11.12484375 4 11 C3.71125 10.45730469 3.4225 9.91460937 3.125 9.35546875 C2.75375 8.64003906 2.3825 7.92460937 2 7.1875 C1.443125 6.12595703 1.443125 6.12595703 0.875 5.04296875 C0 3 0 3 0 0 Z " fill="#62AFE4" transform="translate(365,231)"/>
<path d="M0 0 C7.92 0.33 15.84 0.66 24 1 C24 1.33 24 1.66 24 2 C29.445 2.495 29.445 2.495 35 3 C35 3.33 35 3.66 35 4 C22.87860382 4.33226162 11.79265137 4.0017658 0 1 C0 0.67 0 0.34 0 0 Z " fill="#5EA8DF" transform="translate(127,420)"/>
<path d="M0 0 C0 0.33 0 0.66 0 1 C-3.64203393 1.70871279 -7.2889874 2.38800377 -10.9375 3.0625 C-11.95908203 3.26166016 -12.98066406 3.46082031 -14.03320312 3.66601562 C-20.37634911 4.82115723 -25.63192958 5.05581147 -32 4 C-32 3.67 -32 3.34 -32 3 C-28.04 3 -24.08 3 -20 3 C-20 2.34 -20 1.68 -20 1 C-12.95678017 -0.59295252 -7.14349955 -1.1710655 0 0 Z " fill="#51A4E3" transform="translate(245,418)"/>
<path d="M0 0 C3.875 1.875 3.875 1.875 5 3 C4.7472959 9.94936287 2.3464407 14.97393704 -1 21 C-1.99 21 -2.98 21 -4 21 C-4 20.34 -4 19.68 -4 19 C-3.01 19 -2.02 19 -1 19 C-1 16.69 -1 14.38 -1 12 C-0.34 12 0.32 12 1 12 C1 11.01 1 10.02 1 9 C1.66 9 2.32 9 3 9 C3 7.35 3 5.7 3 4 C2.01 4.33 1.02 4.66 0 5 C0 3.35 0 1.7 0 0 Z " fill="#64ADE1" transform="translate(476,217)"/>
<path d="M0 0 C-0.66 1.32 -1.32 2.64 -2 4 C-17.18 4 -32.36 4 -48 4 C-48 3.67 -48 3.34 -48 3 C-33.48 3 -18.96 3 -4 3 C-4 2.34 -4 1.68 -4 1 C-2 0 -2 0 0 0 Z " fill="#6098C2" transform="translate(276,185)"/>
<path d="M0 0 C4 0 4 0 6.3125 2.25 C7.6428125 3.61125 7.6428125 3.61125 9 5 C11.91706108 6.99726705 14.79993456 8.77296059 18.3125 9.4375 C18.869375 9.623125 19.42625 9.80875 20 10 C21.25 12.5625 21.25 12.5625 22 15 C13.85457476 12.00990719 6.3724858 6.85579776 0 1 C0 0.67 0 0.34 0 0 Z " fill="#65ADE1" transform="translate(64,393)"/>
<path d="M0 0 C0.33 0 0.66 0 1 0 C1.03738281 0.8971875 1.07476562 1.794375 1.11328125 2.71875 C1.62096268 12.35474264 3.02765496 21.5600341 5 31 C4.01 30.67 3.02 30.34 2 30 C-0.28486424 23.52369606 -0.24112624 17.3067844 -0.125 10.5 C-0.11597656 9.48679688 -0.10695313 8.47359375 -0.09765625 7.4296875 C-0.07429007 4.95287199 -0.04153168 2.47656621 0 0 Z " fill="#4C9DD8" transform="translate(361,198)"/>
<path d="M0 0 C0 11.22 0 22.44 0 34 C-0.33 34 -0.66 34 -1 34 C-1.02505615 33.13721436 -1.0501123 32.27442871 -1.07592773 31.38549805 C-1.17111385 28.18176231 -1.27034444 24.97818463 -1.37231445 21.7746582 C-1.41560218 20.38864017 -1.45728164 19.00257094 -1.49731445 17.61645508 C-1.55516584 15.62308202 -1.61929776 13.62989435 -1.68359375 11.63671875 C-1.72025146 10.43748779 -1.75690918 9.23825684 -1.79467773 8.00268555 C-1.87733025 4.95005651 -1.87733025 4.95005651 -3 2 C-5.31 1.67 -7.62 1.34 -10 1 C-10 0.67 -10 0.34 -10 0 C-2.25 -1.125 -2.25 -1.125 0 0 Z " fill="#64AFE9" transform="translate(162,198)"/>
<path d="M0 0 C0.33 0 0.66 0 1 0 C1.33 1.65 1.66 3.3 2 5 C2.99 5.33 3.98 5.66 5 6 C5 10.62 5 15.24 5 20 C2.42804945 17.42804945 1.8988625 15.15052558 0.8125 11.6875 C0.44769531 10.55699219 0.08289063 9.42648437 -0.29296875 8.26171875 C-0.99673818 5.0150476 -0.92746044 3.14863957 0 0 Z " fill="#56A7E2" transform="translate(25,320)"/>
<path d="M0 0 C1.78409802 3.06246747 2.22880021 5.22079273 2.125 8.75 C2.10695313 9.54921875 2.08890625 10.3484375 2.0703125 11.171875 C2.04710937 11.77515625 2.02390625 12.3784375 2 13 C2.66 13 3.32 13 4 13 C4.33 18.28 4.66 23.56 5 29 C0.43332205 19.86664409 0.46625395 9.99992018 0 0 Z " fill="#68ADE0" transform="translate(19,291)"/>
<path d="M0 0 C-4.74634135 3.02039904 -10.31298519 6.36810947 -16 7 C-16.66 6.34 -17.32 5.68 -18 5 C-17.01 4.67 -16.02 4.34 -15 4 C-14.67 3.34 -14.34 2.68 -14 2 C-12.22265625 1.40234375 -12.22265625 1.40234375 -10.0625 0.9375 C-2.44848061 -0.73454418 -2.44848061 -0.73454418 0 0 Z " fill="#65AFE2" transform="translate(296,401)"/>
<path d="M0 0 C3.2578125 0.0234375 3.2578125 0.0234375 7.125 0.375 C8.40632813 0.48585938 9.68765625 0.59671875 11.0078125 0.7109375 C11.99523437 0.80632812 12.98265625 0.90171875 14 1 C14 1.33 14 1.66 14 2 C9.71 2 5.42 2 1 2 C0.67 3.98 0.34 5.96 0 8 C-0.62225605 9.68375165 -1.27544365 11.35767228 -2 13 C-2.33 13 -2.66 13 -3 13 C-2.88610125 11.20759337 -2.75852313 9.41605165 -2.625 7.625 C-2.55539062 6.62726563 -2.48578125 5.62953125 -2.4140625 4.6015625 C-2 2 -2 2 0 0 Z " fill="#77BDE9" transform="translate(408,266)"/>
<path d="M0 0 C0.33 0 0.66 0 1 0 C1.74507544 6.37305598 2.10349817 12.58311325 2 19 C1.690625 18.360625 1.38125 17.72125 1.0625 17.0625 C0.1654837 15.06389179 0.1654837 15.06389179 -1 14 C-1.09908783 12.21059028 -1.12970379 10.41714492 -1.125 8.625 C-1.12757812 7.64789063 -1.13015625 6.67078125 -1.1328125 5.6640625 C-1 3 -1 3 0 0 Z " fill="#4BA1E4" transform="translate(19,276)"/>
<path d="M0 0 C0.99 0.495 0.99 0.495 2 1 C2 1.99 2 2.98 2 4 C2.99 4.33 3.98 4.66 5 5 C8 9.33333333 8 9.33333333 8 12 C5.125 11.375 5.125 11.375 2 10 C0.27251133 6.38797823 0 4.02768404 0 0 Z " fill="#63AEE5" transform="translate(402,172)"/>
<path d="M0 0 C-1 2 -1 2 -3.44140625 2.8515625 C-9.461127 4.34330807 -14.79826201 5.35779258 -21 5 C-21 4.67 -21 4.34 -21 4 C-18.69 4 -16.38 4 -14 4 C-14 3.34 -14 2.68 -14 2 C-9.07262981 0.02905192 -5.21979128 -0.1799928 0 0 Z " fill="#6BB1E4" transform="translate(443,262)"/>
<path d="M0 0 C2.64 0 5.28 0 8 0 C5.47580407 2.52419593 3.57642137 2.78957038 0.125 3.625 C-0.92429688 3.88539063 -1.97359375 4.14578125 -3.0546875 4.4140625 C-6 5 -6 5 -10 5 C-10 4.34 -10 3.68 -10 3 C-6.52674819 1.8422494 -3.63932552 1.93133348 0 2 C0 1.34 0 0.68 0 0 Z " fill="#64B0E3" transform="translate(255,413)"/>
<path d="M0 0 C4.71403788 0.47939368 8.66579301 0.96834048 13 3 C13 3.33 13 3.66 13 4 C6.07 3.505 6.07 3.505 -1 3 C-0.67 2.01 -0.34 1.02 0 0 Z " fill="#61ACE1" transform="translate(452,208)"/>
<path d="M0 0 C0.99 0 1.98 0 3 0 C2.42531075 3.87915244 0.62115553 6.14756605 -2 9 C-2.99 9.33 -3.98 9.66 -5 10 C-3.66786942 6.4134946 -2.23083941 3.12317517 0 0 Z " fill="#55A7E2" transform="translate(374,162)"/>
<path d="M0 0 C0.99 0.33 1.98 0.66 3 1 C1.9375 3.5 1.9375 3.5 0 6 C-3.6875 6.3125 -3.6875 6.3125 -7 6 C-6.34 4.68 -5.68 3.36 -5 2 C-4.67 2.66 -4.34 3.32 -4 4 C-2.68 2.68 -1.36 1.36 0 0 Z " fill="#49A3E5" transform="translate(381,320)"/>
<path d="M0 0 C0.66 0 1.32 0 2 0 C3.33333333 3.33333333 4.66666667 6.66666667 6 10 C5.34 9.67 4.68 9.34 4 9 C3.34 9.66 2.68 10.32 2 11 C-0.57662108 7.13506838 0 4.56985872 0 0 Z " fill="#66AFE3" transform="translate(410,184)"/>
<path d="M0 0 C0.99 0 1.98 0 3 0 C3 0.66 3 1.32 3 2 C-0.6125362 3.84827434 -4.2089881 5.55049545 -8 7 C-8 6.01 -8 5.02 -8 4 C-7.01 4 -6.02 4 -5 4 C-5 3.34 -5 2.68 -5 2 C-3.35 2 -1.7 2 0 2 C0 1.34 0 0.68 0 0 Z " fill="#6CB4E6" transform="translate(313,389)"/>
<path d="M0 0 C-7.28571429 4.42857143 -7.28571429 4.42857143 -12 5 C-11.34 4.01 -10.68 3.02 -10 2 C-9.34 2 -8.68 2 -8 2 C-7.67 1.34 -7.34 0.68 -7 0 C-4.0262656 -1.09036928 -3.11592499 -1.03864166 0 0 Z " fill="#6BB0E4" transform="translate(455,257)"/>
<path d="M0 0 C0.99 0.33 1.98 0.66 3 1 C2.01 2.485 2.01 2.485 1 4 C0.34 4 -0.32 4 -1 4 C-1.66 5.32 -2.32 6.64 -3 8 C-3.66 8 -4.32 8 -5 8 C-5.33 6.68 -5.66 5.36 -6 4 C-4.68 4.33 -3.36 4.66 -2 5 C-2 3.68 -2 2.36 -2 1 C-1.34 0.67 -0.68 0.34 0 0 Z " fill="#65AFE4" transform="translate(361,348)"/>
<path d="M0 0 C0.33 0 0.66 0 1 0 C0.93999894 1.6260287 0.8512115 3.25101549 0.75 4.875 C0.70359375 5.77992188 0.6571875 6.68484375 0.609375 7.6171875 C0 10 0 10 -2.046875 11.3203125 C-2.69140625 11.54460937 -3.3359375 11.76890625 -4 12 C-2.66666667 8 -1.33333333 4 0 0 Z " fill="#67B1E5" transform="translate(368,172)"/>
<path d="M0 0 C-1.26941497 3.91402949 -2.51167694 5.79072873 -6 8 C-5.67 5.69 -5.34 3.38 -5 1 C-2 0 -2 0 0 0 Z " fill="#6FB4E6" transform="translate(370,340)"/>
<path d="M0 0 C-6 4 -6 4 -10 4 C-9.67 3.01 -9.34 2.02 -9 1 C-6.04335481 -0.4783226 -3.25770263 -0.06032783 0 0 Z " fill="#63AFE1" transform="translate(278,408)"/>
<path d="M0 0 C3.73044765 1.24348255 4.79540326 2.80713575 7 6 C7 6.99 7 7.98 7 9 C6.34 9 5.68 9 5 9 C3.35 6.03 1.7 3.06 0 0 Z " fill="#6FB2E1" transform="translate(45,371)"/>
<path d="M0 0 C3.64775386 3.88309282 4.58525633 6.71201818 5 12 C1.94063363 8.24532309 0 4.91886939 0 0 Z " fill="#70B4E5" transform="translate(30,340)"/>
<path d="M0 0 C1.65 0 3.3 0 5 0 C3.29374499 2.78388975 2.52373261 3.85384206 -0.6875 4.75 C-1.8321875 4.87375 -1.8321875 4.87375 -3 5 C-3.33 4.34 -3.66 3.68 -4 3 C-2.68 3 -1.36 3 0 3 C0 2.01 0 1.02 0 0 Z " fill="#66AEE4" transform="translate(319,384)"/>
<path d="M0 0 C2.4375 0.6875 2.4375 0.6875 5 2 C5.8125 4.625 5.8125 4.625 6 7 C5.01 7.495 5.01 7.495 4 8 C0 2.25 0 2.25 0 0 Z " fill="#70B3E5" transform="translate(40,363)"/>
<path d="M0 0 C3.3 0 6.6 0 10 0 C10.66 1.32 11.32 2.64 12 4 C10.68 3.67 9.36 3.34 8 3 C8 2.34 8 1.68 8 1 C5.36 1 2.72 1 0 1 C0 0.67 0 0.34 0 0 Z " fill="#5EA8DA" transform="translate(264,92)"/>
<path d="M0 0 C1.98 0.495 1.98 0.495 4 1 C2.8141763 4.37503669 1.72426311 6.64722731 -1 9 C-1 7.68 -1 6.36 -1 5 C-0.34 5 0.32 5 1 5 C0.67 3.35 0.34 1.7 0 0 Z " fill="#6DB3E8" transform="translate(376,325)"/>
<path d="M0 0 C2.97 0.33 5.94 0.66 9 1 C9 1.33 9 1.66 9 2 C5.37 2.33 1.74 2.66 -2 3 C-1.34 2.67 -0.68 2.34 0 2 C0 1.34 0 0.68 0 0 Z " fill="#6EB9E7" transform="translate(236,417)"/>
<path d="M0 0 C0.66 0 1.32 0 2 0 C0.7508258 3.45925163 -0.67527795 6.14693203 -3 9 C-3 7.35 -3 5.7 -3 4 C-2.34 4 -1.68 4 -1 4 C-0.67 2.68 -0.34 1.36 0 0 Z " fill="#65B0E3" transform="translate(398,291)"/>
</svg>
