<?xml version="1.0" encoding="UTF-8"?>
<svg version="1.1" xmlns="http://www.w3.org/2000/svg" width="165" height="172">
<path d="M0 0 C3.57254829 2.7892623 6.80390452 5.79165894 10 9 C11.3303125 10.175625 11.3303125 10.175625 12.6875 11.375 C18.77981558 18.29060147 23.13666682 26.26611436 26 35 C26.33837891 36.00353516 26.33837891 36.00353516 26.68359375 37.02734375 C30.82119351 51.89416772 28.21465425 69.3918595 21.1875 82.9375 C18.24059064 87.88650808 14.9951323 92.82982324 11 97 C10.34 97 9.68 97 9 97 C9 97.66 9 98.32 9 99 C7.05227507 100.5593841 5.12286448 101.97842664 3.0625 103.375 C2.47073975 103.778396 1.87897949 104.18179199 1.26928711 104.59741211 C-5.06375022 108.83002784 -11.09265433 112.81100981 -19 112 C-20.27446388 109.45107224 -20.17572984 107.54635379 -20.24609375 104.6953125 C-20.27896484 103.63699219 -20.31183594 102.57867187 -20.34570312 101.48828125 C-20.40668514 99.25400392 -20.46400318 97.01962346 -20.51757812 94.78515625 C-20.55173828 93.72425781 -20.58589844 92.66335937 -20.62109375 91.5703125 C-20.6461499 90.59852051 -20.67120605 89.62672852 -20.69702148 88.62548828 C-21.00667799 85.94213123 -21.74944477 84.35600978 -23 82 C-23 81.01 -23 80.02 -23 79 C-22.09121094 78.88785156 -22.09121094 78.88785156 -21.1640625 78.7734375 C-12.90652851 77.47763986 -5.99708004 74.52156905 -0.5 68.0625 C3.49129795 59.91360001 4.68859456 50.56917755 2.39453125 41.64453125 C1.23175881 38.8763065 -0.33606276 36.49590586 -2 34 C-2.16015625 30.96875 -2.16015625 30.96875 -2.0625 27.5 C-1.91808351 22.66300225 -1.91808351 22.66300225 -3 18 C-8.57343077 18.98051097 -13.14109819 20.3092174 -17.98046875 23.29296875 C-20.87221289 24.30535887 -23.00217677 23.56609726 -26 23 C-28.81322778 22.84835956 -31.62079054 22.86005724 -34.4375 22.875 C-35.16259766 22.87113281 -35.88769531 22.86726563 -36.63476562 22.86328125 C-40.12948525 22.86956107 -43.2606312 23.04567199 -46.72265625 23.65234375 C-50.44007682 24.04668276 -51.82079244 23.54378073 -55 21.6875 C-58.90751928 19.44453252 -62.6352512 18.13932781 -67 17 C-66.95359375 18.15757813 -66.9071875 19.31515625 -66.859375 20.5078125 C-66.82183752 22.04684906 -66.78543949 23.5859137 -66.75 25.125 C-66.69972656 26.26582031 -66.69972656 26.26582031 -66.6484375 27.4296875 C-66.55456802 32.87411713 -67.62560692 35.5566198 -71 40 C-73.44999858 46.51595366 -73.0651348 56.00755677 -70.75 62.5 C-70.1725 63.655 -69.595 64.81 -69 66 C-68.484375 67.051875 -67.96875 68.10375 -67.4375 69.1875 C-61.93452894 75.53708199 -54.01986182 77.57712129 -46 79 C-46.78175515 83.84688192 -48.39844278 88.3766367 -50 93 C-51.65 92.67 -53.3 92.34 -55 92 C-55 92.66 -55 93.32 -55 94 C-55.99 94 -56.98 94 -58 94 C-58 93.01 -58 92.02 -58 91 C-58.66 91 -59.32 91 -60 91 C-60 91.66 -60 92.32 -60 93 C-60.99 93 -61.98 93 -63 93 C-63.33 92.01 -63.66 91.02 -64 90 C-66.01508358 89.26676204 -66.01508358 89.26676204 -68 89 C-68 88.34 -68 87.68 -68 87 C-68.66 87 -69.32 87 -70 87 C-69.09447999 90.25987205 -68.06692589 91.93483532 -65.625 94.3125 C-61.05369405 96.44052174 -57.4851242 96.2693107 -52.51171875 96.04296875 C-51.68285156 96.02878906 -50.85398438 96.01460938 -50 96 C-49 97 -49 97 -48.8671875 100.125 C-48.86976562 101.40375 -48.87234375 102.6825 -48.875 104 C-48.87113281 105.918125 -48.87113281 105.918125 -48.8671875 107.875 C-49 111 -49 111 -50 112 C-61.09723044 112.18808865 -71.49032246 105.13098259 -79.37890625 97.734375 C-86 90.65060241 -86 90.65060241 -86 87 C-86.66 87 -87.32 87 -88 87 C-97.04603605 70.48878857 -100.20812359 52.63411694 -95.16015625 34.1796875 C-88.80608099 16.76481457 -77.43879554 3.4036053 -60.625 -4.75 C-40.47362943 -13.31362592 -18.63535894 -11.70336552 0 0 Z M-79 78 C-78.01 79.485 -78.01 79.485 -77 81 C-76.34 81 -75.68 81 -75 81 C-75 81.66 -75 82.32 -75 83 C-74.34 83 -73.68 83 -73 83 C-73 82.34 -73 81.68 -73 81 C-72.34 80.67 -71.68 80.34 -71 80 C-74.08809695 78.23537317 -75.23312136 78 -79 78 Z M-70 82 C-70.99 82.66 -71.98 83.32 -73 84 C-72.34 84.66 -71.68 85.32 -71 86 C-71 85.34 -71 84.68 -71 84 C-70.34 84 -69.68 84 -69 84 C-69.33 83.34 -69.66 82.68 -70 82 Z " fill="#1C1A1B" transform="translate(120,36)"/>
<path d="M0 0 C1.65 0 3.3 0 5 0 C5 0.66 5 1.32 5 2 C5.65226562 2.10054687 6.30453125 2.20109375 6.9765625 2.3046875 C10.97754716 3.16625647 14.01984939 3.94366121 16.859375 7.00390625 C25.80574499 21.36882507 28.40923673 38.89617926 24.87255859 55.35009766 C22.14090436 66.46704574 16.97701086 76.67348093 9 85 C8.34 85 7.68 85 7 85 C7 85.66 7 86.32 7 87 C5.05227507 88.5593841 3.12286448 89.97842664 1.0625 91.375 C0.47073975 91.778396 -0.12102051 92.18179199 -0.73071289 92.59741211 C-7.06375022 96.83002784 -13.09265433 100.81100981 -21 100 C-22.27446388 97.45107224 -22.17572984 95.54635379 -22.24609375 92.6953125 C-22.27896484 91.63699219 -22.31183594 90.57867187 -22.34570312 89.48828125 C-22.40668514 87.25400392 -22.46400318 85.01962346 -22.51757812 82.78515625 C-22.55173828 81.72425781 -22.58589844 80.66335937 -22.62109375 79.5703125 C-22.65867798 78.11262451 -22.65867798 78.11262451 -22.69702148 76.62548828 C-23.00667799 73.94213123 -23.74944477 72.35600978 -25 70 C-25 69.01 -25 68.02 -25 67 C-24.09121094 66.88785156 -24.09121094 66.88785156 -23.1640625 66.7734375 C-14.90652851 65.47763986 -7.99708004 62.52156905 -2.5 56.0625 C1.32950145 48.24393455 1.9004806 40.67559808 1 32 C0.51660156 30.89140625 0.03320312 29.7828125 -0.46484375 28.640625 C-2.32033675 24.24032098 -2.65821702 20.47277206 -2.875 15.75 C-2.93429688 14.94820312 -2.99359375 14.14640625 -3.0546875 13.3203125 C-3.1796875 10.984375 -3.1796875 10.984375 -3 7 C-2.50129395 6.50532227 -2.00258789 6.01064453 -1.48876953 5.50097656 C0.46947588 3.87902259 0.46947588 3.87902259 0 0 Z " fill="#1E1D1E" transform="translate(122,48)"/>
<path d="M0 0 C0.99 0.66 1.98 1.32 3 2 C2.67 2.66 2.34 3.32 2 4 C3.32 4.66 4.64 5.32 6 6 C6.33 5.34 6.66 4.68 7 4 C7.99 4.33 8.98 4.66 10 5 C10 11 10 17 10 23 C8.68 23.33 7.36 23.66 6 24 C5.34 23.01 4.68 22.02 4 21 C4.66 22.98 5.32 24.96 6 27 C5.34 27 4.68 27 4 27 C4.15847412 27.53915039 4.31694824 28.07830078 4.48022461 28.63378906 C5.08909023 31.40557189 5.21510316 34.02288851 5.31640625 36.859375 C5.35830078 37.97441406 5.40019531 39.08945313 5.44335938 40.23828125 C5.48267578 41.39714844 5.52199219 42.55601563 5.5625 43.75 C5.60568359 44.92433594 5.64886719 46.09867188 5.69335938 47.30859375 C5.79934794 50.20561451 5.90141638 53.10271935 6 56 C7.485 56.495 7.485 56.495 9 57 C9.33 59.31 9.66 61.62 10 64 C8 63 8 63 7 60 C6.34 59.67 5.68 59.34 5 59 C5 59.99 5 60.98 5 62 C4.34 62 3.68 62 3 62 C3.33 63.32 3.66 64.64 4 66 C2.35 66 0.7 66 -1 66 C-1 67.32 -1 68.64 -1 70 C0.65 70.33 2.3 70.66 4 71 C4 71.66 4 72.32 4 73 C5.485 73.495 5.485 73.495 7 74 C7.95703125 75.70703125 7.95703125 75.70703125 8.8125 77.8125 C10.85896593 82.04997778 12.53602116 84.08686621 17 86 C20.19245828 86.21062791 23.29264338 86.18840368 26.48828125 86.04296875 C27.31714844 86.02878906 28.14601562 86.01460938 29 86 C30 87 30 87 30.1328125 90.125 C30.13023438 91.40375 30.12765625 92.6825 30.125 94 C30.12886719 95.918125 30.12886719 95.918125 30.1328125 97.875 C30 101 30 101 29 102 C17.90276956 102.18808865 7.50967754 95.13098259 -0.37890625 87.734375 C-7 80.65060241 -7 80.65060241 -7 77 C-7.66 77 -8.32 77 -9 77 C-18.09452552 60.40028352 -21.15978475 42.61998836 -16.109375 24.0859375 C-14.08513479 18.45512847 -11.78572194 12.67518283 -8 8 C-4.76953125 7.140625 -4.76953125 7.140625 -2 7 C-1.34 4.69 -0.68 2.38 0 0 Z " fill="#1A1919" transform="translate(41,46)"/>
<path d="M0 0 C1.8772657 5.63179711 2.40696227 13.54015186 0.140625 19.11328125 C-0.9375 20.625 -0.9375 20.625 -3 23 C-5.35109253 29.61899935 -5.09235106 38.9312329 -2.75 45.5 C-2.1725 46.655 -1.595 47.81 -1 49 C-0.484375 50.051875 0.03125 51.10375 0.5625 52.1875 C6.06547106 58.53708199 13.98013818 60.57712129 22 62 C21.21824485 66.84688192 19.60155722 71.3766367 18 76 C16.35 75.67 14.7 75.34 13 75 C13 75.66 13 76.32 13 77 C12.01 77 11.02 77 10 77 C10 76.01 10 75.02 10 74 C9.34 74 8.68 74 8 74 C8 74.66 8 75.32 8 76 C7.01 76 6.02 76 5 76 C4.67 75.01 4.34 74.02 4 73 C1.98491642 72.26676204 1.98491642 72.26676204 0 72 C0 71.34 0 70.68 0 70 C-0.99 69.67 -1.98 69.34 -3 69 C-3 67 -3 67 -2 66 C-2.99 66 -3.98 66 -5 66 C-5 65.01 -5 64.02 -5 63 C-8.58327753 61.99782936 -8.58327753 61.99782936 -12 63 C-11.505 60.03 -11.505 60.03 -11 57 C-10.01 57 -9.02 57 -8 57 C-8 56.34 -8 55.68 -8 55 C-7.34 55 -6.68 55 -6 55 C-6 54.01 -6 53.02 -6 52 C-5.01 52.33 -4.02 52.66 -3 53 C-3 52.01 -3 51.02 -3 50 C-3.66 49.67 -4.32 49.34 -5 49 C-6.4460244 43.02563604 -6.35857126 36.75428996 -6.60546875 30.63671875 C-6.64285156 29.81300781 -6.68023437 28.98929688 -6.71875 28.140625 C-6.74904297 27.39329102 -6.77933594 26.64595703 -6.81054688 25.87597656 C-6.89690767 23.91028455 -6.89690767 23.91028455 -8 22 C-7.34 21.01 -6.68 20.02 -6 19 C-6.80161791 16.32854463 -6.80161791 16.32854463 -8 14 C-7.34 13.67 -6.68 13.34 -6 13 C-5.01 14.485 -5.01 14.485 -4 16 C-3.01 16 -2.02 16 -1 16 C-1.01160156 15.01257813 -1.02320313 14.02515625 -1.03515625 13.0078125 C-1.04417969 11.72648437 -1.05320312 10.44515625 -1.0625 9.125 C-1.07410156 7.84882812 -1.08570313 6.57265625 -1.09765625 5.2578125 C-1 2 -1 2 0 0 Z " fill="#272526" transform="translate(52,53)"/>
<path d="M0 0 C0.99 0.33 1.98 0.66 3 1 C3 1.66 3 2.32 3 3 C3.99 3.33 4.98 3.66 6 4 C6.95703125 5.70703125 6.95703125 5.70703125 7.8125 7.8125 C9.85896593 12.04997778 11.53602116 14.08686621 16 16 C19.19245828 16.21062791 22.29264338 16.18840368 25.48828125 16.04296875 C26.31714844 16.02878906 27.14601562 16.01460937 28 16 C29 17 29 17 29.1328125 20.125 C29.13023438 21.40375 29.12765625 22.6825 29.125 24 C29.12886719 25.918125 29.12886719 25.918125 29.1328125 27.875 C29 31 29 31 28 32 C16.90276956 32.18808865 6.50967754 25.13098259 -1.37890625 17.734375 C-8 10.65060241 -8 10.65060241 -8 7 C-8.66 7 -9.32 7 -10 7 C-10.66 5.02 -11.32 3.04 -12 1 C-11.01 1.33 -10.02 1.66 -9 2 C-9 2.99 -9 3.98 -9 5 C-6.36 5 -3.72 5 -1 5 C-1 5.99 -1 6.98 -1 8 C-1.33 8 -1.66 8 -2 8 C-2 8.99 -2 9.98 -2 11 C-1.34 11.66 -0.68 12.32 0 13 C-0.66 13 -1.32 13 -2 13 C-0.68 14.32 0.64 15.64 2 17 C1.67 15.02 1.34 13.04 1 11 C1.99 10.67 2.98 10.34 4 10 C3.67 9.01 3.34 8.02 3 7 C2.67 7 2.34 7 2 7 C2 5.35 2 3.7 2 2 C1.34 2 0.68 2 0 2 C0 1.34 0 0.68 0 0 Z " fill="#191718" transform="translate(42,116)"/>
<path d="M0 0 C0.33 0.99 0.66 1.98 1 3 C3.31 3 5.62 3 8 3 C8.33 3.99 8.66 4.98 9 6 C7.35 6 5.7 6 4 6 C4 7.32 4 8.64 4 10 C4.66 10 5.32 10 6 10 C6 10.66 6 11.32 6 12 C6.66 12 7.32 12 8 12 C9.41377341 14.63904371 10.37240135 17.07120629 11 20 C10.01 20.66 9.02 21.32 8 22 C7.74969023 24.58380177 7.74969023 24.58380177 8 27 C6.68 26.34 5.36 25.68 4 25 C4 24.01 4 23.02 4 22 C3.01 21.34 2.02 20.68 1 20 C1 19 1 19 2 16 C0.35 15.67 -1.3 15.34 -3 15 C-3 14.01 -3 13.02 -3 12 C-3.66 12 -4.32 12 -5 12 C-3.125 4.25 -3.125 4.25 -2 2 C-1.34 2 -0.68 2 0 2 C0 1.34 0 0.68 0 0 Z " fill="#141213" transform="translate(36,106)"/>
<path d="M0 0 C10.55808656 0.96355353 10.55808656 0.96355353 15 2 C14.39159077 5.54905382 13.68842953 8.80087037 12 12 C8.5059324 13.7470338 3.81424515 13.06357075 0 13 C-0.33 11.68 -0.66 10.36 -1 9 C0.32 8.34 1.64 7.68 3 7 C2.071875 6.7834375 2.071875 6.7834375 1.125 6.5625 C-1 6 -1 6 -3 5 C-3 4.34 -3 3.68 -3 3 C-2.34 3 -1.68 3 -1 3 C-0.67 2.01 -0.34 1.02 0 0 Z " fill="#211F20" transform="translate(59,113)"/>
<path d="M0 0 C1.8772657 5.63179711 2.40696227 13.54015186 0.140625 19.11328125 C-0.9375 20.625 -0.9375 20.625 -3 23 C-5.35109253 29.61899935 -5.09235106 38.9312329 -2.75 45.5 C0.65235241 52.30470482 3.26241514 55.63120757 10 59 C8.71034824 60.37562854 7.37310707 61.70766393 6 63 C5.34 63 4.68 63 4 63 C3.71125 62.195625 3.4225 61.39125 3.125 60.5625 C2.26737432 57.8673532 2.26737432 57.8673532 0 57 C-0.33 57.66 -0.66 58.32 -1 59 C-1.12117188 58.36191406 -1.24234375 57.72382812 -1.3671875 57.06640625 C-1.61855469 55.82697266 -1.61855469 55.82697266 -1.875 54.5625 C-2.03742187 53.73878906 -2.19984375 52.91507813 -2.3671875 52.06640625 C-2.57601562 51.38449219 -2.78484375 50.70257813 -3 50 C-3.66 49.67 -4.32 49.34 -5 49 C-6.4460244 43.02563604 -6.35857126 36.75428996 -6.60546875 30.63671875 C-6.64285156 29.81300781 -6.68023437 28.98929688 -6.71875 28.140625 C-6.74904297 27.39329102 -6.77933594 26.64595703 -6.81054688 25.87597656 C-6.89690767 23.91028455 -6.89690767 23.91028455 -8 22 C-7.01 20.515 -7.01 20.515 -6 19 C-6.80161791 16.32854463 -6.80161791 16.32854463 -8 14 C-7.34 13.67 -6.68 13.34 -6 13 C-5.01 14.485 -5.01 14.485 -4 16 C-3.01 16 -2.02 16 -1 16 C-1.01160156 15.01257813 -1.02320313 14.02515625 -1.03515625 13.0078125 C-1.04417969 11.72648437 -1.05320312 10.44515625 -1.0625 9.125 C-1.07410156 7.84882812 -1.08570313 6.57265625 -1.09765625 5.2578125 C-1 2 -1 2 0 0 Z " fill="#777677" transform="translate(52,53)"/>
<path d="M0 0 C1.0725 0.144375 2.145 0.28875 3.25 0.4375 C8.81717318 1.1384031 14.4070964 1.56188922 20 2 C20.07654536 6.51617599 20.10228696 10.59085217 19 15 C18.34 15 17.68 15 17 15 C17.33 13.35 17.66 11.7 18 10 C17.34 10 16.68 10 16 10 C16 10.99 16 11.98 16 13 C14.68 12.67 13.36 12.34 12 12 C12 11.34 12 10.68 12 10 C11.34 9.67 10.68 9.34 10 9 C10 8.01 10 7.02 10 6 C9.67 6.99 9.34 7.98 9 9 C8.05125 8.835 7.1025 8.67 6.125 8.5 C3.19831099 7.9473365 3.19831099 7.9473365 1 8 C1.33 7.01 1.66 6.02 2 5 C1.01 4.01 0.02 3.02 -1 2 C-0.67 1.34 -0.34 0.68 0 0 Z " fill="#161415" transform="translate(50,132)"/>
<path d="M0 0 C0.66 0 1.32 0 2 0 C2 0.66 2 1.32 2 2 C2.99 2.33 3.98 2.66 5 3 C5.02899599 6.77081722 5.04679729 10.54160583 5.0625 14.3125 C5.07087891 15.38435547 5.07925781 16.45621094 5.08789062 17.56054688 C5.09272461 19.10258789 5.09272461 19.10258789 5.09765625 20.67578125 C5.10551147 22.0975769 5.10551147 22.0975769 5.11352539 23.5480957 C5 26 5 26 4 29 C3.814375 29.804375 3.62875 30.60875 3.4375 31.4375 C1.28828078 35.26871687 -2.05034413 36.35584093 -6 38 C-5.67 39.65 -5.34 41.3 -5 43 C-6.32 42.67 -7.64 42.34 -9 42 C-9 41.34 -9 40.68 -9 40 C-11.475 40.495 -11.475 40.495 -14 41 C-12.73425177 38.46850354 -11.81730407 38.37899286 -9.25 37.3125 C-3.54861885 34.55376719 -1.13082057 30.63858133 1.3125 24.9375 C2.75983257 16.64823164 3.0264355 7.9443932 0 0 Z " fill="#555455" transform="translate(121,73)"/>
<path d="M0 0 C0.99 0.33 1.98 0.66 3 1 C3 1.99 3 2.98 3 4 C5.64 4 8.28 4 11 4 C11 4.99 11 5.98 11 7 C10.67 7 10.34 7 10 7 C10 7.99 10 8.98 10 10 C10.66 10.66 11.32 11.32 12 12 C11.34 12 10.68 12 10 12 C11.32 13.32 12.64 14.64 14 16 C13.67 14.02 13.34 12.04 13 10 C13.99 10.66 14.98 11.32 16 12 C16.1875 14.625 16.1875 14.625 16 17 C16.66 17 17.32 17 18 17 C17.34 18.32 16.68 19.64 16 21 C11.08146414 17.13037381 7.36245733 13.29841762 4 8 C4 7.34 4 6.68 4 6 C3.34 6 2.68 6 2 6 C1.34 4.02 0.68 2.04 0 0 Z " fill="#3B393A" transform="translate(30,117)"/>
<path d="M0 0 C5.94 0.99 5.94 0.99 12 2 C10.8173913 7.91304348 10.8173913 7.91304348 8 10 C5.8125 10.6875 5.8125 10.6875 4 11 C2.5393715 8.35261084 2 7.10551666 2 4 C1.01 4.33 0.02 4.66 -1 5 C-0.67 3.35 -0.34 1.7 0 0 Z " fill="#2A2829" transform="translate(62,113)"/>
<path d="M0 0 C2.83022097 3.99560608 1.76210446 7.42737323 1 12 C0.67 12 0.34 12 0 12 C-0.33 15.3 -0.66 18.6 -1 22 C-0.01 22 0.98 22 2 22 C2 22.66 2 23.32 2 24 C2.66 24.33 3.32 24.66 4 25 C2 27 0 29 -2 31 C-2.03758423 30.03175293 -2.03758423 30.03175293 -2.07592773 29.04394531 C-2.19214433 26.11244106 -2.31475442 23.18123783 -2.4375 20.25 C-2.47681641 19.23421875 -2.51613281 18.2184375 -2.55664062 17.171875 C-2.59853516 16.1921875 -2.64042969 15.2125 -2.68359375 14.203125 C-2.72025146 13.30239258 -2.75690918 12.40166016 -2.79467773 11.47363281 C-2.98332039 9.2009486 -3.43564242 7.20049041 -4 5 C-3.75 2.8125 -3.75 2.8125 -3 1 C-2.01 0.67 -1.02 0.34 0 0 Z " fill="#121112" transform="translate(104,116)"/>
<path d="M0 0 C0.02685412 2.31243792 0.04632841 4.6249627 0.0625 6.9375 C0.07410156 8.22527344 0.08570312 9.51304687 0.09765625 10.83984375 C0 14 0 14 -1 15 C-6.60813728 14.95277358 -11.13051244 13.87174908 -16 11 C-13.35261084 9.5393715 -12.10551666 9 -9 9 C-9 9.66 -9 10.32 -9 11 C-7.68 11.33 -6.36 11.66 -5 12 C-5 11.01 -5 10.02 -5 9 C-4.34 9 -3.68 9 -3 9 C-3.33 10.65 -3.66 12.3 -4 14 C-3.34 14 -2.68 14 -2 14 C-1.67 9.71 -1.34 5.42 -1 1 C-4.96 1 -8.92 1 -13 1 C-13 0.67 -13 0.34 -13 0 C-11.39679026 -0.19551338 -9.79237014 -0.38111983 -8.1875 -0.5625 C-7.29417969 -0.66691406 -6.40085937 -0.77132812 -5.48046875 -0.87890625 C-3 -1 -3 -1 0 0 Z " fill="#7A797A" transform="translate(71,133)"/>
<path d="M0 0 C1.87450885 5.62352656 2.38969615 13.49612157 0.17578125 19.078125 C-0.875 20.5625 -0.875 20.5625 -3 23 C-3.71573527 24.64619113 -4.4025696 26.30728055 -5 28 C-6.5 25 -6.5 25 -8 22 C-7.01 20.515 -7.01 20.515 -6 19 C-6.80161791 16.32854463 -6.80161791 16.32854463 -8 14 C-7.34 13.67 -6.68 13.34 -6 13 C-5.01 14.485 -5.01 14.485 -4 16 C-3.01 16 -2.02 16 -1 16 C-1.01160156 15.01257813 -1.02320313 14.02515625 -1.03515625 13.0078125 C-1.04417969 11.72648437 -1.05320312 10.44515625 -1.0625 9.125 C-1.07410156 7.84882812 -1.08570313 6.57265625 -1.09765625 5.2578125 C-1 2 -1 2 0 0 Z " fill="#343233" transform="translate(52,53)"/>
<path d="M0 0 C0.66 0.99 1.32 1.98 2 3 C1.125 5.5625 1.125 5.5625 0 8 C0 10.15634036 0.4465236 11.92446352 1 14 C-0.175625 14.4021875 -0.175625 14.4021875 -1.375 14.8125 C-4.28114923 15.84814432 -4.28114923 15.84814432 -6 19 C-6.66 19 -7.32 19 -8 19 C-7.46199791 14.01400883 -5.88255471 10.48164295 -3.4375 6.125 C-2.79683594 4.97257812 -2.15617187 3.82015625 -1.49609375 2.6328125 C-0.75552734 1.32957031 -0.75552734 1.32957031 0 0 Z " fill="#3C3C3C" transform="translate(33,54)"/>
<path d="M0 0 C0.33 0.66 0.66 1.32 1 2 C1.99 2.33 2.98 2.66 4 3 C0.79514913 6.20485087 -2.69679825 8.56559942 -7 10 C-7 10.66 -7 11.32 -7 12 C-6.34 12.33 -5.68 12.66 -5 13 C-5.66 13.66 -6.32 14.32 -7 15 C-9.125 14.625 -9.125 14.625 -11 14 C-10.34 13.01 -9.68 12.02 -9 11 C-9.30840599 8.84725052 -9.30840599 8.84725052 -10 7 C-3.25 3 -3.25 3 -1 3 C-0.67 2.01 -0.34 1.02 0 0 Z " fill="#151314" transform="translate(124,104)"/>
<path d="M0 0 C0.99 0.66 1.98 1.32 3 2 C2.67 2.66 2.34 3.32 2 4 C2.66 4 3.32 4 4 4 C4 5.32 4 6.64 4 8 C3.4225 8.226875 2.845 8.45375 2.25 8.6875 C-0.5663661 10.33038023 -2.08077114 12.39533227 -4 15 C-4.28875 14.360625 -4.5775 13.72125 -4.875 13.0625 C-5.82823451 10.84793921 -5.82823451 10.84793921 -8 10 C-7.34 9.01 -6.68 8.02 -6 7 C-4.68 7 -3.36 7 -2 7 C-1.34 4.69 -0.68 2.38 0 0 Z " fill="#141213" transform="translate(41,46)"/>
<path d="M0 0 C0.33 0.99 0.66 1.98 1 3 C3.31 3 5.62 3 8 3 C8.33 3.99 8.66 4.98 9 6 C8.21625 6.12375 7.4325 6.2475 6.625 6.375 C3.85942178 6.79117993 3.85942178 6.79117993 2 9 C2.33 7.68 2.66 6.36 3 5 C2.01 5.33 1.02 5.66 0 6 C0.33 7.65 0.66 9.3 1 11 C0.34 11 -0.32 11 -1 11 C-1.66 12.32 -2.32 13.64 -3 15 C-3 14.01 -3 13.02 -3 12 C-3.66 12 -4.32 12 -5 12 C-3.125 4.25 -3.125 4.25 -2 2 C-1.34 2 -0.68 2 0 2 C0 1.34 0 0.68 0 0 Z " fill="#110F10" transform="translate(36,106)"/>
<path d="M0 0 C3 1 3 1 4.25 2.875 C5 5 5 5 4 8 C3.01 8 2.02 8 1 8 C1.66 8.33 2.32 8.66 3 9 C2.67 9.66 2.34 10.32 2 11 C1.05125 10.814375 0.1025 10.62875 -0.875 10.4375 C-3.89868793 9.71313368 -3.89868793 9.71313368 -6 11 C-5.67 9.02 -5.34 7.04 -5 5 C-4.01 5 -3.02 5 -2 5 C-2 4.34 -2 3.68 -2 3 C-1.34 3 -0.68 3 0 3 C0 2.01 0 1.02 0 0 Z " fill="#3C3B3B" transform="translate(46,105)"/>
<path d="M0 0 C0.66 0.33 1.32 0.66 2 1 C1.34 1.66 0.68 2.32 0 3 C0 4.32 0 5.64 0 7 C-1.98 7.66 -3.96 8.32 -6 9 C-6 9.99 -6 10.98 -6 12 C-6.66 12 -7.32 12 -8 12 C-8 12.66 -8 13.32 -8 14 C-9.65 14.33 -11.3 14.66 -13 15 C-11.50403926 11.60502173 -9.5352395 9.12862797 -7.0625 6.375 C-6.37285156 5.59898438 -5.68320312 4.82296875 -4.97265625 4.0234375 C-3 2 -3 2 0 0 Z " fill="#525152" transform="translate(47,39)"/>
<path d="M0 0 C0.73605469 0.10892578 1.47210938 0.21785156 2.23046875 0.33007812 C4.03124472 0.59902519 5.82856516 0.8909389 7.625 1.1875 C7.625 1.5175 7.625 1.8475 7.625 2.1875 C6.47902344 2.24808594 5.33304688 2.30867188 4.15234375 2.37109375 C2.62238703 2.45556989 1.09243959 2.54021427 -0.4375 2.625 C-1.56575195 2.68397461 -1.56575195 2.68397461 -2.71679688 2.74414062 C-6.31746529 2.94677564 -9.74211381 3.24911096 -13.30859375 3.84765625 C-14.32050781 3.95980469 -15.33242187 4.07195313 -16.375 4.1875 C-17.035 3.5275 -17.695 2.8675 -18.375 2.1875 C-17.715 2.1875 -17.055 2.1875 -16.375 2.1875 C-16.375 1.5275 -16.375 0.8675 -16.375 0.1875 C-15.715 0.1875 -15.055 0.1875 -14.375 0.1875 C-14.375 0.8475 -14.375 1.5075 -14.375 2.1875 C-13.55773437 1.67574219 -12.74046875 1.16398437 -11.8984375 0.63671875 C-7.46572985 -1.18649027 -4.61719251 -0.78066456 0 0 Z " fill="#787778" transform="translate(86.375,55.8125)"/>
<path d="M0 0 C2.1875 0.3125 2.1875 0.3125 4 1 C2.515 2.485 2.515 2.485 1 4 C1.94875 3.835 2.8975 3.67 3.875 3.5 C7 3 7 3 9 3 C8.67 2.34 8.34 1.68 8 1 C9.65 1.33 11.3 1.66 13 2 C12 5 12 5 9 7 C3.73819436 7.70157408 1.14647225 6.15921695 -3 3 C-1.75 1.4375 -1.75 1.4375 0 0 Z " fill="#343334" transform="translate(50,136)"/>
<path d="M0 0 C0.33 0.66 0.66 1.32 1 2 C2.65 2 4.3 2 6 2 C8.09578262 5.48724486 8.44106017 8.59969574 8.75 12.625 C8.84796875 13.77226563 8.9459375 14.91953125 9.046875 16.1015625 C9 19 9 19 7 21 C6.0762537 17.88957302 5.9218997 15.17378111 6 11.9375 C6.0745131 8.84054943 5.99308002 6.97924005 5 4 C0.545 4.495 0.545 4.495 -4 5 C-3 2 -3 2 0 0 Z " fill="#838182" transform="translate(112,50)"/>
<path d="M0 0 C3.02788635 3.46044155 4.98556464 7.52249221 6 12 C5.578125 14.25 5.578125 14.25 5 16 C4.67 14.02 4.34 12.04 4 10 C1.03 9.505 1.03 9.505 -2 9 C-1.34 6.03 -0.68 3.06 0 0 Z " fill="#535152" transform="translate(140,59)"/>
<path d="M0 0 C0.99 0.99 1.98 1.98 3 3 C3 2.34 3 1.68 3 1 C4.32 0.67 5.64 0.34 7 0 C7.33 0.99 7.66 1.98 8 3 C8.99 3.66 9.98 4.32 11 5 C9.39125 4.938125 9.39125 4.938125 7.75 4.875 C4.34252515 4.9885825 2.79260369 5.21273364 0 7 C-1.32 6.01 -2.64 5.02 -4 4 C-2.68 3.67 -1.36 3.34 0 3 C0 2.01 0 1.02 0 0 Z " fill="#131112" transform="translate(65,49)"/>
<path d="M0 0 C0.66 0.33 1.32 0.66 2 1 C2 2.66666667 2 4.33333333 2 6 C2.66 6.33 3.32 6.66 4 7 C3.34 7 2.68 7 2 7 C1.67 8.32 1.34 9.64 1 11 C-0.65 11 -2.3 11 -4 11 C-2.125 5.25 -2.125 5.25 -1 3 C-1.66 2.67 -2.32 2.34 -3 2 C-2.01 1.34 -1.02 0.68 0 0 Z " fill="#1D1B1C" transform="translate(38,110)"/>
<path d="M0 0 C0.60328125 0.08378906 1.2065625 0.16757813 1.828125 0.25390625 C3.02695312 0.40666016 3.02695312 0.40666016 4.25 0.5625 C5.03890625 0.66691406 5.8278125 0.77132812 6.640625 0.87890625 C9.00532874 1.00027349 10.7511037 0.69633257 13 0 C13 1.32 13 2.64 13 4 C11.35 3.67 9.7 3.34 8 3 C8 3.66 8 4.32 8 5 C7.01 5 6.02 5 5 5 C5 4.01 5 3.02 5 2 C4.34 2 3.68 2 3 2 C3 2.66 3 3.32 3 4 C2.01 4 1.02 4 0 4 C0 2.68 0 1.36 0 0 Z " fill="#A09E9F" transform="translate(57,125)"/>
<path d="M0 0 C0.99 0.33 1.98 0.66 3 1 C3 1.99 3 2.98 3 4 C5.64 4 8.28 4 11 4 C11 4.99 11 5.98 11 7 C10.67 7 10.34 7 10 7 C9.67 7.66 9.34 8.32 9 9 C7.35 8.67 5.7 8.34 4 8 C4 7.34 4 6.68 4 6 C3.34 6 2.68 6 2 6 C1.34 4.02 0.68 2.04 0 0 Z " fill="#363435" transform="translate(30,117)"/>
<path d="M0 0 C4.17882671 2.56428003 7.12505529 5.01930733 10 9 C9.67 9.66 9.34 10.32 9 11 C7.35 10.67 5.7 10.34 4 10 C4 8.02 4 6.04 4 4 C3.01 4 2.02 4 1 4 C0.67 2.68 0.34 1.36 0 0 Z " fill="#434343" transform="translate(119,36)"/>
<path d="M0 0 C0.99 0 1.98 0 3 0 C3 1.32 3 2.64 3 4 C3.66 3.34 4.32 2.68 5 2 C5 5 5 5 3 8 C1.02 7.01 -0.96 6.02 -3 5 C-3 4.34 -3 3.68 -3 3 C-2.34 3 -1.68 3 -1 3 C-0.67 2.01 -0.34 1.02 0 0 Z " fill="#191718" transform="translate(59,113)"/>
<path d="M0 0 C1.90836661 5.72509984 2.35642082 13.58229339 0.10546875 19.25390625 C-1 20.875 -1 20.875 -3 23 C-4.04449911 19.86650268 -3.93423645 19.01031744 -3 16 C-2.34 16 -1.68 16 -1 16 C-1.01160156 15.01257813 -1.02320313 14.02515625 -1.03515625 13.0078125 C-1.04417969 11.72648437 -1.05320313 10.44515625 -1.0625 9.125 C-1.07410156 7.84882812 -1.08570313 6.57265625 -1.09765625 5.2578125 C-1 2 -1 2 0 0 Z " fill="#939393" transform="translate(52,53)"/>
<path d="M0 0 C4.05606165 0.46800711 7.46588679 0.87953208 11 3 C10.34 4.32 9.68 5.64 9 7 C8.01 7 7.02 7 6 7 C3.84971696 7.94978897 3.84971696 7.94978897 2 9 C2 7.68 2 6.36 2 5 C3.32 4.34 4.64 3.68 6 3 C4.02 2.34 2.04 1.68 0 1 C0 0.67 0 0.34 0 0 Z " fill="#5B5A5B" transform="translate(99,28)"/>
<path d="M0 0 C5.94 0.99 5.94 0.99 12 2 C11.67 3.32 11.34 4.64 11 6 C11 5.01 11 4.02 11 3 C6.78087253 3.4794463 4.20336822 4.16625119 1 7 C1 6.01 1 5.02 1 4 C0.01 4.495 0.01 4.495 -1 5 C-0.67 3.35 -0.34 1.7 0 0 Z " fill="#716F70" transform="translate(62,113)"/>
<path d="M0 0 C-3 2 -3 2 -6 2 C-6.33 3.65 -6.66 5.3 -7 7 C-10 3.375 -10 3.375 -10 0 C-6.33694766 -0.74926071 -3.57644848 -1.2380014 0 0 Z " fill="#5C5C5C" transform="translate(107,115)"/>
<path d="M0 0 C5.625 -0.25 5.625 -0.25 9 2 C2.10284464 6.07877462 2.10284464 6.07877462 -2.5 5.75 C-3.325 5.5025 -4.15 5.255 -5 5 C-5 4.67 -5 4.34 -5 4 C-3.02 3.67 -1.04 3.34 1 3 C0.67 2.01 0.34 1.02 0 0 Z " fill="#676666" transform="translate(99,54)"/>
<path d="M0 0 C-0.33 1.32 -0.66 2.64 -1 4 C-0.34 4.33 0.32 4.66 1 5 C-2.62326739 6.2077558 -3.64146369 5.54311128 -7 4 C-7 3.01 -7 2.02 -7 1 C-4.53721199 -0.231394 -2.7204945 -0.07159196 0 0 Z " fill="#151414" transform="translate(116,137)"/>
<path d="M0 0 C0.33 0.66 0.66 1.32 1 2 C1.99 1.67 2.98 1.34 4 1 C4.625 3.8125 4.625 3.8125 5 7 C4.01 8.485 4.01 8.485 3 10 C0.96564469 6.27034861 0 4.33094958 0 0 Z " fill="#484748" transform="translate(26,107)"/>
<path d="M0 0 C0.94875 0.350625 1.8975 0.70125 2.875 1.0625 C2.545 2.3825 2.215 3.7025 1.875 5.0625 C0.555 5.3925 -0.765 5.7225 -2.125 6.0625 C-2.455 5.0725 -2.785 4.0825 -3.125 3.0625 C-2.795 2.7325 -2.465 2.4025 -2.125 2.0625 C-3.115 2.0625 -4.105 2.0625 -5.125 2.0625 C-5.125 1.4025 -5.125 0.7425 -5.125 0.0625 C-3.125 -0.9375 -3.125 -0.9375 0 0 Z " fill="#888485" transform="translate(52.125,116.9375)"/>
<path d="M0 0 C1.39195915 4.17587745 -0.17676781 6.13474776 -2 10 C-3.41377341 7.36095629 -4.37240135 4.92879371 -5 2 C-3.35 1.34 -1.7 0.68 0 0 Z " fill="#524F51" transform="translate(144,107)"/>
<path d="M0 0 C0.99 0.33 1.98 0.66 3 1 C3 1.66 3 2.32 3 3 C3.99 3.33 4.98 3.66 6 4 C7.1875 7.5625 7.1875 7.5625 8 11 C7.195625 10.34 6.39125 9.68 5.5625 9 C3.41038085 6.89745486 3.41038085 6.89745486 2 7 C2 5.35 2 3.7 2 2 C1.34 2 0.68 2 0 2 C0 1.34 0 0.68 0 0 Z " fill="#7B797A" transform="translate(42,116)"/>
<path d="M0 0 C0.33 0.66 0.66 1.32 1 2 C0.01 2.495 0.01 2.495 -1 3 C-0.67 4.65 -0.34 6.3 0 8 C-1.32 7.67 -2.64 7.34 -4 7 C-4 6.34 -4 5.68 -4 5 C-5.65 5.33 -7.3 5.66 -9 6 C-7.71502463 3.43004926 -6.50087627 3.09565537 -3.9375 1.875 C-3.20402344 1.52179688 -2.47054687 1.16859375 -1.71484375 0.8046875 C-1.14894531 0.53914063 -0.58304688 0.27359375 0 0 Z " fill="#686767" transform="translate(116,108)"/>
<path d="M0 0 C0.66 0 1.32 0 2 0 C2 0.66 2 1.32 2 2 C2.99 2.33 3.98 2.66 5 3 C4.67 7.95 4.34 12.9 4 18 C3.67 18 3.34 18 3 18 C2.86722656 16.95199219 2.73445313 15.90398437 2.59765625 14.82421875 C2.41942765 13.44529222 2.24103359 12.06638707 2.0625 10.6875 C1.97548828 9.99720703 1.88847656 9.30691406 1.79882812 8.59570312 C1.40789865 5.59857712 0.9584996 2.87549881 0 0 Z " fill="#808080" transform="translate(121,73)"/>
<path d="M0 0 C0.1875 2.375 0.1875 2.375 0 5 C-3 7 -3 7 -6 7 C-3.60526316 0 -3.60526316 0 0 0 Z " fill="#3F3E3E" transform="translate(123,102)"/>
<path d="M0 0 C1.48828125 1.08203125 1.48828125 1.08203125 3 3 C3.29296875 6.13671875 3.29296875 6.13671875 3.1875 9.6875 C3.14689453 11.45673828 3.14689453 11.45673828 3.10546875 13.26171875 C3.07066406 14.16535156 3.03585938 15.06898437 3 16 C2.67 16 2.34 16 2 16 C1.92652344 15.07767578 1.92652344 15.07767578 1.8515625 14.13671875 C1.77679688 13.32847656 1.70203125 12.52023438 1.625 11.6875 C1.55539063 10.88699219 1.48578125 10.08648437 1.4140625 9.26171875 C1.10435574 6.72775559 1.10435574 6.72775559 -1 4 C-0.625 1.8125 -0.625 1.8125 0 0 Z " fill="#252324" transform="translate(43,77)"/>
<path d="M0 0 C3.71368887 1.23789629 4.77354181 2.85224877 7 6 C7 6.66 7 7.32 7 8 C4.24542282 7.62005832 3.17979426 7.1926367 1.25 5.125 C0 3 0 3 0 0 Z " fill="#4D4C4D" transform="translate(129,45)"/>
<path d="M0 0 C0.99 0.33 1.98 0.66 3 1 C3 1.99 3 2.98 3 4 C1.63875 3.938125 1.63875 3.938125 0.25 3.875 C-2.8782046 3.99531556 -4.38614006 4.3914708 -7 6 C-2.25 1.125 -2.25 1.125 0 0 Z " fill="#5B5758" transform="translate(56,33)"/>
<path d="M0 0 C2.64 1.65 5.28 3.3 8 5 C6.02 5.99 6.02 5.99 4 7 C4 6.34 4 5.68 4 5 C2.35 5.33 0.7 5.66 -1 6 C-0.67 4.02 -0.34 2.04 0 0 Z " fill="#6D6C6C" transform="translate(50,127)"/>
<path d="M0 0 C0 0.66 0 1.32 0 2 C0.66 2.33 1.32 2.66 2 3 C1.67 3.66 1.34 4.32 1 5 C-4.75 3.25 -4.75 3.25 -7 1 C-4.50935112 0.31292445 -2.62113708 0 0 0 Z " fill="#464646" transform="translate(62,142)"/>
<path d="M0 0 C2.97 0.495 2.97 0.495 6 1 C5.42655063 3.86724686 5.1385485 4.8614515 3 7 C3 6.34 3 5.68 3 5 C2.34 5 1.68 5 1 5 C0.67 3.35 0.34 1.7 0 0 Z M3 1 C4 3 4 3 4 3 Z " fill="#131112" transform="translate(138,68)"/>
<path d="M0 0 C-0.66 0 -1.32 0 -2 0 C-2.66 1.32 -3.32 2.64 -4 4 C-6.97 3.505 -6.97 3.505 -10 3 C-4.37755102 -1.45918367 -4.37755102 -1.45918367 0 0 Z " fill="#706D6F" transform="translate(68,30)"/>
<path d="M0 0 C0.66 1.98 1.32 3.96 2 6 C1.34 6.66 0.68 7.32 0 8 C0 7.01 0 6.02 0 5 C-0.66 5 -1.32 5 -2 5 C-2 4.34 -2 3.68 -2 3 C-3.32 3.33 -4.64 3.66 -6 4 C-6 3.34 -6 2.68 -6 2 C-2.25 0 -2.25 0 0 0 Z " fill="#131212" transform="translate(129,45)"/>
<path d="M0 0 C1.32 0.66 2.64 1.32 4 2 C1.64031256 4.09749995 0.45383006 4.96905704 -2.75 5.1875 C-3.86375 5.0946875 -3.86375 5.0946875 -5 5 C-3.35 3.35 -1.7 1.7 0 0 Z " fill="#110F10" transform="translate(53,36)"/>
<path d="M0 0 C3.68754757 0.49831724 5.60490662 1.10067643 8 4 C6.02 4.66 4.04 5.32 2 6 C2 5.01 2 4.02 2 3 C1.34 2.01 0.68 1.02 0 0 Z " fill="#626162" transform="translate(110,32)"/>
<path d="M0 0 C1.65 0.33 3.3 0.66 5 1 C5.33 2.32 5.66 3.64 6 5 C3.36 4.67 0.72 4.34 -2 4 C-0.68 3.34 0.64 2.68 2 2 C1.34 1.34 0.68 0.68 0 0 Z M-4 4 C-2 5 -2 5 -2 5 Z " fill="#110F10" transform="translate(92,28)"/>
<path d="M0 0 C2.31 0.66 4.62 1.32 7 2 C6.01 2.495 6.01 2.495 5 3 C5.66 4.65 6.32 6.3 7 8 C4.35247996 5.42215154 2.05567935 3.08351902 0 0 Z " fill="#686768" transform="translate(35,126)"/>
<path d="M0 0 C3.465 1.485 3.465 1.485 7 3 C6.67 3.66 6.34 4.32 6 5 C4 5 2 5 0 5 C0 3.35 0 1.7 0 0 Z " fill="#282A29" transform="translate(131,51)"/>
<path d="M0 0 C0.33 0.66 0.66 1.32 1 2 C1.99 2.33 2.98 2.66 4 3 C-0.625 5.125 -0.625 5.125 -4 4 C-2.68 2.68 -1.36 1.36 0 0 Z " fill="#4E4C4D" transform="translate(112,50)"/>
<path d="M0 0 C2.0625 0.4375 2.0625 0.4375 4 1 C3.01 1.495 3.01 1.495 2 2 C2 2.66 2 3.32 2 4 C0.35 4.33 -1.3 4.66 -3 5 C-1.125 1.125 -1.125 1.125 0 0 Z " fill="#424041" transform="translate(37,49)"/>
<path d="M0 0 C4.75 0.75 4.75 0.75 7 3 C5.02 3.66 3.04 4.32 1 5 C1.33 3.68 1.66 2.36 2 1 C1.34 0.67 0.68 0.34 0 0 Z " fill="#474747" transform="translate(109,141)"/>
<path d="M0 0 C2.64 0.33 5.28 0.66 8 1 C7.34 1.66 6.68 2.32 6 3 C5.01 3 4.02 3 3 3 C3 2.34 3 1.68 3 1 C2.34 1 1.68 1 1 1 C1 1.66 1 2.32 1 3 C0.34 3 -0.32 3 -1 3 C-0.67 2.01 -0.34 1.02 0 0 Z " fill="#121011" transform="translate(69,55)"/>
</svg>
