<?xml version="1.0" encoding="UTF-8"?>
<svg version="1.1" xmlns="http://www.w3.org/2000/svg" width="600" height="600">
<path d="M0 0 C2.63821594 2.33930712 3.9374201 4.63169108 5.3828125 7.83203125 C5.82278564 8.78851563 6.26275879 9.745 6.71606445 10.73046875 C7.18101318 11.74753906 7.64596191 12.76460937 8.125 13.8125 C17.57983548 33.90655115 30.02209525 48.11582097 45.62890625 63.609375 C48.93219425 66.93987295 52.00132673 70.39452251 55 74 C55.45068848 74.53689453 55.90137695 75.07378906 56.36572266 75.62695312 C97.71459684 125.01845406 126.84164462 189.52370305 133 254 C133.0928125 254.96236572 133.185625 255.92473145 133.28125 256.91625977 C134.06742698 265.96220868 134.24288919 274.98899076 134.25 284.0625 C134.25067474 284.84557526 134.25134949 285.62865051 134.25204468 286.43545532 C134.19084623 331.59362111 124.04535085 376.05792916 102.98242188 416.12060547 C102.01640975 417.9686078 101.07652869 419.82800816 100.140625 421.69140625 C85.6814045 450.10125038 61.06475653 486.16853921 32.6796875 502.3203125 C28.97244023 504.4954133 27.30309502 506.11101859 25.88476562 510.27099609 C25.56499912 511.58087172 25.26051237 512.8945411 24.96875 514.2109375 C24.80270767 514.91782211 24.63666534 515.62470673 24.46559143 516.35301208 C22.73038847 523.87955196 21.29166404 531.4596031 19.9375 539.0625 C19.80993317 539.76779846 19.68236633 540.47309692 19.55093384 541.19976807 C17.40003966 553.10991077 15.63498043 565.04098846 14.29370117 577.07177734 C14 579 14 579 13 582 C8.71 582 4.42 582 0 582 C-0.17128418 580.44273193 -0.34256836 578.88546387 -0.51904297 577.28100586 C-1.16217391 571.43804132 -1.80757169 565.59532892 -2.45361328 559.75268555 C-2.73156418 557.23615097 -3.00892108 554.7195507 -3.28564453 552.20288086 C-3.9429809 546.22634067 -4.60886819 540.2511405 -5.29711914 534.27807617 C-5.72439565 530.55662109 -6.11227533 526.83987082 -6.41967773 523.10668945 C-6.89950992 515.64119732 -6.89950992 515.64119732 -10.80078125 509.55078125 C-12.48542834 508.35610177 -12.48542834 508.35610177 -14.3125 507.3125 C-15.59993452 506.42836816 -16.88371494 505.53889522 -18.1640625 504.64453125 C-18.81149414 504.20834473 -19.45892578 503.7721582 -20.12597656 503.32275391 C-23.02882109 501.27382065 -25.60340578 498.93194235 -28.1875 496.5 C-28.70062744 496.01966309 -29.21375488 495.53932617 -29.74243164 495.04443359 C-53.38332013 472.68286766 -53.38332013 472.68286766 -63 460 C-64.00896317 458.71760508 -65.01951305 457.43645769 -66.03125 456.15625 C-88.02372208 428.13153842 -105.12233917 396.95170285 -116 363 C-116.23557617 362.27506348 -116.47115234 361.55012695 -116.71386719 360.80322266 C-134.64489731 305.0789015 -130.19724383 243.8482304 -115 188 C-114.74524902 187.05431152 -114.49049805 186.10862305 -114.22802734 185.13427734 C-99.13086935 130.05568025 -69.20669841 83.25874373 -29.25 43.125 C-28.3626416 42.23288818 -27.4752832 41.34077637 -26.56103516 40.42163086 C-22.0579546 35.92993236 -17.5040494 31.57132069 -12.65820312 27.44995117 C-4.30098857 20.14231024 -1.71442538 10.60236749 0 0 Z " fill="#10A950" transform="translate(297,9)"/>
<path d="M0 0 C1.69566305 2.54349458 2.99980365 4.94110088 4.3203125 7.68359375 C14.61054806 28.83543643 27.02309803 44.12407337 43.62890625 60.609375 C46.93219425 63.93987295 50.00132673 67.39452251 53 71 C53.45068848 71.53689453 53.90137695 72.07378906 54.36572266 72.62695312 C95.71459684 122.01845406 124.84164462 186.52370305 131 251 C131.0928125 251.96236572 131.185625 252.92473145 131.28125 253.91625977 C132.06742698 262.96220868 132.24288919 271.98899076 132.25 281.0625 C132.25067474 281.84557526 132.25134949 282.62865051 132.25204468 283.43545532 C132.19084623 328.59362111 122.04535085 373.05792916 100.98242188 413.12060547 C100.01640975 414.9686078 99.07652869 416.82800816 98.140625 418.69140625 C82.78318583 448.86609326 59.74671956 477.21088309 33 498 C32.23429687 498.63292969 31.46859375 499.26585937 30.6796875 499.91796875 C29.98101562 500.48128906 29.28234375 501.04460937 28.5625 501.625 C27.96566406 502.11226562 27.36882812 502.59953125 26.75390625 503.1015625 C25 504 25 504 22.93359375 503.78515625 C16.97489005 501.36556142 13.17612739 494.57215394 10.62109375 488.984375 C4.76484469 472.98115974 2.79840125 455.92805843 2.8125 438.9375 C2.81258057 437.97344238 2.81266113 437.00938477 2.81274414 436.01611328 C2.88816284 425.81474134 3.51487968 415.64759587 4.20043945 405.47241211 C5.75865759 382.13978604 6.17210105 358.77706515 6.12109375 335.3984375 C6.11903996 333.38275779 6.11698667 331.36707808 6.11495465 329.35139835 C6.06665478 289.39209558 5.5888023 249.43374364 5.16577852 209.47708201 C5.08465763 201.79268834 5.00647188 194.10826872 4.92993164 186.42382812 C5.03088583 106.55055663 5.03088583 106.55055663 1.4375 26.8125 C1.22705387 24.0108597 1.02043122 21.20896875 0.81568909 18.40690613 C0.69182353 16.72814081 0.5642511 15.04964187 0.43174744 13.37153625 C0.0877053 8.89795214 -0.05900534 4.48700343 0 0 Z " fill="#12924F" transform="translate(299,12)"/>
<path d="M0 0 C0.33 0 0.66 0 1 0 C1.07516846 0.78012451 1.15033691 1.56024902 1.2277832 2.36401367 C1.58057806 5.97276107 1.94647619 9.58007129 2.3125 13.1875 C2.43044922 14.41404297 2.54839844 15.64058594 2.66992188 16.90429688 C3.78536216 27.74408834 5.77503058 38.22106943 9.4375 48.5 C10.02337891 50.18609375 10.02337891 50.18609375 10.62109375 51.90625 C12.03804166 55.08535126 13.7904358 57.33538755 16 60 C16 60.66 16 61.32 16 62 C16.61875 62.309375 17.2375 62.61875 17.875 62.9375 C19.25 63.625 20.625 64.3125 22 65 C21.87471924 65.6305127 21.74943848 66.26102539 21.62036133 66.91064453 C17.20809578 89.22210072 12.83187493 111.63834437 10.359375 134.26171875 C10 137 10 137 9 140 C4.71 140 0.42 140 -4 140 C-4.26478149 137.60911133 -4.26478149 137.60911133 -4.53491211 135.16992188 C-5.19222681 129.23594013 -5.85027684 123.30204012 -6.50854492 117.36816406 C-6.7929242 114.80373306 -7.07710613 112.23928017 -7.36108398 109.67480469 C-7.7701467 105.9810615 -8.17992746 102.28739855 -8.58984375 98.59375 C-8.71592514 97.4538562 -8.84200653 96.3139624 -8.97190857 95.13952637 C-9.47784357 90.58579304 -9.98703477 86.03463894 -10.57519531 81.49072266 C-11.51163676 73.79575726 -10.90111976 67.52890518 -8.6875 60.125 C-3.22722041 40.47106321 -1.81272194 20.24691895 0 0 Z " fill="#B6C3C1" transform="translate(301,451)"/>
<path d="M0 0 C0.33 0 0.66 0 1 0 C1.33 4.62 1.66 9.24 2 14 C1.01 14 0.02 14 -1 14 C-0.67 9.38 -0.34 4.76 0 0 Z " fill="#9DBEAF" transform="translate(301,451)"/>
</svg>
