<?xml version="1.0" encoding="UTF-8"?>
<svg version="1.1" xmlns="http://www.w3.org/2000/svg" width="443" height="360">
<path d="M0 0 C0.763125 0.42539063 1.52625 0.85078125 2.3125 1.2890625 C3.64402911 1.95932547 4.97670215 2.62734782 6.3125 3.2890625 C6.3125 3.9490625 6.3125 4.6090625 6.3125 5.2890625 C6.86421875 5.5159375 7.4159375 5.7428125 7.984375 5.9765625 C10.99942417 7.67632176 13.12480369 9.83711066 15.5625 12.2890625 C16.45453125 13.1759375 17.3465625 14.0628125 18.265625 14.9765625 C20.3125 17.2890625 20.3125 17.2890625 20.3125 19.2890625 C20.9725 19.2890625 21.6325 19.2890625 22.3125 19.2890625 C27.3125 24.76525298 27.3125 24.76525298 27.3125 27.2890625 C27.9725 27.2890625 28.6325 27.2890625 29.3125 27.2890625 C29.3125 27.9490625 29.3125 28.6090625 29.3125 29.2890625 C30.20195312 29.67384766 30.20195312 29.67384766 31.109375 30.06640625 C33.52186364 31.4052519 34.803906 32.73868865 36.5625 34.8515625 C39.88472207 38.79354834 43.32217945 42.60890312 46.80859375 46.40625 C48.3125 48.2890625 48.3125 48.2890625 48.3125 50.2890625 C49.7975 50.7840625 49.7975 50.7840625 51.3125 51.2890625 C51.3125 51.9490625 51.3125 52.6090625 51.3125 53.2890625 C51.9725 53.2890625 52.6325 53.2890625 53.3125 53.2890625 C53.3125 53.9490625 53.3125 54.6090625 53.3125 55.2890625 C53.9725 55.2890625 54.6325 55.2890625 55.3125 55.2890625 C56.7578125 56.72265625 56.7578125 56.72265625 58.4375 58.7265625 C61.80628571 62.70527573 65.2828982 66.5661186 68.80859375 70.40625 C70.3125 72.2890625 70.3125 72.2890625 70.3125 74.2890625 C70.9725 74.2890625 71.6325 74.2890625 72.3125 74.2890625 C72.3125 74.9490625 72.3125 75.6090625 72.3125 76.2890625 C72.9725 76.2890625 73.6325 76.2890625 74.3125 76.2890625 C76.0390625 77.96875 76.0390625 77.96875 77.9375 80.1640625 C78.56914062 80.88335937 79.20078125 81.60265625 79.8515625 82.34375 C81.3125 84.2890625 81.3125 84.2890625 81.3125 86.2890625 C82.3025 86.6190625 83.2925 86.9490625 84.3125 87.2890625 C84.3125 90.2890625 84.3125 90.2890625 82.9375 91.9765625 C81.3125 93.2890625 81.3125 93.2890625 79.3125 93.2890625 C79.04896729 93.87478027 78.78543457 94.46049805 78.51391602 95.06396484 C77.26147158 97.38357032 75.90933426 98.99110881 74.08984375 100.890625 C73.15881836 101.87289062 73.15881836 101.87289062 72.20898438 102.875 C71.23928711 103.88433594 71.23928711 103.88433594 70.25 104.9140625 C68.96541865 106.25848064 67.68276898 107.60474797 66.40234375 108.953125 C65.83378662 109.54561035 65.26522949 110.1380957 64.67944336 110.74853516 C63.21866037 112.26080229 63.21866037 112.26080229 62.3125 114.2890625 C61.6525 114.2890625 60.9925 114.2890625 60.3125 114.2890625 C60.3125 114.9490625 60.3125 115.6090625 60.3125 116.2890625 C59.6525 116.2890625 58.9925 116.2890625 58.3125 116.2890625 C58.085625 116.8253125 57.85875 117.3615625 57.625 117.9140625 C55.85679911 121.11366411 53.77579797 123.57943473 51.3125 126.2890625 C50.6525 126.2890625 49.9925 126.2890625 49.3125 126.2890625 C49.03994385 126.88380371 48.7673877 127.47854492 48.48657227 128.09130859 C47.34449951 130.22916239 46.18957268 131.70518007 44.52734375 133.453125 C43.99689453 134.01773438 43.46644531 134.58234375 42.91992188 135.1640625 C42.36884766 135.7415625 41.81777344 136.3190625 41.25 136.9140625 C37.34679271 140.78232559 37.34679271 140.78232559 34.3125 145.2890625 C33.6525 145.2890625 32.9925 145.2890625 32.3125 145.2890625 C32.3125 145.9490625 32.3125 146.6090625 32.3125 147.2890625 C31.1734601 148.48132856 30.02539413 149.66611201 28.83642578 150.80859375 C26.03340714 153.53168011 23.40833165 156.42577317 20.75 159.2890625 C20.18603516 159.89234375 19.62207031 160.495625 19.04101562 161.1171875 C16.63161251 163.70976162 14.30897357 166.29350018 12.10546875 169.06640625 C6.12696659 176.47766492 -3.4530324 180.11043776 -12.6875 181.2890625 C-27.58784441 181.98700892 -38.9966712 179.83259621 -50.6875 170.2890625 C-51.58984375 168.359375 -51.58984375 168.359375 -51.6875 166.2890625 C-50.2890625 164.4375 -50.2890625 164.4375 -48.3125 162.6640625 C-45.61385145 160.27128591 -45.61385145 160.27128591 -43.6875 157.2890625 C-43.0275 157.2890625 -42.3675 157.2890625 -41.6875 157.2890625 C-41.3575 156.2990625 -41.0275 155.3090625 -40.6875 154.2890625 C-40.0275 154.2890625 -39.3675 154.2890625 -38.6875 154.2890625 C-38.41873047 153.69810791 -38.14996094 153.10715332 -37.87304688 152.49829102 C-36.68455118 150.28356746 -35.44773243 148.75347173 -33.71875 146.94140625 C-33.14769531 146.33619141 -32.57664062 145.73097656 -31.98828125 145.10742188 C-31.39402344 144.48673828 -30.79976562 143.86605469 -30.1875 143.2265625 C-29.00851817 141.98748073 -27.83136127 140.74665936 -26.65625 139.50390625 C-26.13482422 138.95855225 -25.61339844 138.41319824 -25.07617188 137.85131836 C-23.48150866 136.12978786 -23.48150866 136.12978786 -21.6875 133.2890625 C-21.0275 133.2890625 -20.3675 133.2890625 -19.6875 133.2890625 C-19.6875 132.6290625 -19.6875 131.9690625 -19.6875 131.2890625 C-19.0275 131.2890625 -18.3675 131.2890625 -17.6875 131.2890625 C-17.41494385 130.69432129 -17.1423877 130.09958008 -16.86157227 129.48681641 C-15.71949951 127.34896261 -14.56457268 125.87294493 -12.90234375 124.125 C-12.37189453 123.56039062 -11.84144531 122.99578125 -11.29492188 122.4140625 C-10.74384766 121.8365625 -10.19277344 121.2590625 -9.625 120.6640625 C-5.72179271 116.79579941 -5.72179271 116.79579941 -2.6875 112.2890625 C-2.0275 112.2890625 -1.3675 112.2890625 -0.6875 112.2890625 C-0.460625 111.7528125 -0.23375 111.2165625 0 110.6640625 C1.76820089 107.46446089 3.84920203 104.99869027 6.3125 102.2890625 C6.9725 102.2890625 7.6325 102.2890625 8.3125 102.2890625 C8.3125 101.6290625 8.3125 100.9690625 8.3125 100.2890625 C8.9725 100.2890625 9.6325 100.2890625 10.3125 100.2890625 C10.57804687 99.70640625 10.84359375 99.12375 11.1171875 98.5234375 C12.34552996 96.22732022 13.71564939 94.48550232 15.4375 92.5390625 C15.97632813 91.92546875 16.51515625 91.311875 17.0703125 90.6796875 C17.48023438 90.22078125 17.89015625 89.761875 18.3125 89.2890625 C16.98178018 86.35089089 15.51084693 84.22195188 13.2734375 81.90625 C12.40332031 80.99166016 12.40332031 80.99166016 11.515625 80.05859375 C10.2892043 78.78762358 9.06264002 77.51679193 7.8359375 76.24609375 C7.2584375 75.63894531 6.6809375 75.03179687 6.0859375 74.40625 C5.55403809 73.85565918 5.02213867 73.30506836 4.47412109 72.73779297 C3.3125 71.2890625 3.3125 71.2890625 3.3125 69.2890625 C2.6525 69.2890625 1.9925 69.2890625 1.3125 69.2890625 C1.3125 68.6290625 1.3125 67.9690625 1.3125 67.2890625 C0.6525 67.2890625 -0.0075 67.2890625 -0.6875 67.2890625 C-2.4140625 65.609375 -2.4140625 65.609375 -4.3125 63.4140625 C-4.94414063 62.69476563 -5.57578125 61.97546875 -6.2265625 61.234375 C-7.6875 59.2890625 -7.6875 59.2890625 -7.6875 57.2890625 C-8.3475 57.2890625 -9.0075 57.2890625 -9.6875 57.2890625 C-11.1328125 55.85546875 -11.1328125 55.85546875 -12.8125 53.8515625 C-16.18128571 49.87284927 -19.6578982 46.0120064 -23.18359375 42.171875 C-24.6875 40.2890625 -24.6875 40.2890625 -24.6875 38.2890625 C-25.3475 38.2890625 -26.0075 38.2890625 -26.6875 38.2890625 C-26.6875 37.6290625 -26.6875 36.9690625 -26.6875 36.2890625 C-28.1725 35.7940625 -28.1725 35.7940625 -29.6875 35.2890625 C-31.1953125 33.79296875 -31.1953125 33.79296875 -32.8125 31.8515625 C-36.41442425 27.58632886 -40.16926816 23.48401704 -43.96484375 19.390625 C-45.6875 17.2890625 -45.6875 17.2890625 -45.6875 15.2890625 C-46.6775 14.9590625 -47.6675 14.6290625 -48.6875 14.2890625 C-48.6875 13.6290625 -48.6875 12.9690625 -48.6875 12.2890625 C-49.3475 12.2890625 -50.0075 12.2890625 -50.6875 12.2890625 C-51.0175 10.9690625 -51.3475 9.6490625 -51.6875 8.2890625 C-37.38144801 -4.01275998 -17.51851049 -8.70832934 0 0 Z " fill="#E56F00" transform="translate(127.6875,95.7109375)"/>
<path d="M0 0 C0.86496094 -0.020625 1.72992188 -0.04125 2.62109375 -0.0625 C11.22405245 -0.11409196 18.0618827 2.01672932 25.3125 6.6875 C26.22902344 7.26371094 27.14554688 7.83992188 28.08984375 8.43359375 C30.40802439 10.27625016 31.46127194 11.45134865 32.375 14.25 C32.045 14.91 31.715 15.57 31.375 16.25 C30.715 16.25 30.055 16.25 29.375 16.25 C29.045 17.24 28.715 18.23 28.375 19.25 C27.715 19.25 27.055 19.25 26.375 19.25 C25.9718457 20.13643188 25.9718457 20.13643188 25.56054688 21.04077148 C24.37205118 23.25549504 23.13523243 24.78559077 21.40625 26.59765625 C20.83519531 27.20287109 20.26414062 27.80808594 19.67578125 28.43164062 C19.08152344 29.05232422 18.48726563 29.67300781 17.875 30.3125 C16.69601817 31.55158177 15.51886127 32.79240314 14.34375 34.03515625 C13.82232422 34.58051025 13.30089844 35.12586426 12.76367188 35.68774414 C11.16900866 37.40927464 11.16900866 37.40927464 9.375 40.25 C8.715 40.25 8.055 40.25 7.375 40.25 C7.375 40.91 7.375 41.57 7.375 42.25 C6.715 42.25 6.055 42.25 5.375 42.25 C4.96616577 43.14211182 4.96616577 43.14211182 4.54907227 44.05224609 C3.40699951 46.19009989 2.25207268 47.66611757 0.58984375 49.4140625 C0.05939453 49.97867188 -0.47105469 50.54328125 -1.01757812 51.125 C-1.84418945 51.99125 -1.84418945 51.99125 -2.6875 52.875 C-6.59070729 56.74326309 -6.59070729 56.74326309 -9.625 61.25 C-10.285 61.25 -10.945 61.25 -11.625 61.25 C-11.851875 61.78625 -12.07875 62.3225 -12.3125 62.875 C-14.08070089 66.07460161 -16.16170203 68.54037223 -18.625 71.25 C-19.285 71.25 -19.945 71.25 -20.625 71.25 C-20.625 71.91 -20.625 72.57 -20.625 73.25 C-21.285 73.25 -21.945 73.25 -22.625 73.25 C-22.89231934 73.8387793 -23.15963867 74.42755859 -23.43505859 75.03417969 C-24.64142087 77.28057772 -25.9184065 78.85478336 -27.6640625 80.703125 C-28.24414062 81.321875 -28.82421875 81.940625 -29.421875 82.578125 C-30.02515625 83.21234375 -30.6284375 83.8465625 -31.25 84.5 C-31.86101562 85.1496875 -32.47203125 85.799375 -33.1015625 86.46875 C-34.60528074 88.06645063 -36.11315737 89.65999149 -37.625 91.25 C-36.40740943 94.73136332 -35.24052012 96.96838405 -32.5 99.4375 C-30.8671875 100.91796875 -30.8671875 100.91796875 -29.625 102.25 C-29.625 102.91 -29.625 103.57 -29.625 104.25 C-28.965 104.25 -28.305 104.25 -27.625 104.25 C-27.625 104.91 -27.625 105.57 -27.625 106.25 C-26.965 106.25 -26.305 106.25 -25.625 106.25 C-23.8984375 107.9296875 -23.8984375 107.9296875 -22 110.125 C-21.36835938 110.84429687 -20.73671875 111.56359375 -20.0859375 112.3046875 C-18.625 114.25 -18.625 114.25 -18.625 116.25 C-17.965 116.25 -17.305 116.25 -16.625 116.25 C-15.1796875 117.68359375 -15.1796875 117.68359375 -13.5 119.6875 C-10.13121429 123.66621323 -6.6546018 127.5270561 -3.12890625 131.3671875 C-1.625 133.25 -1.625 133.25 -1.625 135.25 C-0.965 135.25 -0.305 135.25 0.375 135.25 C0.375 135.91 0.375 136.57 0.375 137.25 C1.365 137.58 2.355 137.91 3.375 138.25 C4.8828125 139.74609375 4.8828125 139.74609375 6.5 141.6875 C10.10192425 145.95273364 13.85676816 150.05504546 17.65234375 154.1484375 C19.375 156.25 19.375 156.25 19.375 158.25 C20.365 158.58 21.355 158.91 22.375 159.25 C22.375 159.91 22.375 160.57 22.375 161.25 C23.035 161.25 23.695 161.25 24.375 161.25 C26.06640625 162.89453125 26.06640625 162.89453125 27.9375 165.0625 C28.55753906 165.77019531 29.17757812 166.47789062 29.81640625 167.20703125 C31.375 169.25 31.375 169.25 32.375 172.25 C24.84761837 180.48307366 16.09742717 184.79470951 4.9296875 185.453125 C-8.47713328 185.62391253 -18.92302798 183.71242196 -29.625 175.25 C-31.45326084 173.46489554 -33.0631338 171.62421507 -34.66796875 169.63671875 C-37.27921578 166.45214403 -40.07332973 163.45442616 -42.875 160.4375 C-43.65508423 159.59227783 -43.65508423 159.59227783 -44.45092773 158.72998047 C-46.42034635 156.60020451 -48.37801152 154.48401639 -50.484375 152.48828125 C-51.625 151.25 -51.625 151.25 -51.625 149.25 C-52.285 149.25 -52.945 149.25 -53.625 149.25 C-55.10016321 147.59191655 -56.505713 145.87153953 -57.875 144.125 C-60.51795299 140.80743219 -63.1221413 137.62117264 -66.1875 134.6875 C-66.991875 133.883125 -67.79625 133.07875 -68.625 132.25 C-68.625 131.59 -68.625 130.93 -68.625 130.25 C-69.285 130.25 -69.945 130.25 -70.625 130.25 C-72.3515625 128.5703125 -72.3515625 128.5703125 -74.25 126.375 C-74.88164062 125.65570313 -75.51328125 124.93640625 -76.1640625 124.1953125 C-77.625 122.25 -77.625 122.25 -77.625 120.25 C-78.285 120.25 -78.945 120.25 -79.625 120.25 C-79.625 119.59 -79.625 118.93 -79.625 118.25 C-80.285 118.25 -80.945 118.25 -81.625 118.25 C-83.0703125 116.81640625 -83.0703125 116.81640625 -84.75 114.8125 C-88.11878571 110.83378677 -91.5953982 106.9729439 -95.12109375 103.1328125 C-96.625 101.25 -96.625 101.25 -96.625 99.25 C-97.285 99.25 -97.945 99.25 -98.625 99.25 C-98.625 98.59 -98.625 97.93 -98.625 97.25 C-99.285 97.25 -99.945 97.25 -100.625 97.25 C-102.3125 96 -102.3125 96 -103.625 94.25 C-103.3125 92.0625 -103.3125 92.0625 -102.625 90.25 C-101.965 90.25 -101.305 90.25 -100.625 90.25 C-100.398125 89.71375 -100.17125 89.1775 -99.9375 88.625 C-98.16929911 85.42539839 -96.08829797 82.95962777 -93.625 80.25 C-92.965 80.25 -92.305 80.25 -91.625 80.25 C-91.625 79.59 -91.625 78.93 -91.625 78.25 C-90.965 78.25 -90.305 78.25 -89.625 78.25 C-89.35244385 77.65525879 -89.0798877 77.06051758 -88.79907227 76.44775391 C-87.65699951 74.30990011 -86.50207268 72.83388243 -84.83984375 71.0859375 C-84.30939453 70.52132812 -83.77894531 69.95671875 -83.23242188 69.375 C-82.68134766 68.7975 -82.13027344 68.22 -81.5625 67.625 C-77.65929271 63.75673691 -77.65929271 63.75673691 -74.625 59.25 C-73.965 59.25 -73.305 59.25 -72.625 59.25 C-72.625 58.59 -72.625 57.93 -72.625 57.25 C-71.965 57.25 -71.305 57.25 -70.625 57.25 C-70.295 56.26 -69.965 55.27 -69.625 54.25 C-68.965 54.25 -68.305 54.25 -67.625 54.25 C-67.38265625 53.68925781 -67.1403125 53.12851563 -66.890625 52.55078125 C-65.3714899 49.78914367 -63.51604743 47.74968558 -61.375 45.4375 C-58.56887197 42.38736084 -55.82464641 39.32213306 -53.1875 36.125 C-51.9190625 34.701875 -51.9190625 34.701875 -50.625 33.25 C-49.965 33.25 -49.305 33.25 -48.625 33.25 C-48.625 32.59 -48.625 31.93 -48.625 31.25 C-47.965 31.25 -47.305 31.25 -46.625 31.25 C-46.356875 30.6725 -46.08875 30.095 -45.8125 29.5 C-44.59570811 27.19449957 -43.32166121 25.22943808 -41.625 23.25 C-40.965 23.25 -40.305 23.25 -39.625 23.25 C-39.398125 22.69828125 -39.17125 22.1465625 -38.9375 21.578125 C-37.23774074 18.56307583 -35.07695184 16.43769631 -32.625 14 C-31.2946875 12.66195312 -31.2946875 12.66195312 -29.9375 11.296875 C-27.625 9.25 -27.625 9.25 -25.625 9.25 C-25.625 8.59 -25.625 7.93 -25.625 7.25 C-23.5217433 6.26888025 -21.41736311 5.29016866 -19.3125 4.3125 C-18.14074219 3.76722656 -16.96898437 3.22195312 -15.76171875 2.66015625 C-10.25906586 0.18636086 -5.93190784 0.03443778 0 0 Z " fill="#E57000" transform="translate(329.625,91.75)"/>
<path d="M0 0 C1.39496704 -0.02175293 1.39496704 -0.02175293 2.81811523 -0.04394531 C14.31939316 0.12337568 22.72995519 5.55640396 30.875 13.3125 C32.875 15.5625 32.875 15.5625 32.875 17.5625 C33.535 17.5625 34.195 17.5625 34.875 17.5625 C34.875 18.2225 34.875 18.8825 34.875 19.5625 C36.36 20.0575 36.36 20.0575 37.875 20.5625 C39.3125 21.98828125 39.3125 21.98828125 40.875 23.875 C43.11092344 26.52356167 45.37622359 29.12384418 47.7421875 31.65625 C48.48662109 32.45421997 48.48662109 32.45421997 49.24609375 33.26831055 C50.23758372 34.32756306 51.23231058 35.3837963 52.23046875 36.43676758 C54.44446435 38.81408433 55.83394882 40.43934645 56.875 43.5625 C57.535 43.5625 58.195 43.5625 58.875 43.5625 C58.875 44.2225 58.875 44.8825 58.875 45.5625 C59.535 45.5625 60.195 45.5625 60.875 45.5625 C62.25732443 47.18876404 63.59437515 48.8550002 64.875 50.5625 C68.03615776 49.19266497 68.8677092 48.5734362 70.875 45.5625 C71.535 45.5625 72.195 45.5625 72.875 45.5625 C72.875 44.9025 72.875 44.2425 72.875 43.5625 C73.535 43.5625 74.195 43.5625 74.875 43.5625 C75.14070801 42.97460693 75.40641602 42.38671387 75.68017578 41.78100586 C76.90635808 39.50427547 78.20954608 37.93017167 79.9921875 36.06640625 C80.59933594 35.42509766 81.20648438 34.78378906 81.83203125 34.12304688 C82.46496094 33.46369141 83.09789062 32.80433594 83.75 32.125 C84.99907561 30.81540217 86.24651149 29.50423816 87.4921875 28.19140625 C88.07967773 27.57281738 88.66716797 26.95422852 89.27246094 26.31689453 C90.6534201 24.80507666 91.93542325 23.20394429 93.1953125 21.58984375 C93.74960938 20.92082031 94.30390625 20.25179687 94.875 19.5625 C95.535 19.5625 96.195 19.5625 96.875 19.5625 C97.13410156 18.98242188 97.39320313 18.40234375 97.66015625 17.8046875 C102.36119005 9.12818138 111.75821754 3.60142749 120.875 0.5625 C134.18473649 -0.83580508 145.7643 -0.406107 156.875 7.5625 C158.2462456 8.85681103 159.59475122 10.17811616 160.875 11.5625 C159.50555898 14.51206528 157.99669591 17.08718811 155.875 19.5625 C155.215 19.5625 154.555 19.5625 153.875 19.5625 C153.875 20.2225 153.875 20.8825 153.875 21.5625 C153.215 21.5625 152.555 21.5625 151.875 21.5625 C151.51921875 22.39007813 151.51921875 22.39007813 151.15625 23.234375 C149.56254857 26.13024711 147.58582727 28.35762037 145.375 30.8125 C144.5809375 31.70453125 143.786875 32.5965625 142.96875 33.515625 C140.875 35.5625 140.875 35.5625 138.875 35.5625 C138.215 37.2125 137.555 38.8625 136.875 40.5625 C136.215 40.5625 135.555 40.5625 134.875 40.5625 C134.545 41.5525 134.215 42.5425 133.875 43.5625 C133.215 43.5625 132.555 43.5625 131.875 43.5625 C131.60623047 44.15345459 131.33746094 44.74440918 131.06054688 45.35327148 C129.87205118 47.56799504 128.63523243 49.09809077 126.90625 50.91015625 C126.33519531 51.51537109 125.76414062 52.12058594 125.17578125 52.74414062 C124.58152344 53.36482422 123.98726562 53.98550781 123.375 54.625 C122.19601817 55.86408177 121.01886127 57.10490314 119.84375 58.34765625 C119.32232422 58.89301025 118.80089844 59.43836426 118.26367188 60.00024414 C116.66900866 61.72177464 116.66900866 61.72177464 114.875 64.5625 C114.215 64.5625 113.555 64.5625 112.875 64.5625 C112.875 65.2225 112.875 65.8825 112.875 66.5625 C112.215 66.5625 111.555 66.5625 110.875 66.5625 C110.6063916 67.15401855 110.3377832 67.74553711 110.06103516 68.35498047 C108.86999041 70.57182415 107.64009966 72.07915807 105.8984375 73.8828125 C105.31352539 74.49632568 104.72861328 75.10983887 104.12597656 75.74194336 C103.5069043 76.38397705 102.88783203 77.02601074 102.25 77.6875 C97.288416 82.896147 92.63970065 88.13795457 88.328125 93.90234375 C87.84859375 94.45019531 87.3690625 94.99804688 86.875 95.5625 C86.215 95.5625 85.555 95.5625 84.875 95.5625 C84.875 96.2225 84.875 96.8825 84.875 97.5625 C84.215 97.5625 83.555 97.5625 82.875 97.5625 C82.61219238 98.14676758 82.34938477 98.73103516 82.07861328 99.33300781 C80.81679472 101.67031555 79.44138639 103.31067435 77.6171875 105.234375 C76.99199219 105.89824219 76.36679688 106.56210938 75.72265625 107.24609375 C75.07167969 107.92800781 74.42070312 108.60992187 73.75 109.3125 C73.09128906 110.00988281 72.43257813 110.70726562 71.75390625 111.42578125 C70.13172226 113.14200489 68.50534621 114.85403435 66.875 116.5625 C63.76109666 115.18876924 61.74003021 113.63687421 59.421875 111.15625 C58.803125 110.49496094 58.184375 109.83367187 57.546875 109.15234375 C56.91265625 108.46269531 56.2784375 107.77304688 55.625 107.0625 C54.9753125 106.37285156 54.325625 105.68320313 53.65625 104.97265625 C48.875 99.81975446 48.875 99.81975446 48.875 97.5625 C48.215 97.5625 47.555 97.5625 46.875 97.5625 C45.53515625 96.234375 45.53515625 96.234375 43.9375 94.3125 C40.8478773 90.67575662 37.67340118 87.13148755 34.4375 83.625 C33.49448492 82.59793781 32.55177458 81.57059573 31.609375 80.54296875 C29.87154825 78.6481021 28.13182473 76.75505643 26.390625 74.86328125 C25.66359375 74.06277344 24.9365625 73.26226562 24.1875 72.4375 C23.22263672 71.38175781 23.22263672 71.38175781 22.23828125 70.3046875 C20.875 68.5625 20.875 68.5625 20.875 66.5625 C20.215 66.5625 19.555 66.5625 18.875 66.5625 C18.875 65.9025 18.875 65.2425 18.875 64.5625 C17.885 64.2325 16.895 63.9025 15.875 63.5625 C14.3671875 62.06640625 14.3671875 62.06640625 12.75 60.125 C9.14807575 55.85976636 5.39323184 51.75745454 1.59765625 47.6640625 C-0.125 45.5625 -0.125 45.5625 -0.125 43.5625 C-1.61 43.0675 -1.61 43.0675 -3.125 42.5625 C-3.125 41.9025 -3.125 41.2425 -3.125 40.5625 C-3.785 40.5625 -4.445 40.5625 -5.125 40.5625 C-5.3725 39.77875 -5.62 38.995 -5.875 38.1875 C-6.82929186 35.474411 -6.82929186 35.474411 -8.90625 34.7109375 C-11.88801388 33.16755972 -13.65014378 31.06364555 -15.875 28.5625 C-16.67421875 27.675625 -17.4734375 26.78875 -18.296875 25.875 C-20.125 23.5625 -20.125 23.5625 -20.125 21.5625 C-20.785 21.5625 -21.445 21.5625 -22.125 21.5625 C-22.125 20.9025 -22.125 20.2425 -22.125 19.5625 C-22.785 19.5625 -23.445 19.5625 -24.125 19.5625 C-25.8393618 17.60322937 -27.50905168 15.60369788 -29.125 13.5625 C-27.5970408 9.67314931 -25.57531773 7.88618337 -22.125 5.5625 C-21.465 5.11261719 -20.805 4.66273437 -20.125 4.19921875 C-13.5777207 0.4744044 -7.36959541 0.06133662 0 0 Z " fill="#000000" transform="translate(153.125,60.4375)"/>
<path d="M0 0 C3.30653354 1.41088411 5.1547817 3.05531369 7.4375 5.8125 C10.8516296 9.84671724 14.47266198 13.5552208 18.3125 17.1875 C20 19 20 19 20 21 C20.66 21 21.32 21 22 21 C23.375 22.36328125 23.375 22.36328125 25 24.3125 C28.8819307 28.90023628 32.95638472 33.29014043 37.05859375 37.6796875 C39 40 39 40 39 42 C39.66 42 40.32 42 41 42 C41 42.66 41 43.32 41 44 C41.99 44.33 42.98 44.66 44 45 C45.5078125 46.49609375 45.5078125 46.49609375 47.125 48.4375 C50.72692425 52.70273364 54.48176816 56.80504546 58.27734375 60.8984375 C60 63 60 63 60 65 C60.99 65.33 61.98 65.66 63 66 C63 66.66 63 67.32 63 68 C63.66 68 64.32 68 65 68 C65.2475 68.78375 65.495 69.5675 65.75 70.375 C66.70776304 73.09129304 66.70776304 73.09129304 68.80859375 73.875 C71.64520895 75.33123027 73.22106474 77.22523591 75.3125 79.625 C76.488125 80.96304688 76.488125 80.96304688 77.6875 82.328125 C78.450625 83.20984375 79.21375 84.0915625 80 85 C81.27026918 86.45882476 82.54104379 87.91720969 83.8125 89.375 C84.36679687 90.014375 84.92109375 90.65375 85.4921875 91.3125 C86.74991782 92.72011528 88.08550091 94.05766755 89.4375 95.375 C91 97 91 97 91 99 C91.66 99 92.32 99 93 99 C94.6875 100.8125 94.6875 100.8125 96 103 C95.67 103.99 95.34 104.98 95 106 C94.34 106 93.68 106 93 106 C93 106.66 93 107.32 93 108 C80.40981055 115.35970633 68.31986231 118.68227519 53.6875 114.9375 C46.12847071 112.27924137 39.19811677 107.06446956 34 101 C34 100.34 34 99.68 34 99 C33.34 99 32.68 99 32 99 C27 93.52380952 27 93.52380952 27 91 C26.34 91 25.68 91 25 91 C25 90.34 25 89.68 25 89 C24.39784668 88.7328418 23.79569336 88.46568359 23.17529297 88.19042969 C20.9491197 86.97215574 19.79620669 85.89420194 18.1953125 83.953125 C17.69386719 83.355 17.19242187 82.756875 16.67578125 82.140625 C16.16402344 81.51671875 15.65226562 80.8928125 15.125 80.25 C12.07888188 76.57284463 9.05365057 72.99331846 5.6171875 69.671875 C3 67 3 67 3 65 C1.68 65 0.36 65 -1 65 C-1.26570801 65.58789307 -1.53141602 66.17578613 -1.80517578 66.78149414 C-3.03135808 69.05822453 -4.33454608 70.63232833 -6.1171875 72.49609375 C-7.02791016 73.45805664 -7.02791016 73.45805664 -7.95703125 74.43945312 C-8.90642578 75.42848633 -8.90642578 75.42848633 -9.875 76.4375 C-11.12407561 77.74709783 -12.37151149 79.05826184 -13.6171875 80.37109375 C-14.20467773 80.98968262 -14.79216797 81.60827148 -15.39746094 82.24560547 C-16.7784201 83.75742334 -18.06042325 85.35855571 -19.3203125 86.97265625 C-19.87460938 87.64167969 -20.42890625 88.31070313 -21 89 C-21.66 89 -22.32 89 -23 89 C-23.66 90.65 -24.32 92.3 -25 94 C-25.66 94 -26.32 94 -27 94 C-27 94.66 -27 95.32 -27 96 C-28.12621876 97.19447444 -29.26423739 98.37960386 -30.453125 99.51171875 C-31.53197431 100.54970256 -32.58237876 101.61771727 -33.609375 102.70703125 C-41.20963733 110.70822485 -49.52720899 115.49390622 -60.69140625 116.25 C-72.83862316 116.44300444 -80.5262788 114.12250614 -91 108 C-91 107.34 -91 106.68 -91 106 C-91.99 105.67 -92.98 105.34 -94 105 C-93 103 -92 101 -91 99 C-90.34 99 -89.68 99 -89 99 C-88.773125 98.46375 -88.54625 97.9275 -88.3125 97.375 C-86.04324569 93.2687303 -82.96424784 89.95781952 -79.65625 86.671875 C-76.00825265 83.00241884 -72.62685148 79.11173399 -69.20703125 75.23046875 C-68.47871094 74.49441406 -67.75039062 73.75835937 -67 73 C-66.34 73 -65.68 73 -65 73 C-64.34 71.35 -63.68 69.7 -63 68 C-62.34 68 -61.68 68 -61 68 C-60.505 66.515 -60.505 66.515 -60 65 C-59.34 65 -58.68 65 -58 65 C-57.73646729 64.41428223 -57.47293457 63.82856445 -57.20141602 63.22509766 C-55.94897158 60.90549218 -54.59683426 59.29795369 -52.77734375 57.3984375 C-52.15666016 56.74359375 -51.53597656 56.08875 -50.89648438 55.4140625 C-50.25001953 54.74117187 -49.60355469 54.06828125 -48.9375 53.375 C-47.65291865 52.03058186 -46.37026898 50.68431453 -45.08984375 49.3359375 C-44.52128662 48.74345215 -43.95272949 48.1509668 -43.36694336 47.54052734 C-41.90616037 46.02826021 -41.90616037 46.02826021 -41 44 C-40.34 44 -39.68 44 -39 44 C-39 43.34 -39 42.68 -39 42 C-38.34 42 -37.68 42 -37 42 C-36.73646729 41.41428223 -36.47293457 40.82856445 -36.20141602 40.22509766 C-34.94897158 37.90549218 -33.59683426 36.29795369 -31.77734375 34.3984375 C-31.15666016 33.74359375 -30.53597656 33.08875 -29.89648438 32.4140625 C-29.25001953 31.74117187 -28.60355469 31.06828125 -27.9375 30.375 C-26.65291865 29.03058186 -25.37026898 27.68431453 -24.08984375 26.3359375 C-23.52128662 25.74345215 -22.95272949 25.1509668 -22.36694336 24.54052734 C-20.90616037 23.02826021 -20.90616037 23.02826021 -20 21 C-19.34 21 -18.68 21 -18 21 C-17.773125 20.46375 -17.54625 19.9275 -17.3125 19.375 C-14.45237012 14.19952689 -10.20117122 10.09870362 -6 6 C-4.8945243 4.89714392 -3.79037146 3.79296036 -2.6875 2.6875 C-1.3571875 1.3571875 -1.3571875 1.3571875 0 0 Z " fill="#000000" transform="translate(218,192)"/>
</svg>
