<?xml version="1.0" encoding="UTF-8"?>
<svg version="1.1" xmlns="http://www.w3.org/2000/svg" width="512" height="512">
<path d="M0 0 C1.76470489 1.30496213 3.30685372 2.67349671 4.88671875 4.19140625 C8.7680095 7.0429668 11.44806998 6.91052054 16.14453125 7.15234375 C25.38062048 8.10425267 33.57804722 14.37321201 39.44921875 21.25390625 C44.44688599 27.94824112 47.58915963 35.83981795 50.94921875 43.44140625 C51.57828125 43.22484375 52.20734375 43.00828125 52.85546875 42.78515625 C58.44768884 40.96600032 63.07151717 39.7556744 68.94921875 40.44140625 C73.37975527 42.6988392 75.97117319 45.54648607 79.109375 49.390625 C89.17297825 61.66172519 89.17297825 61.66172519 103.63671875 66.97265625 C109.84090987 67.2811223 115.98467443 67.0518467 122.16625977 66.45581055 C126.63661038 66.43267249 126.63661038 66.43267249 128.94921875 68.44140625 C130.7955381 74.72046358 131.75355665 81.08883265 132.70155334 87.55516052 C132.94807141 89.20360186 132.94807141 89.20360186 133.19956964 90.88534504 C133.74757232 94.55639527 134.28991789 98.22825833 134.83227539 101.90014648 C135.22469596 104.53698706 135.61742837 107.17377947 136.01054382 109.81051636 C136.96573439 116.22219514 137.91671112 122.63449207 138.86625964 129.04700857 C139.97307513 136.52046815 141.08411026 143.99329856 142.19531994 151.46610583 C144.1784526 164.80350326 146.15780673 178.14145868 148.13500977 191.47973633 C150.05190182 204.41112855 151.97138222 217.34213297 153.89379883 230.27270508 C154.0121878 231.06901647 154.13057677 231.86532787 154.25255329 232.68576991 C154.42983577 233.87820744 154.42983577 233.87820744 154.61069971 235.09473461 C154.84868594 236.6954852 155.08667089 238.29623599 155.32465458 239.89698696 C155.44203116 240.68649696 155.55940774 241.47600695 155.68034119 242.28944149 C157.5145208 254.62745431 159.34625279 266.96583065 161.17776774 279.30423925 C161.84065828 283.76971458 162.50392493 288.23513385 163.16746981 292.70051198 C164.22025718 299.78535382 165.27199106 306.87035022 166.32153542 313.95567327 C166.80084992 317.19131587 167.28084302 320.42685508 167.7619133 323.66223717 C168.28409683 327.1748225 168.80424178 330.68770389 169.3238678 334.20066833 C169.47522865 335.2156609 169.6265895 336.23065346 169.78253704 337.27640337 C170.62498102 342.98928906 171.34665297 348.6981172 171.94921875 354.44140625 C166.64769914 356.51363194 161.42764914 358.21460488 155.90356445 359.5703125 C155.1429924 359.76100311 154.38242035 359.95169373 153.59880066 360.14816284 C151.10863992 360.77127617 148.61687303 361.3876796 146.125 362.00390625 C144.3738627 362.44045723 142.62282162 362.87739433 140.87187195 363.31469727 C137.2086586 364.22859593 133.54471011 365.13946141 129.88012695 366.04785156 C125.21726399 367.20370876 120.55566669 368.36456838 115.89454365 369.52742004 C111.40927115 370.64622487 106.92342837 371.76273454 102.4375 372.87890625 C101.1788938 373.19228439 101.1788938 373.19228439 99.89486122 373.51199341 C95.26039585 374.66496104 90.62357985 375.80751664 85.98386002 376.93914795 C84.07402228 377.41059806 82.16869871 377.90022945 80.26376343 378.39111328 C79.15989288 378.66681152 78.05602234 378.94250977 76.91870117 379.2265625 C75.99498215 379.46383057 75.07126312 379.70109863 74.11955261 379.94555664 C66.37524788 381.15678885 58.86252685 380.33438957 51.20048523 378.96754456 C50.27258598 378.80899158 49.34468672 378.6504386 48.38866931 378.48708099 C45.3067582 377.95838838 42.22705621 377.41781699 39.1472168 376.87719727 C36.92740559 376.49387006 34.70746694 376.11128028 32.4874115 375.72937012 C26.47827318 374.69347348 20.47097428 373.64725012 14.46396232 372.59910321 C8.17327573 371.5032425 1.88096122 370.41681007 -4.41117859 369.32933044 C-14.97111634 367.50291662 -25.53000467 365.67056821 -36.08813477 363.83374023 C-46.94644669 361.94470379 -57.80542411 360.05956571 -68.6652832 358.17944336 C-69.33488995 358.06351594 -70.0044967 357.94758851 -70.69439457 357.82814813 C-73.3861429 357.36214757 -76.07789568 356.89617267 -78.76965441 356.4302322 C-99.3880088 352.86116582 -120.00571824 349.28835449 -140.62145042 345.70417023 C-142.78176095 345.32865095 -144.94210781 344.95334063 -147.10249329 344.57825279 C-150.04742678 344.06687849 -152.99221712 343.55468809 -155.93696594 343.04225159 C-157.22391931 342.81900037 -157.22391931 342.81900037 -158.53687173 342.59123904 C-162.38524456 341.92063325 -166.22516083 341.23401748 -170.05078125 340.44140625 C-169.3683001 329.00905746 -167.88295287 317.70615192 -166.39868164 306.35620117 C-166.12564378 304.24909998 -165.8528906 302.14196188 -165.58039856 300.03479004 C-164.84390182 294.34676541 -164.10310219 288.65930921 -163.36123586 282.97198272 C-162.74115207 278.21534471 -162.12314382 273.45843795 -161.50511068 268.70153314 C-160.04729316 257.48136063 -158.58592527 246.26165449 -157.12231445 235.04223633 C-155.61379546 223.47809316 -154.11123269 211.91318707 -152.61158758 200.34789008 C-151.32154155 190.40064309 -150.02784348 180.45387575 -148.73121065 170.50748521 C-147.95777854 164.57426535 -147.18571832 158.6408753 -146.41716194 152.70702171 C-145.69496684 147.1323808 -144.96820542 141.55835385 -144.23794365 135.9847641 C-143.9710663 133.94199237 -143.70578882 131.89901088 -143.44224548 129.85580635 C-143.08171169 127.06267863 -142.71535174 124.27037373 -142.34754944 121.47819519 C-142.24511069 120.67381159 -142.14267194 119.869428 -142.03712898 119.04066914 C-140.23628573 105.5327778 -140.23628573 105.5327778 -136.51416016 102.10620117 C-132.29536388 100.07828831 -128.16708835 98.92165397 -123.63671875 97.8046875 C-121.80493748 97.3065875 -119.9742341 96.80450955 -118.14453125 96.29882812 C-115.28319907 95.51446741 -112.42442835 94.75358016 -109.54003906 94.05834961 C-98.9642802 91.93682211 -98.9642802 91.93682211 -90.8432312 85.61273193 C-89.13887601 81.34450709 -88.65281769 76.97358563 -88.27075195 72.42172241 C-87.80034516 68.18682129 -86.00136314 64.33732787 -84.36328125 60.44140625 C-84.02296875 59.61455322 -83.68265625 58.7877002 -83.33203125 57.93579102 C-76.12390224 40.80501714 -67.00517293 25.88072168 -54.05078125 12.44140625 C-53.46167969 11.81492187 -52.87257813 11.1884375 -52.265625 10.54296875 C-39.45335935 -1.90323216 -16.3361898 -9.73514876 0 0 Z M-51.30078125 29.12890625 C-62.70286164 43.59368137 -73.48689227 62.20102959 -77.05078125 80.44140625 C-76.72078125 81.43140625 -76.39078125 82.42140625 -76.05078125 83.44140625 C-58.70161667 80.82825924 -58.70161667 80.82825924 -44.16992188 72.32617188 C-41.76068118 67.49558376 -41.16896152 62.32725627 -40.50439453 57.02050781 C-39.76020322 52.78927151 -38.01469586 49.14123958 -36.11328125 45.31640625 C-35.77047119 44.61443115 -35.42766113 43.91245605 -35.07446289 43.18920898 C-28.88287138 30.8458955 -20.33097863 19.13969573 -8.05078125 12.44140625 C-8.83953886 10.27539916 -8.83953886 10.27539916 -10.859375 9.8359375 C-27.51448586 6.83742378 -40.91438251 17.1966249 -51.30078125 29.12890625 Z M15.94921875 21.44140625 C16.07039062 21.99183594 16.1915625 22.54226562 16.31640625 23.109375 C18.33427109 33.12108901 19.06243038 43.28107568 19.94921875 53.44140625 C28.36421875 50.96640625 28.36421875 50.96640625 36.94921875 48.44140625 C35.25027037 38.24771596 30.16922981 29.81843864 21.94921875 23.44140625 C18.68098054 21.8984874 18.68098054 21.8984874 15.94921875 21.44140625 Z M-12.140625 31.41796875 C-20.34295477 40.0913234 -31.05078125 56.02916545 -31.05078125 68.44140625 C-26.12966539 67.83936742 -21.60376205 66.84445423 -16.83984375 65.41015625 C-16.18623871 65.21417847 -15.53263367 65.01820068 -14.85922241 64.81628418 C-13.49216915 64.40517173 -12.12585037 63.99160951 -10.76025391 63.57568359 C-8.66234707 62.93731841 -6.56188426 62.3079669 -4.4609375 61.6796875 C1.71241397 60.35014617 1.71241397 60.35014617 6.94921875 57.44140625 C8.07012029 45.47643401 5.56511999 33.42097715 0.94921875 22.44140625 C-3.93313285 22.44140625 -8.77010706 28.23015178 -12.140625 31.41796875 Z " fill="#95BF47" transform="translate(255.05078125,67.55859375)"/>
<path d="M0 0 C5.07407561 2.02963024 6.08014207 2.89835398 9.28125 6.97265625 C19.75085997 19.84950317 19.75085997 19.84950317 34.7578125 25.60546875 C40.94640405 25.91375229 47.0708678 25.66522475 53.23291016 25.03027344 C57.6767674 24.98165527 57.6767674 24.98165527 60 27 C61.84648 33.27899489 62.80434074 39.64744577 63.75233459 46.11375427 C63.99885266 47.76219561 63.99885266 47.76219561 64.25035089 49.44393879 C64.79835357 53.11498902 65.34069914 56.78685208 65.88305664 60.45874023 C66.27547721 63.09558081 66.66820962 65.73237322 67.06132507 68.36911011 C68.01651564 74.78078889 68.96749237 81.19308582 69.91704089 87.60560232 C71.02385638 95.0790619 72.13489151 102.55189231 73.24610119 110.02469958 C75.22923385 123.36209701 77.20858798 136.70005243 79.18579102 150.03833008 C81.10268307 162.9697223 83.02216347 175.90072672 84.94458008 188.83129883 C85.06296905 189.62761022 85.18135802 190.42392162 85.30333454 191.24436366 C85.42152286 192.03932201 85.53971118 192.83428036 85.66148096 193.65332836 C85.89946719 195.25407895 86.13745214 196.85482974 86.37543583 198.45558071 C86.49281241 199.24509071 86.61018899 200.0346007 86.73112244 200.84803524 C88.56530205 213.18604806 90.39703404 225.5244244 92.22854899 237.862833 C92.89143953 242.32830833 93.55470618 246.7937276 94.21825106 251.25910573 C95.27103843 258.34394757 96.32277231 265.42894397 97.37231667 272.51426702 C97.85163117 275.74990962 98.33162427 278.98544883 98.81269455 282.22083092 C99.33487808 285.73341625 99.85502303 289.24629764 100.37464905 292.75926208 C100.60169032 294.28175093 100.60169032 294.28175093 100.83331829 295.83499712 C101.67576227 301.54788281 102.39743422 307.25671095 103 313 C97.835576 315.01187346 92.72035611 316.71734451 87.33740234 318.05297852 C86.61745087 318.23552185 85.89749939 318.41806519 85.1557312 318.60614014 C82.80031782 319.20188222 80.44325156 319.79073371 78.0859375 320.37890625 C76.42692021 320.79560808 74.76795505 321.21251752 73.10903931 321.62962341 C69.63842726 322.50099545 66.16693344 323.36874469 62.69482422 324.23413086 C58.28210385 325.33442397 53.87214137 326.44535083 49.46285057 327.55929661 C46.03735517 328.42309957 42.61022 329.28025046 39.18260574 330.13560295 C37.55803789 330.54199878 35.93401273 330.95057136 34.31058884 331.36151314 C25.54178265 333.57780379 16.91267904 335.48677493 7.9281311 336.61412048 C5.26834475 336.96463658 2.63068523 337.47386295 0 338 C0 226.46 0 114.92 0 0 Z " fill="#5E8E3E" transform="translate(324,109)"/>
<path d="M0 0 C1.3780481 -0.01426025 1.3780481 -0.01426025 2.78393555 -0.02880859 C10.43951264 0.00824448 17.48179109 1.37590261 24.875 3.25 C24.3143115 9.93773033 23.00062218 15.96130645 21.0625 22.375 C20.52105008 24.21452464 19.98069355 26.05437144 19.44140625 27.89453125 C19.17602051 28.79510254 18.91063477 29.69567383 18.63720703 30.62353516 C17.53494305 34.42179138 16.50788055 38.23827571 15.5 42.0625 C15.18289063 43.26519531 14.86578125 44.46789062 14.5390625 45.70703125 C14.31992188 46.54621094 14.10078125 47.38539063 13.875 48.25 C12.76125 47.96125 11.6475 47.6725 10.5 47.375 C-3.01864969 44.02181402 -18.35802714 40.72972831 -31.125 48.25 C-35.51896039 52.08599716 -37.80851158 55.55984845 -38.5 61.4375 C-37.92179084 67.31595982 -35.61748292 71.15056246 -31.09375 74.9609375 C-28.48700962 76.81172317 -25.8244283 78.53696878 -23.125 80.25 C-5.55364763 91.64657185 12.4422345 103.45427899 17.25 125.375 C19.90978394 144.322533 17.29975926 162.43302683 5.76953125 178.11328125 C-3.10152622 188.46023147 -13.66023926 194.88815465 -27.125 197.25 C-28.71176009 197.3372751 -30.30146816 197.38056157 -31.890625 197.3828125 C-33.22673828 197.38474609 -33.22673828 197.38474609 -34.58984375 197.38671875 C-35.50894531 197.38285156 -36.42804688 197.37898437 -37.375 197.375 C-38.27863281 197.37886719 -39.18226563 197.38273438 -40.11328125 197.38671875 C-56.52425405 197.36310584 -70.40471932 193.39685379 -84.125 184.25 C-84.89457031 183.77820313 -85.66414062 183.30640625 -86.45703125 182.8203125 C-88.48523891 181.40416751 -89.73748306 180.29253905 -91.125 178.25 C-91.67792715 170.74356806 -88.94325679 162.8076582 -87.0625 155.625 C-86.78083984 154.52542969 -86.49917969 153.42585937 -86.20898438 152.29296875 C-85.52080462 149.6102341 -84.82604562 146.92939571 -84.125 144.25 C-80.5488924 145.63290911 -77.25620445 147.23876435 -73.91113281 149.11914062 C-63.90023408 154.71542229 -53.86953821 158.93581888 -42.125 157.25 C-37.5354886 155.03719986 -35.40405153 152.73708447 -33.125 148.25 C-32.07497344 142.42194562 -32.25781358 136.79588484 -35.3125 131.625 C-39.85162796 125.71134738 -46.13140786 121.56644804 -52.125 117.25 C-66.5663882 106.78009415 -76.00325652 96.3244423 -79.125 78.25 C-80.97389316 60.085874 -75.43952313 42.73550805 -64.625 28.25 C-63.48047493 26.89761276 -62.31413535 25.56333393 -61.125 24.25 C-60.54492188 23.57839844 -59.96484375 22.90679687 -59.3671875 22.21484375 C-44.15415472 5.69692741 -21.62296848 0.18326072 0 0 Z " fill="#FEFEFD" transform="translate(241.125,183.75)"/>
</svg>
